<mxfile host="Electron" agent="Mozilla/5.0 (X11; Linux x86_64) AppleWebKit/537.36 (KHTML, like Gecko) draw.io/28.1.2 Chrome/138.0.7204.251 Electron/37.5.1 Safari/537.36" version="28.1.2">
  <diagram name="Page-1" id="9JzZV4sWPgST85noANju">
    <mxGraphModel dx="1391" dy="974" grid="1" gridSize="10" guides="1" tooltips="1" connect="1" arrows="1" fold="1" page="1" pageScale="1" pageWidth="850" pageHeight="1100" math="0" shadow="0">
      <root>
        <mxCell id="0" />
        <mxCell id="1" parent="0" />
        <mxCell id="ZT6ZYekeUi55vI-1DfLU-1" value="&lt;b&gt;&lt;u&gt;TOWER MICROCONTROLLER&lt;/u&gt;&lt;/b&gt;" style="text;html=1;align=center;verticalAlign=middle;resizable=0;points=[];autosize=1;strokeColor=none;fillColor=none;" vertex="1" parent="1">
          <mxGeometry x="25" y="440" width="190" height="30" as="geometry" />
        </mxCell>
        <mxCell id="ZT6ZYekeUi55vI-1DfLU-6" value="" style="shape=image;verticalLabelPosition=bottom;labelBackgroundColor=default;verticalAlign=top;aspect=fixed;imageAspect=0;image=data:image/png,iVBORw0KGgoAAAANSUhEUgAAApMAAAJBCAYAAAAa4D7ZAAGd+UlEQVR4Ae3AA6AkWZbG8f937o3IzKdyS2Oubdu2bdu2bdu2bWmMnpZKr54yMyLu+Xa3anqmhztr1a/aNlddddVVV1111VVXXfWvA0Dlqquuuuqqq6666qqr/vUAqFx11VVXXXXVVVddddW/HgCVq6666qqrrrrqqquu+tcDoHLVVVddddVVV1111VX/egBUrrrqqquuuuqqq6666l8PgMpVV1111VVXXXXVVVf96wFQueqqq6666qqrrrrqqn89ACpXXXXVVVddddVVV131rwdA5aqrrrrqqquuuuqqq/71AKhcddVVV1111VVXXXXVvx4Alauuuuqqq6666qqrrvrXA6By1VVXXXXVVVddddVV/3oAVK666qqrrrrqqquuuupfD4DKVVddddVVV1111VVX/esBULnqqquuuuqqq6666qp/PQAqV1111VVXXXXVVVdd9a8HQOWqq6666qqrrrrqqqv+9QCoXHXVVVddddVVV1111b8eAJWrrrrqqquuuuqqq6761wOgctVVV1111VVXXXXVVf96AFSuuuqqq6666qqrrrrqXw+AylVXXXXVVVddddVVV/3rAVC56qqrrrrqqquuuuqqfz0AKlddddVVV1111VVXXfWvB0Dlqquuuuqqq6666qqr/vUAqFx11VVXXXXVVVddddW/HgCVq6666qqrrrrqqquu+tcDoHLVVVddddVVV1111VX/egBUrrrqqquuuuqqq6666l8PgMpVV1111VVXXXXVVVf96wFQueqqq6666qqrrrrqqn89ACpXXXXVVVddddVVV131rwdA5aqrrrrqqquuuuqqq/71AKhcddVVV1111VVXXXXVvx4Alauuuuqqq6666qqrrvrXA6By1VVXXXXVVVddddVV/3oAVK666qqrrrrqqquuuupfD4DKVVddddVVV1111VVX/esBULnqqquuuuqqq6666qp/PQAqV1111VVXXXXVVVdd9a8HQOWqq6666qqrrrrqqqv+9QCoXHXVVVddddVVV1111b8eAJWrrrrqqquuuuqqq6761wOgctVVV1111VVXXXXVVf96AARXXfU/0OMf/3h++7d/m2maAPjd3/1d/uqv/gqAH/uxH+N3f/d3+Z/s8Y9/PLfffjvDMPDbv/3b3O/3f//3+bVf+zWmaeLChQv89m//Nn/xF3/BNE08PwcHB3z/938/T3jCE7jqqquuuuqq/2EAkG1z1VX/w7z7u787P/ZjP8Yf/dEfccMNN3DLLbfwyq/8yvzu7/4uv/qrv8qJEyd4hVd4Bf6nes/3fE9e+qVfmnd/93fn2muvxTY//dM/zUd/9Efz8Ic/nO/6ru/iH/7hH3jXd31XbrjhBq6//np+7dd+jQfKTF7hFV6BEydOcM011/CDP/iDXHXVVVddddX/IAAEV131P9SjHvUo/uRP/oQ//uM/5lGPehT3+63f+i3+8i//EoAv+IIv4BGPeAQ/+7M/yx/+4R/ytm/7trz8y788AD/6oz/KS77kS/I+7/M+TNPEf7e/+Zu/4dVe7dX49V//dW6++WYAXvZlX5bv+77v4+///u95br/3e7/HxYsX+fVf/3V+8Ad/kKuuuuqqq676HwaA4Kqr/od6xVd8Rf7kT/6EP/mTP+FVX/VVud/58+e5dOkSq9WKz/mcz+GXf/mXeeM3fmNWqxW/9Vu/xbd/+7cD8Emf9El8+Zd/OU94whP4hV/4Bf67vfM7vzO//Mu/zEd+5Edyvz/4gz/gNV/zNXnrt35rnttTn/pUHvrQh3LVVVddddVV/0MBEFx11f9Aknj5l395/vzP/5w//uM/5pVe6ZWwzf1ss7u7i20e9rCH0fc9tnnIQx7CS7/0SwNw991382Iv9mI8/OEP59Zbb+W/Uq2VzCQz6boOgEc96lH81V/9Fd///d/PH/7hHwLwaq/2avzlX/4l3/md38l6veb93//9efCDH8wv//Ivs729zf7+PlddddVVV131PxQAlauu+h/INhsbG8znc+68805uvvlmJPFAp0+fZmdnhx//8R/nsY99LM/txV/8xfme7/ke/viP/5j3eq/34r/SIx/5SH7lV34FgJd92ZcF4Dd/8zeRxPHjx5mmCYC7776bH/uxH2NjY4Ou6/j2b/927nfXXXfxfu/3fnzP93wPD3rQg3jt135trrrqqquuuup/EADKZ3/2Z382V131P8y5c+d41KMexUMe8hBe8iVfkpd+6ZcmM3mN13gNzp8/z0Mf+lAe9ahH8fIv//J88zd/M495zGO46aabGMeR13md1wHg1V7t1fiRH/kRXu/1Xo/3fd/35b/Sy73cy/H0pz+dJz3pSXzVV30Vp06d4h/+4R/4hm/4Bt74jd+Y93qv92K5XPKMZzyDg4MDvuRLvoQHPehBPND29jav8AqvwPd///eztbXFK77iK3LVVVddddVV/4MAINvmqquuuuqqq6666qqr/nUAqFx11VVXXXXVVVddddW/HgCVq6666qqrrrrqqquu+tcDoHLVVVddddVVV1111VX/egBUrrrqqquuuuqqq6666l8PgMpVV/0Xa+PTGY5+kTY8DrdLmOR/mto/Fi0+jr/5m7/hfwNJ9H3Pzs4O119/PRsbG1x11VVXXXXVfzIAKldd9V/EnljvfSvrg58Ckv/Jsl1H2KzXa/63WK1W7O3tceedd3LTTTfxkIc8BElcddVVV1111X8SACpXXfVfZLn7FYxHv8pV/7lsc/vtt9Na4xGPeARXXXXVVVdd9Z8EgOCqq/4LjKs/ZTz6Va76r3PXXXexu7vLVVddddVVV/0nASC46qr/AsPBj/KC/PpvnefhL/V73Pzo3+F7f+guAL74K5/OS77yH/KSr/KHfNBHPY6jZePgcOIlX/kPeclX/kNe8pX/kN/8nQsA/Mwv3MeDHvu7PPrlfp/f+f0LACxXjZ/5hft4jw/4O267fQnAekg+6pOewINe7Hf5sI99HJnmBZF4kX3cx30cf/3Xf81qteKd3/mdOTw8ZH9/n4/5mI/hrd7qrXjv935v7rzzTu6++27e+Z3fmXd+53fmgz7og/j93/99XpCf+qmf4p3f+Z1593d/d37kR36Ef6s77riDq6666qqrrvpPAkBw1VX/2Twyrf+O52e1Tt7vw/6BH/7ul+QXfuJl+c7vuxOAixdH3vLNzvBHv/FKPPXpR/zIT9zD1mblb//4Vbm4O/LD3/2SvO5rnWQ9JB/2sY/nZ374pfmqL340H/LRjwfg+3/4bn78p+/lF3/lHNNkAH7pV8/xF3+1x1P++tV58lOP+KVfPcd/hHPnzjEMA6017rnnHmzza7/2a5RS+Kmf+ile4zVeg1/91V9lmibOnTvHD//wD/P2b//2fP3Xfz0vyOHhIS/2Yi/G13zN1/BjP/Zj/Pmf/zn/Fru7u9jmqquuuuqqq/4TAFC56qr/ZJnngYnn5/Y7lhweNV7+ZY4B8Nu/+Arcb3+/cd/ZgWGdRIjn57bbV6xWyUu/5A4PP5i46541Z88NfMB738QHvPdNnHnIb3G/5bKxuVHouuDGG+Y88SmHvBlneH5sEP92j33sY/nu7/5uvumbvok3fMM35BGPeAS33347mcl3f/d386QnPYnXfd3X5V9y6tQpXvmVX5k//dM/5eVf/uU5ODjg4OAAgForp0+f5oVprfGXf/mXTNPEv1ff99RaeYmXeAmuuuqqq666CgCgctVV/8kU27xQhv39ibd797/hT//iEudufW0Afv23z/PUpx/xxm9wmnd7x+t5fmxTigAoRQBkmufnjV7/NF/7zbfxGm/4p9x975rXeNUT/EewzXN79KMfzdd//dfzq7/6q3zCJ3wCH/MxH8NDH/pQAK677jqWyyV/8id/wgd+4AfyLymlkJkA/PIv/zI//uM/DsDNN9/Ml33Zl/EvefjDH45t/r0ODg649957ueqqq6666qpnAqBy1VX/yaRNot5CTrfx3G66cU7fB0988iHf+Y0vxou/0h9yv7d5i2v4/M94BC/MTTfMQfDkpx5x39k1J45XTp/ueX5Onuj4o994Jf7h8Qe8w3v8Da/1aif4j7C1tcWFCxc4d+4ctVZmsxnf+Z3fiW3e//3fn8zkj//4j3noQx9KRPDGb/zG/PVf/zU//uM/zjRN1Fp5Qfb39/nTP/1TPuiDPgiAt3/7t+ft3/7teVFtbW1x7Ngx/iNkJlddddVVV131AABUrrrqv0C/9dasdr+W57aYF774cx/B27/H32Dg3d/pemoNnp+9/YlbHvO7ALzq6/8pP/DtL8GbvfEZvv7LH82bvO1fUEJ8+ze8GCXEC/LZX/QUfu03L/DZn/owHvbQDV4QiRfZu7/7u/NVX/VVtNZ4r/d6L7qu4w3e4A34/M//fH71V3+VxWLBJ37iJwIwTROv/dqvzWKx4AM/8AOptfKC/MZv/AZ/9Vd/xeu//uvz2q/92vxb3HjjjVx11VVXXXXVfxIAZNtcddV/No8cnP0Y2vh4/jco/UsRm5/Pn/3Zn/G/1bFjx3ipl3opJPEf4cKFCzz96U/n5V7u5bjqqquuuuoqAIDgqqv+K6hj49TnEPXBXPWfb2trixd7sRdDElddddVVV131nwSAylVX/ReJcoqtM1/HcPhzjMtfp41P438qif+Vtra2uPbaa7n++usppXDVVVddddVV/4kAqFx11X8hxQaz7Xditv1OOPdo423AxP80ii2IGS/1Ui/F/waS2NzcpNbKVVddddVVV/0XAaBy1VX/TRQ71NmL8z/Z8ePHueqqq6666qqrni8AKlddddVVV1111VVXXfWvB0Dlqqv+G7TxybTh8WS7BCT/00S9DnWvy5133sn/BpLouo5jx46xubnJVVddddVVV/0XAKBy1VX/hab137Ha+2ba8AT+Jyv9SxGbr8EznvEM/rfZ2dnh4Q9/ONvb21x11VVXXXXVfyIAgquu+i8yLv+Aw/OfQBuewFX/efb29vjrv/5rzp8/z1VXXXXVVVf9JwIguOqq/wLZ7uXo4heBR676z5eZPOEJT2AYBq666qqrrrrqPwkAlauu+i+w3v9B8JLn59LexPf+4F1EwNu91bVcd+2MX/ut8/zFX+0B8CqveIzXevWTrIfkq77+Gdzvbd/yGh758E3OnR/4/h++m64T7/muN7C9VVkuGz/4Y/dwaW/kLd/0Gh7+0A0A/vYf9vnFXznHox+5yVu/+TX8R/jpn/5pXuEVXoFrrrmGH/iBH+Bd3/Vd6fueP//zP+fv//7vefCDH8xrv/Zrs7e3x0/+5E8CsLOzw+u//uuzs7PD8/O3f/u3/OVf/iXz+Zw3eZM34dixY/xrTdPEbbfdxsMf/nCuuuqqq6666j8BAMFVV/0XGJe/wwvyDu/x1zzpqYc8/RlL3um9/xaAX//N8/zm71ygNfOeH/j3/M7vX+B+X/n1z+DsuYH7vfU7/zV33bPmr/9un3d//78D4GM++Yn8yq+f4+LuxFu/818BcHjYeIt3+Csi4DO/4Cn8yq+f4z/CT/3UT3HnnXcyjiPf/d3fzTAM/N7v/R5f/dVfzTXXXMMP/uAP8hM/8RNcunSJ7/3e7wXgz//8z/m0T/s0XpC//du/5Xd/93e56667eN/3fV/uu+8+7veLv/iL3HHHHbwozp07x1VXXXXVVVf9JwGgctVV/8mcF3Hu8/zcfc+aP/2LPX7mR16GkPizv7zE/V7x5Xf4tE94KI97wgF//bf7vNarn+STP/YhfMO33sb7veeNPPLhm9x+54rHPfGA3/yFl+fi7sijXvYP2D+YeLM3PsMrvOwOu5cmvuN77gDgcU88YHOz8NEf9iD+6E8v8Sd/fok3ev3T/Eexzf0ODg7o+56XfMmX5OVf/uVZLpcARATv/d7vzS/+4i/yEz/xE7wwD3nIQ/jYj/1YLl26xC//8i/znu/5ngD80i/9EidPnuSmm27iX7Jer7n99ttprfHvNY4jV1111VVXXfUAAFSuuuo/mT3wguztT8xmQTb4uE9/AgCv+krHAfipn7uPv/irff7h8Qd80Wc/gufn8LDRdUHfB8d2KgAHB423eJMzDGPyPh/6D3zCRz8EgGEwq1Xy/h/2D2Qzq3XyH8E2z+2N3uiNuOeee/joj/5orr/+ej790z+dYRiYpomP/uiP5uzZs7zO67wOL4rTp09z8eJFHv/4x/M5n/M5nD9/ni/5ki/hpV7qpfjsz/5s/iWr1YrWGv9emclVV1111VVXPQAAlauu+k8W5TRoBl7z3La3Cut1MjXzRq9/mvf6oL/na7/s0QC84ssd4/3e80Ze/LFbHD/W8fwcP1YZx+TwqHHh4kgp4vjxSmvm/T/sH3jZl9rmYz7sQQAsFsE4Jl//FY/hc77oqSzmwX+EUgrjODKOIwClFP7wD/+Ql33Zl+U93uM9+PIv/3K+7/u+j3d6p3ei1spXf/VXc8899/Cu7/quvPd7vze1Vl6Y2267jZd5mZfhYQ97GF/91V/NZ33WZ/HWb/3WvNIrvRL/klIKj3jEI/iPcOHCBZ7+9Kdz1VVXXXXVVc8EQOWqq/7TFbr5qzEuf5PndsP1c17r1U/wER//eE6e6NjeKkQIgBtvmPHqr3KC+62H5Ku+/hmsB/Md33snH/S+N/HIh2/yGq9ygg/+qMdxaW/ibd7iGhbzwqd81pP4nd+/yIe8/8188Vc+nfd45+t5sUdvsblZ+aKveDq/+Cvn+PZveDFeEIkX2cu//Mvzwz/8w5w+fZrHPOYxLBYLlssl3/RN38QbvMEb8NSnPpU3eIM3ACAz+e7v/m4e97jH8djHPpZaKy/I05/+dL7iK76CZzzjGXz6p386fd9z3XXX8WIv9mI86EEP4uTJk/xLzpw5w1VXXXXVVVf9JwFAts1VV/0na9MzOLj3A4GJ5zaMyU//3H0cLRuv8SoneNhDN/jzv9qjBLzMS+1wv3FMfuyn7uV+r/lqJ7jpxjnLVeMnfvpeNjYKb/mm11Cr+I3fPs+99w3c7w1e9xRnTvfcc++an/uls7zMS+3w8i+zwwtS+pciNj+fP/uzP+Nf0lrjD//wDzk4OOC1Xuu12NjYAOBxj3sc//AP/8BNN93Eq7zKq3B4eMjv/d7vAbBYLHilV3ol5vM5z89Tn/pUnvzkJ3Py5Ele8iVfkvl8zr9WRPDyL//yLBYL/iNcuHCBpz/96bzcy70cV1111VVXXQUAINvmqqv+CwyHP8dy96v536D0L0Vsfj5/9md/xv9Wj3rUo7juuuv4j3LhwgWe/vSn83Iv93JcddVVV111FQBA5aqr/ov0m28BdKz2vgXnHv+TSfyv1XUdD3vYw7j22mu56qqrrrrqqv9EAFSuuuq/UL/5xnQbr8O0+lPa+ETcLmKS/2lKvQXVyrXXXsv/BpLo+56dnR1OnDhBRHDVVVddddVV/8kAqFx11X8xaUa3eA26xWvwP92jH/1ornq2iOCqq6666qqrngmAylVXXXXVi6i1xl//9V/zf40kXuqlXoqrrrrqqqv+VQCoXHXVVf8quV4xnjuLM/mfQiXoTl1DzGb8Z4oIrrvuOv4vmaaJpz71qVx11VVXXfWvBkDlqquu+hd5mrjr+7+Ve374uzl8wt/zP9XWS7wMN7zr+3PtO70nisJ/NElcd911/F8yDANPfepTueqqq6666l8NgMpVV131Qq3uvI3Hf9i7s//Xf85/p2ve8h257p3fm83HvATdiVM8kFtjuOcuLv35H3LbN3wZ9/7UD/KYb/h++jPX8h8pM7nqqquuuuqqZwIguOqqq16gtjzicR/4Tuz/9Z/z3+nhn/fVPPprv5vjr/radCdO8dxUCrMbb+aat3onXvZnf4/oZzzuQ9+NHAeuuuqqq6666j8JAMFVV131At39/d/GwT/8Df9ZupOnqcdP8MLc+H4fzg3v8YEA7P/tX7L7x7/L7h//Lstbn0pbHrH7x78LmazvvYvDJ/w9MV/w2G/7UYa77+S+n/ohrrrqqquuuuo/CQDBVVdd9QLd/UPfxfNz3Tu+Fy/3K38GwLFXeDVe7e/vRX3Py/78H/Iqf/EMXvnPbuUlvv/nUddzy4d9Ao/+mu8C4LHf+iPc8J4fDMBjvv57edlf+CNe/tf/igd91Kfy/Kh23PJhn8j9Lvz6L/DEj3k/nv7Fn8HB3/wF6zuewd++8xtz/rd+hfO/8nM87Ys+DYCy2ODG9/9I7v7B7+Sqq6666qqr/pMAEFx11VXP13TpIsunPYnn5/xv/hKbj3oxutPXcPzVX5cLv/NreBgAePKnfSR//EoPZeuxL8nWY16C56ceO86ZN397/vLNX5W/fNNXpjtzLc/P9ku+LN3J09zvQR/7GWw+5iW55q3fiTNv9Y4AIHHXd38jYB7o5Ou8Eft/+5d4mrjqqquuuuqq/wQAVK666qrna7x4gRdkPHcfe3/5J5x4tdfmxKu/Dnd937dyvxve64M58xbvwOq2p3PwuL/lxGu8LveTAoDp0i73/Mh381I/9muc+8Wf4hlf/QU8P/X4SZ6HAMRlEqoduV5x9NQn8UDzG2+GbPzRH/8RY0v+vWazGV3XcdVVV1111VXPBEDlqquuer66Eyd5Yc7/+i9w6o3eiq0Xf2ku/OYvc7/dP/pd9v/qT3nUV347Oy/7SoAAcZl4lid90oey9eIvzS0f/om82Df/EH/99q/HcxvO3svzMIC5zAbghvf+UJ70CR/Ezsu/Cvcb7rsXovAqr/wqqFb+vS5cuMDTn/50rrrqqquuuuqZAAiuuuqq56seO8Hmo1+cF+T8r/0CZ970bdj7iz9m2tvlfuP5s4wXL5BHh3QnTzOcP8vGIx5Nf+31bDz80YwXzrL5yMfyqn97F+3wkLt/6LvZevGX4fk5+Ie/ZrjvHu63/7d/ybR7geWtT2N561NBAsHpN3oL6s5xHuj8b/4Sx17+lVGtXHXVVVddddV/AgAqV1111Qt04/t9BE/6hA/i+Tl68uM590s/zblf/Tnut/93f8mZt3h7zrz523H2l36K87/286jvOfHqr8NL/8RvculPfp/zv/rz5LDmaV/4aTzyS7+JurXNkz/1I3i+Mnn6F38Gj/rKbwPgwq//AouHPoJ2sMfB3/wFx175Nbj2bd8VlcpDP+2LWN99BwDTpYvc9nVfzMM/76u56qqrrrrqqv8kAMi2ueqqq54vZ/J37/EW7P7Bb/Hf6SGf/Hnc/EEfCxL/kunSRR73we9KPXacx37zD/Ef5cKFCzz96U/n5V7u5fi/ZBgG/uiP/ojXeq3X4qqrrrrqqn8VAIKrrrrqBVIEj/3GH+DYK74a/52e/sWfwV+//etx7pd/lvHiBZ6bW2N1xzO4/Vu+ij97vZcm5gse9ZXfzlVXXXXVVVf9JwKgctVVV71Q9dhxXvKHfolzv/TT3PfTP8LuH/0O7fCA/2p7f/HHPO4v3pkXpO4c4/irvjaP+IKv49QbvBmKwlVXXXXVVVf9JwKgctVVV/2LVCpn3vztOfPmbw/A+u478NT4nyK6jv66G7jqqquuuuqq/0IAVK666qp/tdn1N3HVVVddddVV/88BULnqqquuuuqqq6666qp/PQAqV1111YtkuVzyS7/0S/zpn/4p9913H5nJ/xSlFK655hpe7dVejTd4gzdgNptx1VVXXXXVVf/JAKhcddVV/6Kf/dmf5UM/9EO58847+Z/uoQ99KN/0Td/EG77hG3LVVVddddVV/4kACK666qoX6qu/+qt567d+a+68807+N3ja057Gm7zJm/Cd3/mdXHXVVVddddV/IgCCq6666gX6y7/8Sz7hEz4B2/xvkpl86Id+KE960pO46qqrrrrqqv8kAARXXXXVC/QFX/AFTNPEv8exY8f4lm/5Fn7lV36Ft3mbtwHgrd/6rfnUT/1UAD75kz+ZV3/1V+e6667ju77ru/iu7/ou3uZt3oZ/r/V6zZd92Zdx1VVXXXXVVf9JAAiuuuqq52scR375l3+Zf6/v+I7vwDbf+I3fyPd93/dx7NgxXvqlX5rP/dzP5cEPfjBv9EZvxMMf/nB2dnZ493d/d37wB3+QT/mUT+ETP/ET+ff6mZ/5Ga666qqrrrrqPwkAlauuuur5uvPOOzk6OuLf643f+I151Vd9Vf72b/+WxzzmMSyXSwAODw/50A/9UCRxP9v82q/9Gpubm3zRF30RX/qlX8q/x9mzZ3n84x+PJP69MpOrrrrqqquuegAAKlddddXz1fc9/xFmsxmr1Yof+7Ef4/Tp03zQB30QAL/0S7/EW7zFW7C/v48kJHG/8+fPc+LECf4jLBYL/iPUWjl58iRXXXXVVVdd9UwAVK666qrn69prr+XkyZNcuHCBf4977rmH66+/no/5mI/hb//2b9na2gJgvV7zwz/8w3zWZ30WtrGNbQBe/uVfnic84Qn8ez3oQQ/iwQ9+MFddddVVV131nwCA4Kqrrnq+Sim8x3u8B/9eX/qlX8o3f/M38zVf8zUMw8DZs2e53zd/8zczjiP367qO3//93+eTPumT+LRP+zT+vd7zPd+Tq6666qqrrvpPAoBsm6uuuur5uu+++3iJl3gJ7rvvPv49HvOYx3DNNdfwF3/xFxwcHPDgBz+Y+XzOE57wBF7u5V6OO++8k0uXLvFKr/RKHB4e8td//deM48i/xy233MLf/u3fcuzYMa56wYZh4I/+6I94rdd6La666qqrrvpXAUC2zVVXXfUC/fZv/zZv/uZvzuHhIf9bHD9+nF/91V/lFV7hFbjqhRuGgT/6oz/itV7rtbjqqquuuupfBYDgqquueqFe+7Vfm9/93d/ljd7ojYgI/icrpfCWb/mW/NEf/RGv8AqvwFVXXXXVVVf9JwKgctVVV/2LXvZlX5Zf/uVf5uzZs/zO7/wOT3jCE2it8T9FrZXHPvaxvM7rvA7Hjx/nqquuuuqqq/4LAFC56qqrXmRnzpzh7d/+7bnqqquuuuqqqwCgctVVV1111VVXXXXVVf96AFSuuuqqq6666qqrrrrqXw+AylVXXXXVVVddddVVV/3rAVC56qqrrrrqqquuuuqqfz0AKlddddVVV1111VVXXfWvB0Dlqquuuuqqq6666qqr/vUAqFx11VVXXXXVVVddddW/HgCVq6666qqrrrrqqquu+tcDoHLVVVddddVVV1111VX/egBUrvo/yV4yrf+KnO7AueR/iygnKfM35fbbb+eqF50kuq7j2LFjbG5uctVV/9VWqxW7u7us12ts8z9RKYWNjQ1OnDhBRHDVVVf9uwFQuer/Fo+sD36C9f4PYh/yv010D2PWvRHPeMYzuOpf1nMPW3ocnS6w5+Pc5scw23kMD3/4w9ne3uaqq/6zLZdLnv70p/P4u2/nr1fnuXdashMdj5kd5+GzY/xPVGvllltu4aabbkISV1111b8ZAJWr/g9JDi98PtPq97nq/zbRuDm+iVPx64B5oIsHr8nf/vVH8+jHvhSnTp3iqqv+sxwdHfHXf/PXfOM9f8uPXHoqk80DvcLiDJ95zcuxXTr+J5mmiac97Wns7e3x2Mc+FklcddVV/yYAVK76P2O9/0NMq9/nqv/rkgfHl3M8/pBhNJ/0NUsuXDKbC/FlH7PgxOJ3qb7EE5/wubz8K7wKfd9z1VX/0WzzD//wD3zFXX/JT+7dioAvffk348HbJ7Hhw//4J/mz5Vk+9u4/5GtveDUWUfmf5ty5c9xxxx3cfPPNXHXVVf8mAFSu+j/Bech6/4f5l7Q0X/0Nz+Dpty55izc9wxu93mluu33FD/7Y3QBcd23Pu7zD9cz64Ed+4h6e/owlAC/2mC3e4k3OkGm+5Tvv4PFPOuSD3/cmHvvoLe731Kcf8WM/dS+f/LEPAeAJTzrkO773DjY3Kx/y/jdz7Zme/wh//ud/zjRNvPIrvzL3O3fuHD//8z/P/W666SZe//Vfn+///u9nmiauvfZa3uiN3oiI4Pm5++67+ZVf+RUA+r7nrd7qrdjc3OSHfuiHeMM3fEO6ruOnf/qnec/3fE+e8Yxn8Fu/9Vvc793e7d04OjriZ37mZ3jP93xP7nf77bfzG7/xGzzQq7zKq7CxscFv/MZvcL93fud35tKlS/zKr/wK7/Zu78bf/d3fsbe3x2u+5mvy/BzTn3I8/hCAr/i+Ne//NjNe7GGFp9/Z+PLvXfFZH7RgW3/DdvsNbrvtRh7+8Idz1VX/0e69917+/MKd/OTerQB88KNflV++84n85t1P4fRsk8992TfiQ//oJ3nysMePXHoq733iUTw/d911F7/6q78KwOnTp3njN35jaq38V7ntttu44YYbKKVw1VVX/asBEFz1f8K0/nPsI/4lX//Nt/Erv36et3zTM3zwRz2Oxz/xkNvuWPJt330Ht9w050d/8l4+9bOfDMCZMz2/8/sX+Lt/2OfUyQ6AL/mqp/Obv3OeN3idU7zZ2/8ld9295n4f/nFP4Iu/8unc730/9O85eaLjGbct+bTPfjL/Uf78z/+cP/qjP+KBzp49y4/+6I9y3XXXcd1113HixAkAfuAHfoBSCr/4i7/I133d1/GC3H333fz0T/801113HU984hP5iq/4CgB++Id/mPPnz7O/v8/3fu/3AjCfz8lMfvRHf5TrrrsOSezt7fG93/u9PNBsNuO6667jiU98In/913/Nddddx8bGBrPZjIjgB3/wB7nuuuuICO677z6+8zu/kz/4gz/gr//6r/m93/s9XpDT8cvcb//Q/PofTwA85MbCeuBZTsevcu7cOa666j/D2bNn+eWD27nfI3ZO8+Ctk5yabXBufciyjdzvl/dvxzx/d955Jz/7sz/Lddddxy//8i/zTd/0TdzvwoUL7O3t8aK49957WS6XPLfVasV9993HCzJNExcvXuSqq676NwGgctX/CW28lRfFT/38fXzkB9/CG77eaf74N1+J7a3K+QsDmxuFd33H6zHwnd97JwCv+5on+YmfuZebb5zzqq90HIBf/vXzfOyHP4i3eJMzfMt33s6v/9Z53vNdb+C7vv9ObrxhxgNtbVV2tisnT3S0Zv6z1Vp56Zd+aQCOHz8OgG1e7dVejdd7vdfj3d7t3fjgD/5gZrMZz0/f97z0S780d955J3feeScAtnlu1157La/yKq/Cz/7sz/LGb/zGvCDXXHMNb/zGb8ztt9/OpUuXeOM3fmPu92qv9mr8yI/8CG/8xm/M/ebzOT/90z/NS77kS2KbF2ShZ3A/Ce67mNxP4lkWejrr9ZqnP/3pSOJ/go2NDa655hquetHcfffdrNdr/ifa39/nKes97pdOjvcL+qgA2OZ+90xL9nNkJzqen42NDd74jd+YaZr41V/9VQC+67u+i1/+5V+mtcb7v//78wZv8Aa82Zu9GV/yJV/CD//wD/PgBz+YY8eO8Y7v+I58yqd8CnfffTcXLlzgq7/6q3n4wx/Or//6r/O93/u9LJdLpmnip37qp3hBDg8POX36NFddddW/GgDBVf83KHhRLJeNrc3Cp37Ok3m/D/sH/vyv9gC49+zAG7/NX/AZn/cUPubDH8QLslw2ZrMAYHOjsFw17r1v4Lu+/y4++WMfwgO91qud4Du+705+4ZfP8nqvfYr/bEdHR3zxF38xX/zFX8yTn/xkACQhiRMnTmCb/f19XpDd3V2++Iu/mF/+5V/mJV7iJQCwzX8WSTzQ5uYm29vbPOUpT0ES/5L9Q3NwZN7k1TuecXfyjLuT/UO4dGD+J9rf3+fs2bNc9aK7++67WS6X/E8lcdlG7djp5vzJ2WewWTsevHWCnW7OqdkG9wtesLNnz/LhH/7hfNu3fRvv+q7vynK55Pu///v5hm/4Bj790z+d7/qu76KUwi233MIf//Efc/fdd3P33Xfz8Ic/nD/5kz/hKU95Ch/7sR/La73Wa/FTP/VT3G8cR77ru76LH//xH+eqq676TwFA5ar/E6Jcz4vi5ImOu+8d+KgPfRDv8B5/w9lzA9de03PqZMe3fu1jOXmiY2ur8oKcOtlxcXcE4Oy5gdOner75O2/n6c844i3f6a8A+LhPfSJf8rmP5Cu//hn89R+8Co97wgGf9yVP4y3e5Az/EvFvt7W1xVd/9Vfz/Dz96U9nPp9z/PhxXpBTp07x1V/91fzd3/0dn/mZn8nbvM3bUEphHEeGYaCUwn+2t3/7t+ejPuqjeL3Xez1ekKUfRKcL3HvBvOKLV77q+9a87et1/ORvDLzt6/XceV9ybKuw9IPouo6HPOQh/E9w5513sru7y1X/OmfOnOH06dP8T7O3t8fD+h3+YXWRE/0Gf3jfrXzUi70Gv3fP03nTmx/Njzztr3n4zmnOn72N6+qCreh4QU6ePMmnf/qnc+zYMRaLBZcuXaK1xtbWFpubmxwdHQHw0Ic+lD/+4z/mxV/8xfmLv/gLPuqjPoo///M/xzZ//dd/zZkzZ3jwgx/M/c6cOcPW1hb/ko2NDa666qp/EwAqV/2f0M1fmZU2sQ95YT7gvW/iM7/gKTzhSYc8/dYjTp3sAKhF3HLzggf6um++jT/6k13+drNw3TU97/3uN/Le73YjX/n1z+Av/3qfvf3G6732Sd7ura7lsz75Ydx594oXe4U/5Cu+8FEAvPRLbPPxn/5Ezp0beZmX2uZFYV40f/VXf8UXf/EXA/A2b/M2ABwdHfHFX/zFADz0oQ/lHd/xHQH49m//dp7whCfwwR/8wdRaeUF2d3f5oi/6Iv7hH/6Bl37plwbg5V/+5fn6r/96IoKXf/mXB+CJT3wi3/u938vR0RFf/MVfzMd93McB0Frji7/4iwF46EMfyju+4zvy/DzlKU/hu77ru1itVnzxF38xH/mRH8n9XuIlXoKHP/zhvDBn8y3YKX/Fw28OHn5zzxOe3ni3N+25877k3d60537n8s245rpruOqq/wxnzpzhze95ED+39wzuPLrEdz/lz7l2sc0PP/2vON7P+e6n/Dn3e8udB/PClFK47rrruN+xY8d4pVd6JT7/8z+f/f193viN3xiAhz3sYTz5yU/mpV7qpfjDP/xDTpw4wSu8wivwrd/6rdx9991kJg95yEP416i1cvLkSa666qp/EwBk21z1f8J6/wdZ7X0H/5I//8tL3HPfwKMfucnDH7rBpb2JJz3lkFd42WM80N8/7oDdSyMAZ073POoRmwA8+alHPO3pR7zmq59gMS/cbz0kf/YXl3j1VzkBwMFh4zd++zyzWfB6r3WSrgv+JaV7GP3xr+eP/uiPeEHuuusu7rvvPu734Ac/mL7vedKTnsT9tre3edjDHsbf/u3fkpmcOXOGG2+8EYBf+IVf4Nd+7de432d8xmfQ9z1PfepTAdjc3OQhD3kItVbGceSP/uiPsM0rv/IrM5vN2N3d5dZbb+V+L/ESL8E0TTz+8Y/nfjs7Ozz0oQ8F4J577mEcR26++WYA9vb2eNrTnsb9XvzFX5z1es2tt97Ki73Yi3HXXXcxjiMPetCDeEFuia/lVPwGAN/2E2s+4O1mPNCuX5nb9em8wiu8In3f8z/BnXfeye7uLi/2Yi/G/yTDMPBHf/RHvNZrvRb/0/zlX/4lt9xyC6dPn+Z/Gtv8+Z//Od9w51/xPRefBMC7P+xl+bnbH8elYcX9Xmx2gq+54VWpCp6f/f197rjjDh7zmMfwQMMw8Pu///v0fc+rv/qrA7C7u8vFixe55ppruPPOO3nkIx8JwP7+Pn/yJ3/Cddddx4u/+IsDcPHiRc6dO8cjHvEIXpiHPvSh3HzzzVx11VX/JgDItrnq/wYnhxc+k2n1R/xvVbqH0R//ev7oj/6I/ywHBwccHBxwvzNnzlBK4X8T0bg2fpxr4ycJVtwv6Tibb8m9vBuPfbGX5uTJk/xPceedd7K7u8uLvdiL8T/JMAz80R/9Ea/1Wq/F/zR/+Zd/yS233MLp06f5n+jo6Ii/+uu/4ifPP5Vvu/B49nPkfoF4k+2b+fBTL8YiKv8TnT59msc+9rFI4qqrrvo3AaBy1f8dCjZOfjbrve9gOPw57CX/25j/fFtbW2xtbfG/mSnck+/E2XxzdvRn9Jxj5CR7fnlmm9fz4g9/OMePH+eqq/4zbWxs8DIv/TJsP2WbN9q+iT86vJe7piN2ouOVNq7hTF3wP1EphRtvvJEHP/jBSOKqq676NwOgctX/KVJlfuyDmO28J9PqL2nj48l2nv8tolxLRHDttddy1YvqoUQEJzY2eOiJE2xubnLVVf9VNjY2eMmXfEkeuVrx4hcucHh4SGuN/4lmsxk7OzscP36cUgpXXXXVvxsAlav+T5IWdItXo1u8Gv8bPfrRj+aqq67632M+n3PDDTdw1VVX/b8CQOWqq6666qqrrrrqqqv+9QCoXHXVVVddddVVV1111b8eAJWrrrrqqquuuuqqq6761wOgctVVV1111VVXXXXVVf96AFSuuuqqq6666qqrrrrqXw+AylVXXXXVVVddddVVV/3rAVC56qqrrrrqqquuuuqqfz0AKlddddVV/4MMw8AwDPxXkIS5YhgGhnEEm/8KtVbm8zlXXXXVVf+LAVC56qqrrvof5G/+7u/4+8c9jv8Ki8WCRz784QA87glP4O/+4R+Ypon/Cg+65RZe97Vei6uuuuqq/8UAqFx11VVXXXXVVVddddW/HgCVq6666qqrrrrqqquu+tcDoHLVVVddddVVV1111VX/egBUrrrqqquuuuqqq6666l8PgMpVV1111VVXXXXVVVf96wFQueqqq656AS4cLdlbrfmPsH+0ZDWM3Hphlxfm3N4+y+WS/wqSmKYJgHEcWS5XTNPIf4ULl/a49cIuL8zQGmcPjjiIXf4jnNiYc2w+56qrrrrqPwgAlauuuuqqF+Bzf+13+MY/+DP+PXrB8RK8/s3X8+KnjvHVP/YLABymOUzz3N7m+IJX3Oz5rxAKpmkCYJomVqsl4zjxX+EPnvxU3vX3/5rntlPEXALgc17ppfjZP/gL/uK+85yfksa/z+e/yevyia/zalx11VVX/QcBoHLVVVdd9Z/o5r7w/qe3OLM9Y2dW+ZhrtwH4nf0Vv7y35qrn9MY7c15mowfgui54y+NzXlPbfOW9+5ydkquuuuqq/0EAqFx11VVXvQDiBTuzucFDTp1gd7niSWfPc9V/ny6CR15zikXX8aSz59lbrbnqqquu+i8AQOWqq6666l/hFW+5ka956zfm5W66gftdXK748t/+Q77st/6AF2QWh2yWiWv6p3JueDAvSPQdm5sb/FfY2Nig6zrG9Zqu69jc3GQcR/4rtMM1L8iEuasmDw6zEi/QrBa+8E1fn/d9xZdhs++4368+8al81E//Ek89f5Grrrrqqv9EAFSuuuqqq15Er/nQB/Fz7/cuLLqOBzqxmPMFb/K63Hx8h4/8qV/igc50F3jz09+Mdl6Og+5leZnTX8eybfOM6a1h7+E8N0VhNpvxX6Hve0opANRa6fueiOC/Qq4mnp+nzSb+5NjEWuYlw/zaxpr7xiVZgIln6Urhp9/nnXm9RzyU5/aGj3oYv/Wh781rf+N387TzF7nqqquu+k8CQHDVVVdd9SI4Np/xw+/x9iy6jhfkg1/l5Xmnl34x7nemO+BrHvqdnOrv4IEWZZ9PuvkHePWdp3LVs813xB0nzVrmge7oEt8ICp7ls97wtXi9RzyUF+S67S1++N3fHklcddVVV/0nASC46qqrrnoBzLO9+8u9JKc3N/iXfMSrvxL3e59r/oSbZ7s8P52ST77xN/nv1HcdD9R1Hf+dtq8LEM9XvwjmxwRAXwof8qovz7/kpW+8jtd4yC1cddVVV/0nAaBy1f964zjyN3/zNzziEY/g2LFj3HfffSyXS66//nr6vgfg9ttv5/rrr6fWyv8U6/Wau+++mxMnTnDs2DF2d3fZ3d3lhhtu4PDwkB/4gR/gwz/8w7nqf4aXvvE6XhQvf/MN1AimTF5t5+m8MC+9dQdbZc1Bm3G/HAb29vb5zyKJ06dOct2117G5ucEwjACs12se8qAHsb9/wF13383F3V3+M9Vx4oFKD6UTD/TXRxc5P625X78plhfNw06fYHs240XxCjffyO8+7Rlc9e9z1113kZncdNNNTNPEHXfcwfb2NqdOneIHfuAHeLVXezUe/OAH87/FU57yFCTxsIc9jKOjI+677z6OHTvGiRMnALh48SKSOH78OFdd9UIAEFz1v96bv/mb877v+7581Ed9FADv//7vzxu90Rvx4Ac/mCc+8YkAvMIrvAL33HMP/5P87d/+LY94xCP4hE/4BAA+/MM/nIc//OH8/d//Pa017r77bq767yWerSp4UYTErBYANmLgfjXPMW+38kABzDTyQM5kmiamaWKaJqZpYpompmlimiamaWKaJqZpYpompmlimiamaWKaJqZpYpompmlimiamaWKaJqZpQhKPftQjeciDH8xiMSczyWwAZCaZyebmBo94+MN4+MMehp1M08Q0TUzTxDRNTNPENE1M08Q0TUzTxDRNTNPENE1M08Q0TUzTxDRNTNPENE1M08Q0TUzTxDRNKJMHUojn9jOX7uAZwyH3ixAARcGLamvWcdW/35u/+ZvzyEc+ktVqxR/90R/x8Ic/nE/7tE8D4OzZs6zXa/63+OEf/mFe9VVflbd7u7fjrrvu4pd/+Zd56Zd+aV76pV+aL/3SLwXgS77kS/jar/1arrrqXwBAcNX/en/1V3/Fd3/3d/Pd3/3d3O8TP/ETea3Xei1+4Rd+gf+pJPGwhz2MP/qjPwLgz//8z3nQgx4EwMHBAU960pMAePrTn84rv/Ir897v/d4AvM/7vA/v8z7vww/+4A9yeHjIW7/1W/MyL/My/Pmf/zlX/ed50rnzvCjuvLTP4TAC8JcHN3G/nfUfcM3hd/FAt62Pc37a4r9C13W8xIu9GNtbW7woTp44zmMf8xgigv8K09pkMy/MsEwAbr24y9gaL4on3HeOq/5jPPjBD+Yv/uIv+KM/+iMe/vCHc7+nPvWpXLhwAYCP+qiP4iVe4iV48pOfzE/91E/x4R/+4bzVW70VAN/yLd/Ci73Yi/GZn/mZ/Hf6q7/6K97pnd6Jv/7rv+aGG24A4MVf/MX5tm/7Nr73e7+Xq676VwAguOp/vXd7t3fjnd7pnfj7v/977vcbv/Eb/N7v/R6PetSj+J9sa2uLiOCpT30qx48fZzabAXB0dMQf/dEfAfD1X//1vOIrviJf93VfB8Cf/dmfcerUKd78zd+c7/u+70MSH/MxH8Mnf/Inc9V/nh/+q79nbI1/yff9+d9wv2+791VYZuUF+Zq7XpP/Ko9+5COYz2f8a2xvbfGwhz6E/xKGw/PmBckGywsG4GA98FN/9wT+JWcPjviFxz+Zq/5jvMIrvAJ/+Id/yB//8R/zqq/6qtzvr/7qrzh//jxPetKT+IEf+AF+67d+iwc/+MHceeed/PIv/zJf8RVfwdHRER//8R/PT/7kT/It3/ItPPnJT+a/y9u//dvzXd/1XXzt134t97vvvvv4pm/6Jh71qEdx1VX/CgBUrvpf7yu+4iuYzWa8x3u8B3/1V38FwNHREd/2bd/Gm7zJm3A/2/xPYhuAV3qlV+Irv/IredVXfVV++Zd/GQDb3O/222/ndV7nddje3uZ+b/mWb8nOzg5Pf/rTedSjHsVjH/tYnva0p3HVf56nX9jlU37xN/jyt3hDXpC/vONuvvg3f5/7PWV1hk98+rvwVQ/9YapGHugH73tNfujcy/Hcou/Z3t7mP9Kpkyc4deo0z49txvWavp/x/Nx4w43sHxxweHjEf6R2sOS5HZ5Nrt8IDrZ4DnOL3dsb2XiWT/j5X+VVHnwzNx/f4fmZMvnAH/tZDtYDV/3HeNVXfVV+7dd+jb/7u7/jQz/0Q3niE5/I/Wxz++23c9NNN3H69GkAbPNKr/RKPPzhD+dpT3sapRQe9ahHcdNNN/H0pz+dRzziEfx3eIVXeAV+8zd/k9d7vdfjNV/zNQFYrVa83uu9Hu/1Xu/F/Wxz1VX/AgAqV/2v9wM/8ANcd911HB4ecr+3eIu34E3e5E14IEn8TyIJgFd91Vflwz7sw/ie7/kefvmXfxkASdzvYQ97GH/0R3/Ei7/4i/Mar/EaAEQEAI997GP53u/9Xq699loe8YhHcNV/rq/9vT8Bw+e/6esyr5UH+tUnPpV3+4Gf4GgceaC/PnwUP3HvZ/LgxV9yvN7HUdvhttVL8OsXTwJrnpsi6LrKf6Trr7uOUoLnZpv1ag1Am0b62Yzn5/rrruMZt93Gf6SM4Pl52b2O6114etdYyZxpwSPGyjesD3igu/cOeMNv+V5+9D3fkZe4/hoe6NzhER/0Yz/HLzz+yVz1H+elXuql+MzP/Exe8iVfklIKDySJBz/4wTzjGc/gD//wD7npppuQhCQAbrjhBgB+67d+i6c97Wk87GEP47/Lr/3ar1FK4dixY+zv7wNwyy238OEf/uE8kCSuuupfAEDlqv/1fvZnf5azZ8/yxV/8xQC83uu9Hg9/+MN5oHd6p3diY2OD/0lOnTrFW7zFW/C6r/u6vMM7vAOv8RqvwVu/9Vtz6tQpaq28wzu8AwCf9EmfxKd92qfxAz/wA7zGa7wGb/3Wb80111wDwLu+67vyh3/4h/zu7/4uX//1X89V//m+9vf/hB/6q7/jdR7+EB588jgXl0v+9LY7+Zu77uUFWeU2Tzh8LZ7Tiv8KtVY2NjZ4brY53N+ntQbA8uiIcRzZ3NriuR3b2eG/0nWtcF0r/Eueev4ir/DV38qrPvhmXvKGa9noOp5w3zl++6m3crAeuOo/zlu8xVtw7bXX8mEf9mE88pGP5NSpUxw7dgyAN33TN+Wmm27iYQ97GF/zNV/DZ3/2Z/M1X/M1PPrRj6bvewDm8znf+Z3fyRd8wRfwpV/6pTzsYQ/jv8ttt93G933f9/Gmb/qmvNqrvRp/9Vd/xZu8yZvwQC/3ci9H3/dcddW/AADZNlddddVVz8dH/8wv841/8Gf8ezxsVnj/01s8t9/ZX/HLe2ue29tfd4I3OHOM/yibm5s88uEP57mNw8DR4SHPbWt7m1Irz+3v/uEfmKaJ/yh/cemQb73tLM/tHU8seJmNnuf2lffuc3ZK/j0+/01el098nVfjqquuuuo/CACVq6666qr/RGen5Kd2lzy3u8fG89OGNbu7l/iPtFqteG7TNPH8rNZryjTx3I6Ojjg6WvIfpRsbz8+fH47cOjSe236aq6666qr/YQCoXHXVVVf9J9pr5k8PB15kaTKT/yjr9YBtnpsknh9J2Oa5rddrMpP/MDbPz9OGiacNXHXVVVf9bwBA5aqrrrrqv8BWLbzciR0Ams3vn9vlv8JyuSTTRIgHighKrbRp4n6lViTx3IZhYBwn/qu81pkT3O9PL1xi2ZKrrrrqqv+BAAiuuuqqq/4r7O/x0Duewiuz5pon/x3/VTKT3Uu7PD+lVrq+p/Y93WxGqZXn5/yFi/xXuv7Jf8cra82DnvFEODrkqquuuup/KAAqV/2XmxJ+944lf37vwD1HE+tm/rf7lFc8zqnxq5jWf8X/Jpunv5jh+7+R6Ul/yv9qEcT2KcrDXpbu1d6euP5h/E+zv7fHt33fNwPgrqf7qE/j+YnZjGPHtvmPtL+/z/XXXce/hW0ODw84dmyH/0i37i+BfZ6f7/v2b0NcUd73I9Bswf8kXh8x/t6PMP3D7+MLd+Fxzf8W3Su9BeWNX4vlxS/nf5N+4w15wvpd+da/2+N/qlkR124UXv7aGa9505wuxFX/5wFQueq/1FN3R772r/a456jxv0EIXvn6OS92suPMRmF/SJ68O/I7d6xYTuZ+U0LmRbLdy/8m9kTuncMX7uJ/u3buDtrT/4bhN7+P/g3em9lbfQxE4d/julnHS53Y5IXZGxu3H62Z0vxHkEQphf9Iy9WKi7u7nDp5kn+tu++5h6k1Sin8R7LEf5R5CW7emLFRgxfmzKzy7zX9/e+x+t5PxXtn+d/IB7vYa7Ldy/8mmXsMzZxbJvc7Pgte66Y5DzlWWVRxz2HyV/et+euzA/9d7jxo/OV9Az/91CM+8qV3eMSJjqv+TwOgctV/mbsOJj73j3dZNfO/wWYnPukVjvOoEx0P9Oo3znnrh23yhX+6y237E1f9D5MTw698O14vmb/zZ/Dv8YbX7vDqL/8w/iWrlvzM7ef5zqfew5jmf6I77ryT+WzG5uYmL6rdS5e45957+Z9qqxY+9JHX8/rXn6CG+Jdcd2aHf4/pyX/O8hs/GLJx1X+vlzjd83Evd4xFFc9yBt74wQv++O41X/fXl5iS/zb3HTU+/092+fxXO8HN25Wr/s8CILjqv4SBb/ybfVbN/G8Qgk96heM86kTH83NiHnz6Kx3nxDy46n+m8bd/gOlJf8q/R8w32G08X1OaZb/BQV2AxDs9+Axf8jIPoYb4nygzefJTn8rZc+f4l9jmrrvv5um33sr/VNtd4etf8WG88Y0nGYGj6NlXZd2S5+diE/Rz/q08rll99ydCNq767/XQY5VPeoVjLKp4fl75+hkf+BI7/HdbNfMNf72Huer/MAAqV/2XePLFkSfvjvx7OJO//e7P484//iVmO6d4mQ/+Ik4+/CW5969/j7/6lk8BBY99p4/mltd6W/72e76Afus4j3rrD+b3PvfdueYlX51Hv92H8aJ6levnPOpEB8Af3bXi6/9mj80avNSZng98yW26EMdmwVs/bIPv+ocD/iV7+xMf/rGP56//fp/XfvUTfMUXPZq7717z5u/wlwCcPNHxNV/2aF7qxbf5jM97Mj/zC2cBeMWXP8a3f/2LcXAw8V4f9Pc8+WlHvPWbXcPnfvrDud/v/P5FPuLjH8+v/9zLc82Znt/63Qt81hc+Fdt8xic9lDd83dO8UBL/WbpXe3v6N/0QGFYMv/HdjL//YwBo8xjdK70V2jnN+qe/EoDyyFdk9rYfj2YbDL/5fYy/9yP8e42/8d3UR74i/1Yv/ZgX46Uf82L8+d//LUd3PY2QABhnW7zES788p3eOAbB7eMhf/8Uf8tIn4R0fdIYffPp9PLfrb7yBT/me7+XExoLbLuzy6U++i+enrVZcuJD8Zzl//gKbm5vccP11nDh+nFor9xuGgQsXL3LX3fewWq34z9RNyQvyVd/+nVx/bIfzh4d87uNu5ULyPD7kkddzy+YcNo/xii/18hzb3ALgvt2LPOFv/owYlgAMaW54xEvw6g99GP8e01//Gj5/F/9R4qZHs/iQbwCb6S9+ifXPfz2Ma6gd9aVen/oyb8jq2z8GgLjmQczf/fPQieuZ/vwXWf/MV/FvJvEv+a7vv5Ov++bbOHGi42u+5NG8+GO3+ICP+Af+5M8uEUW82ztexyd81EP427/f593f/++438/+6Mvw4FsWfPv33MHXf+vtnDnd8R1f/2LccvMCgGFI3uqd/4q3fNNr+JD3v5mP/ITH89u/d5H7ffanPoy3fctr+Ze826O36EIAfMGf7PK0SyNF4l0evcXr3DwH4LVumvOLTz/i1r2J5+fCk/+av/iGT2BaHvKwN31vHvlWH8jFp/4df/AF78P9XvsLf4LZsVP8yoe9NgDdxjYv/YGfx7Uv+epcesbj+ZOv/Aim5SEv9q4fz4Ne++14fp6+N/H48wOPPdVz1f9JAARX/Zf423MD/17nn/gXPOO3fpw3+Opf42Fv+t484ce+hpxG/uhLP5CX+aAv5BU+8iv586/7ONq4Zti7wHBwiX/44a9kfek8j3zLD+Bf41VvmPFAN29VvuH1TnFu2fiFpy2536tcP+dF8XXffBtjM3/626/MnXev+fXfOs80JXffs+bnf+xleKe3u44P+ejHAfDRH/Yg3uj1T/HyL7vDF3zWIwD46m+8jWPHKn/8G6/EL/zqWX75184BsFo1PuWzn8Rtd6xozQB8yVc9nfd61+v5kPe7mc//0qfx30mLLfLeW1l9z6cwe8uPor7U6wGw+KCvo77cmxDXPZT7lYe9DOuf/iqW3/kJzN/500HBv9f0+D8Cm3+vl3/xl6Q7eS0AyzSv9EqvzumdY9zv+OYmL/7Sr8g6zZvecILn557JfNTfPZ33/JPH8elPvov/ToeHhzz5KU/lT//8L/iTP/tz/vwv/4o/+dM/48//8q942tNvZbVa8d/pE59wO+/xJ//AR//9rVxInseiBK933QmOEl7u5V+VY5tb3O+a4yd4+Iu/LM0G4NgND+bRD30Y/17t8X/Ef6jaocUWy6//QMrDXobZW3wkALO3/xS6V34r6qNfmfv1b/GRtGf8HUdf8z70b/i+aOc0/1nuuHPFp372k/nJH3xp3ufdbuCrvuEZANx3duD93utGfug7X4Jv/o47+JM/u8SjHrnJd3zDi3HbHSt+7sdehhtvmPOM25d89hc+lV/+yZfl9V/7FB//6U/ifl/9jc/gr/52n0t7EwCf8UkP4+d/7GX4iR94KQ4OG6/+Kif4l+z0wYud7nmgd3rUJp/zqif4jr/f4/yqcb9XuX7OC/LnX/txPOQN3pXX+rwf5e++5/M5vO8Odm55JK/yid/M0X238zpf9JNsnL4BbI7uu51X/4zv4dFv+6H88Rd/IAB//nUfz8Pe5L149c/8Xv7i6z+B9d4FXpC/Ozdy1f9ZAFSu+i9xdtn499q56eEogsf90Ffw4Nd/Zx78uu/AwT3PYNi7yDUv+eoogrf98adzvwtP/AvOPf7PeONv+j2i6/nXOL0oPLcuxCtcN+Ovzw68NRsAHJsFG1X8S/7yb/Z44zc4zXwW/MT3vzQAT3v6EQhuuXmBMTaXnTrZc2ynslon157pAfjLv9njzd7oDBsbhVd++eP82V/t8cZvcJov+apbeZu3uJbHPeFp3O81XvUEv/Ib55n1wWu+6gn+RTb/EeK6h0IEeddToF/AsASAYUm79W8Z/+KXKI95Faa/+Q2OvvI96V/3PSmPfEXuN/zSt1Ae8lL0r/FOTE/8E3Dy7zYs+cs//zPGNP9e5w6POAEsjp9iYzbjuZ3eOcbYb3BDiEUJli3536C1RmuN/02uX/R0IRYnrmHR9zy3G06d5i9dOK7k3nMX+ZM/+RP+vR5511Op/Nvo2DXEyetpt/4tlArmikzynqcx/Nb3M3uTD2b9k1/G+oc/l7j5sWx81Hdwv9V3fBwA5SEvhddLvDrg38zmhfmbv9/nIQ9e8OBbFjz4lgXv/s43cL9TJzo2NwoAxsz64IYbZgA86OYFAH/79wc8+EELrrt2xuu99km+5TvvAODJTz3kp3/uPt7qza7hfmdO9wB81/ffyeu+5kmuOdPzLzm9CMTzun6zcN1m4ckXR05dXwC4frPwguw+/e+57uVel41rbuLtfvI27rc4fQMAm9feAkAbVgBsnLmJS7c+HjAAF57817zCR301Ozc9gn7nBLtP+3uufenX5Pk5t2xc9X8WAJWr/kts1uDfq98+wet/1a9w62/8KL/7We/Co97mQ7j+FV4fBIrguZ173J/Sbe5w/gl/ztZ1D+JfYzWZ56cZqsT9DAxp/iWZUEJ82uc8me/6/jv5tE94KG/yBqcZR/OSr/yHnDzR8ZVf9CheEBsiuKwUkc38w+MP+Omfv48f+76X4gu+7GmcOz9w/XUz9vcnbMiE1Tr5r6DFNosP+Qa8PCDveAJx4yNZ/fDn8xzGAS22eWG0eQyioI0diAo58e8jHvbwh2EV/t3uuJ3x7gOE+E8VIiL4P0/m32qyAYgQL4hCANxyyy3cdOoU/17dX5wk+bdZfMBX4eU+WmyTZ28j73gC01P/kmcZ11B7Xhgdu4b5+345q+/6RBhW/GfJZkqIv/ybPd75vf+W7a3CX/zeqwDwmV/wVI7tVN773W7glV/hOM+PbSQuKyFsA/DRn/hEPvyDb+E3fvsCu5dGhjHpu6A187XffBvf/nUvxotiOZkXpCWExP3WzTw/zgRAEi+qX/2I16HbOsYrfMzXAYCNIgBQFOzkBdnoxFX/ZwFQueq/xC07lX+vu//817n7z36dl/2QL2b7xofxDz/45Tz0Dd+NKB0H99xK6eb85ie/FW/8Db8DwMPf/H059ZhX4C+/6ZO5/uVfn37rGC+qJ14cefTJjvtNNvccNv7orhWvddOC+z1ld2RK/kW33DTncY8/4Mu/8FE84/YV9+s68bd//Kr8Sx764AVPfdoRAI97wgHv95438oQnH3LjDTM+6hOfAMC3ftcdfN2XP4af+vn7+N5vfQkW8+At3umv+PIveBQvlMS/l4cVR1/9Pnj3PrpXfRvaU/+KfMbfwSNejstqT33sqzH82nfxgsze6qMZ//JXWP3oF7D9tX+Nto7hvfP8e8T1D2X7xCn+I+RTngDAwe55lsPAou95oN3DQ+pwxG3LNcuW/FuVfsbx48f4v+6plw75t7rzaOBgbOjsfazGkXnX8UC7h4cscoIQq+UBx48/jH+v9S2PZfjb3+TfYvk9n4zP3k597KsRNzyS4fd+hLjhEdyvvuTr0J7yFzyLeA7aOsHGx3w3w699B9Pf/Tb/LhIvzC23LHjG7Sse+bANvumrHsMnfsaTuN/nftrDePd3voEX5mEP2eAZt60Yx+TxTzzkkQ/f5GjZUMAP/ujdPOWpR3R98EHvezMPedCCn/3F+zh9suPlXmaHF8U9h41LQ3KsD+63P5g/u2fN+VXymJMd93vCxZHnRxFsXvdgLt36eOYnr+NXP+J1eI3P/kG2rnsQL8gbft1v0W8d437bNz6M/Tufyvz4GZbn7mLnpkfwgtyyXbnq/ywAKlf9l3jF62Z8/+OD/SH5tzr16Ffg77//S/nFD3wV2uqIl3yfz6QuNnmJ9/wUfuPj3hQMD379d6L0cwCim3Hzq705T/+V7+dvv+tzefmP+ApeVL/09CPe8EELFlXMqlhN5ov/bJdXvn7GGzxowf1+8smHvCg+7iMezHt8wN/xkq/8hxwcNj7o/W7iBfmMz3sy3/NDd9OaWS6Tb//6F+MjP+QW3uE9/oYf+cl7eLmX3uFt3/JaZrPg7d7yWgCO3/SbfOrHPxSAj/3wB/EeH/B3AHzchz+If5HNv1sb8cV7ABj/4Cd4oPLYV2fzM36G6R9+n/FPf5YXJO95Ghsf9s1gM/7BT+C98/x7da/29vxH+PO//1vGC/cQEpsBf/Lnf8QrvNwrszmbAXC4WvG3f/nHzEP85G3nuOo/V7P5+TvP884PvoY/+7M/4KVe+hXZ2dgA4PzeHn/7139KHwJg786n87TjJ3noTTfz79G9ytsw/NK3QBv51/LZ2wGYHvcH8Lg/4H7aPMbm5/4yec/TWX3Pp/CCzN7qY4gzt9C/0QfQv9EHsP7RL2D6m9/k38TmhXmpF9/mvd7tBl7uNf+Y5TJ5+7e+lhfkb/9+n3d+n78F4CVf+Q/52R99GV7sMVu8yztcxyNf5vfZ3Cx829e9GBuLws//2MsC8FGf+ASuv27GQx60AOCrvuEZfNSHPIgXlYGffsoR7/XYLQCOz4Lfun3JTVuVj3u5Y2z3AcB9R43fu2PFC/LSH/C5/OlXfxSK4MxLvBpb1z2Ii0/9O37/894TgJ9/35fntb/wJ5htnwAAzAO91Pt9Fn/2NR+D28Rj3vGj2DhzI8/PVide5fo5V/2fBYBsm6v+S/zmbUu+5e/2+fc6Onc33cYW3cY29xsOLuGcmO2c4j/KK10346Ne9hhFPF8/99Qjvv8JBwB8yWuc5Mz4mUyrP+GF2duf2Nmu/Ftd2ps4tlP5l1y4OAJw8kTHC7N1zbex/uYvov3D7/E/geZb0M3w/nn+veKGR7D5KT8O3Yx/q3948hO57dansM3Ec1um6baOI4k8vESH+fW7L/JFf3875t/u7a87wRucOcb/dX9x6ZBvve0s/1Z9iC97uYfyEsc3WSb028dpmeThJeYhHsjAYZnxqEc8hofc/CD+rdY/+7UMv/iN/G/WveY7U972jTg6/+m8MIdHjc2Nwr/VwWFjYxFEiP8I/eZb8ferD+LL/+ISAj7+5Y/x8tfOeH6OJvOFf3KRJ+9OvDDZJoa9C8xPXMO/RbaJHAfqfIMX5P1efJs3fNCCq/7PAqBy1X+Z171lwV2HEz/3tCX/Hhunr+e59VvH+I/2J/es+fQ/uMC7PXqLFzvdI66442Dix590yB/dveZfa2e78u9xbKfyojh5ouN/I68OYHXAv5dO3cjiQ74Buhn/HuuDPbaZeH4WITi6BMDF1cj3Pf1efu6OC/x7OZNxnPi/LjL59xjSfPJfPp33ffh1vNH1JyiHuxSAEM9NwFZb01ZH/HvM3vzDyXufzvQXv8T/dZsbhX+Prc3CfxYDX/7nl3jjBy94y4dtcnIeADTDn9y94oeeeMh9R41/SZTK/MQ1/FtFqUSpvCBv8uAFb/igBVf9nwZA5ar/Uu/+mG0edqzjF56+5Mm7I//TPe3SxOf9yS7HZ8GZRWF/SO45avyfYvN/hTaOUV/pLZm9yQehndP8e/3qvXv8xF89lRdmb2w843BFmv8QOQzs7+/zf12Zkn+vZUu+4Yl38W1PvpsHbc7ZqMEL86Gb1/HwR/BvF8HiA76K4ZGvwPg7P0Te9WT+17H5v8DAL9265JdvXXLjVmVe4e7DxuFo/rs97HjlzR+ywaveMOeq//MAkG1z1X+LvSG576ixbuZ/u4cd6+j8dJx7/G9S+keRd96GD3f530xR0PZJ4poHQRT+o3z0z/wy3/gHf8Z/pbc5vuAVN3v+r7tjSr7h3n3+K33+m7wun/g6r8Z/FO/eR164C49r/reI49egM6do49P43yTKaQ7zBm7bn/ifqi/i2o3CTh9c9f8GAJWr/tvs9MFOH/zf8VD+Nyo3PYqrrrrqX0/Hr6Ecv4b/jerspfnfZht4sVM9V131PwgAlauuuuqq/0HunpInD40X5mGzymBz+9C43w1dYSvE09YTD51VLrVkAk6V4BlD46a+MNrstuS6WrhrbJysQSe4Y0ge1BfOt6QCx0rw9HXjIbMCwNOGiYf2ld2WNOBUCZ4xTNzUVwab24fG/W7uCn2Ip64nXph7x+Sqq6666n85ACpXXXXVc3Cb2P+bv2B1x23kesX/BipBd/IMOy/zitRjx/nf7I8P1vzxwZoX5tOv3+a+MfnOc4fc791ObvDii44fOH/Ip1+/w+OXA/vNvP7OnJ+6eMj7nNrkYkv++GDgnU5u8OuXlrzm1owTNfipC4d81LXb/OXBmu0SvNJmz4+eP+QTr98G4IfOHfKp1+/wuKOBwzSvvzPnJy8c8f6nNzk7Jd957pD7fcDpTa6twXeePeD/tDbRbv078sJdMK753yKuewh60I1M67/if5NSb+FieyR/f27gf6q+iGs3Cg873nHV/xsAVK666qrLPI7c9f3fxm1f+0WMF8/z302lsPnYl2Lx4IcSszkvVGus77mLg3/4G06+7hvzkE/8HGY33Mz/VU9ZTew280B3Do0qaDZPWI3cMyarNE9YjawTnrqeOEizl+YJq5GDNM8YGhdasjY8YTVyfkoO0zxhNTJinrAaAZiAJ6xG7p2SdZonrEbWNk9dT+w280C3D439lvyfNQ0Mv/0DDL/0zfjwEv/bdK/5zpQb3ojlxS/lf5N+8614+uqhfNPf7vNAx2fBQ45VFlXcc9i4dW8izX+rE/PgHR6xyevcvCDEVf+3ASDb5qqr/p/L9Zp/+IB34OLv/jr/E5x8/TfjEZ/31cyuv5F/jVyvuP1bv5q7vvubePHv+km2X/Ll+Pf4xT/+Q572jKfzwuyNjSfvL/mlOy9wYZi46r/WjYueN77xJA/ZmrNRghfm5V/sJXjlF39J/q08Diy/7gNoT/oT/rfqXuOdKG/3xhyd/3T+N+k334q/X30QX/4XlwDYqOIDX3KHV7l+xgNdWCXf/vf7/MW9a/67ver1Mz7iZY4R4qr/uwCoXHXVVTztCz+Fi7/76/xPcObN345Hf+13oyj8a8VszoM+4pPpz1zL4z74XXi5X/kz6vYx/q2um3XsnNziX/Ka1x7jXR58hi/8u9v5w3N7XPVf4y1uOsmHP+pGuhAvitOzjn+P9Y9+Ae1Jf8JV/73mRXzmK5/gIccqz+3kPPj4lzvGV//lJf7knjX/nf7w7jU3bB3yDo/c5Kr/swAon/3Zn/3ZXHXV/2PLpz+FJ338B4LNv4ZK5bp3ei9OvMbrM56/j2n3Asde+TXoT13DcO9dzG96ECde4/U5evLj6a+9nhve4wPZfNSLsXzak/E48Px0J0/zkj/0y0Q/Y9rf4xlf/fmc/bkfpzt1mtn1N/GMr/p8yuYm/ZnreNInfBDdiVM846s+j/O/+nOc/9Wf4/yv/hxlseDMm70dl/7od1jfdQfHX/k1+Lc6fuoM69km+/v7RBu53yrN8Vsewc0PezTHr7uJlSrDwSVe+7pj/Mm5fS4ME1f953q1Mzt86kvcwmBx6kGP5CGPfklO3fhgDqZktb9Lkbhf29jh2oe/GA+55cGUCP4t8q4ns/r+T+c/irZO0L3cm1BufgxMa3ywywOVh7wU3r2XB4rTN0HtYX3Ev1V58EsQj3k44/I3eUHuuHPFt373HfzD4w94scdsUav4zd85zx/96SX+4QmHnD7VsbVVOXd+4Kd//j7+7h8O+Lt/OOBBtyyYzYLzF0a++Ttu5977Bh79yE0ADo8a3/V9d/LHf3qJm2+as71VAfiV3zjHj//0vSzmhRuun/GClP7R3De9PH9495p3e8wWr3jdDICfe9oRv3HbkqddGnnIsUpfhAQvfc2MX79tyZC8QE//9R/mnj//DRanrqffOg7Aucf/OU//tR9gfvwMs2OnyGnk1t/8MXaf9vcc3nMbm9feQpTKhSf/Dff81W+z+7S/5+i+29m56RE8P0/eHXn9By2YFXHV/0kABFdd9f/cuV/6adwa/1oP/sTP4dq3e1fK1hYv/ZO/hWpl+yVelod88ucBcN07vzdn3vIdQOKlfuiX6c9cy+k3fAse9jlfwQty7du9G2VjE4CnfObHsLrzdo690qvzt+/6JowXznH+13+R1R23QWvc++PfT/Q9x175NZj2LrF82pM59sqvwey6GwG4/t3en/t+9kf591j0PY990IN51Vd7HcZuDkDaPOqlX5mXfvSLcf3pM9x45hpe/sVfipse9VL0Ebz3w67lf4vpB7+d6bu/gem7v4Hpu7+B6bu/gem7v4Hpu7+B9ud/yP9kH/TI6xnTPPZlX5WXfNRjOL2zw5ljx3iFl3wZrnvES3C/3DjGa73a6/Com26mK4V/q/EvfwVs/qPo9E3M3uWziOseysbHfT/lEa8AQPea78LWl/weiw/7Zu4XNz2KjU/6ETY//9eJGx7Bf6b1kLz1u/41B4eN3/q9C3z65z4ZgK/5ptv4+V8+y5/9xSVe7Q3+lLPnBobB/MPjD/jQj308t92xYprM0VHjdd7sz7jjzjVf+XW38iVf9XQAPuxjH88f/PEuT3naEe/wnn8DwB/88UU+7GMfz8ZG8Obv8Jfcdc+af0kX8Do3L7jf354dsM3BaD759y8ypgFYVPFqN8x5Qf7ymz+FO/7wF8hp4Dc+7k2YVkfc+9e/yx998fvR1it+65Pemt2n/QNtWPFnX/1R7N/xFJ76S9/NH37R+wEwHuxy++/9DE/4sa9lef4eXpAx4U/vWXPV/1kAVK666v+5g8f9Lf8Wd3zb15BHh8xuehA3vd9HEP2M87/28zz4Ez6bmC848eqvy13f/20A/O17vgXru+/klg/9eLZf6uV5QbZe/KW536U//l0e9ZXfzvFXeS1u/6av4NKf/gFgHqi/9nq2X+rlWd9xG8tnPI3r3v49uN/2S78Cy6c9mXvvugtH8O/Vb5/EF+5i2W1w87XX8dwe9eCH8JQn/T0vd2qLEKT5H+V1t2e83vacEM/yGYf7rC7t8vy8dg9veuMx7jfZfM/5I56ynvjvdv2i56aNGdPGDjeeOcNze8xDH8YvPOnvOVagbh7nnnvu4d9r69a/5z/csGT9U19BXryH/k0/mOXX/Bl539NZ/cBnMn/PL+RZxjXrH/kC5u/35fy72bwwf/gnu6zXyWd/ysO46541f/O3+9zvTd/wNO/+zjfw+3+0y5//5R5v8oan+dAPvJlv+Lbb+eSPfQgAv/Hb5+mq+MovehS/8/sX+LCPfTyf9DEP4Qs/6xGcPNnx2797gV/7rfMA7F6auOH6GW/7Ftfy1d9wG/v7E1w344W5frOyqOJ+EjziRMcbPmiDD/2Nczzu/MhLnekBePiJjl95xpLn5+m/9kO83lf8Iscf/FjqfIPxaJ9n/PZP8JA3eFde/N0/ieFgl2f89o/z2Hf+WAAe/fYfwWr3LL/8wa8GwLUv81rs3f4k7v3r3+Xhb/Y+vDDP2Ju46v8sACpXXfX/XDvY599iPHcfN77vh3PLR3wyF377V2lHhyxvfSqr227l5Ou9CVsv9lJc+M1fApv1Hbfx4t/1Uxx/ldfkSZ/6EbxAEdwv1yuinwNQNjbJ1ZJnM1eIF6RsbIHN2fvuY+Lf72C1ZhM4eWyHF2S22KBfHbBVC3tj41/ivV3ar/4cD1TPXMvx130jAPbTNPMf4iUWHSGeg8QLlDYPVCXO1OApa/7dzsx6XuXUDj/94z/G8/Oyr/hKxJlr+cuL+zw/GyUAOLlzjBck+h7awHp5xD333MO/10OW+wT/Nv2bfgjdK74Fw298N3n3U9HmcfLSfdzP5+8gTt4IQHvCHxM3P5YHyntv5TKb/2x7exMnj3fcceeK7/+Ruzl5ouN+3/cjd/PTP38fy2XjFV/+GM/PwWFjc7MAcPxYx/5BA+CG62d8xuc9me/5wbt5t3e8HoBXf5UTfPynPolXf8M/5REP3+ARD9vgXxLiOdg8y04fHIzJ/WYhnp9sE229pNvYAeBRb/thAEzLA+piE4Bu8xjj0R73+8tv+iR2n/4PPOh13p5/rXUzV/2fBUDlqqv+n5s/+KH8W/TXXMfdP/Qd3PPD38Ur/9mtLB78MJa3PpXzv/bzPORjP4O9v/pTxgvnUSn019/I37/P23DqDd+CB3/cZ3LfT/4gz8/yqU/ift3paxnuuxtnsr7nTvprrkddTy6PaEeHAETX8yw2D3T0pMdRto/x4i/90vxH+Nsn/gN7t53n7PnzvCDD4SFTNvbHxotkGODWp/BAN+5s8uHX7QDws7tL/uhw4D9C8vyI/w5nZh3v9uDr+Z1nPIXzd97Bc3uHd39nnk7hLy/u8/zcuxpJm7vO3sdL8gIMayjizLXX8uIPfRj/Xqt/eDjjU/+Cfwt1M46+6r2Yvf0n0b/2u7P8jo+Dfs794tRNeO8s/xNsb1cu7o7sbFe2Ngvf8p2384HvcxMAr/zyx3jj1z/NS7/kNotF4fnZ2a4cHjYALu1NHD9WAbjjrhWf8UkP4wPe+yZe9jX+mM/61Ifxnd93Jy//sjt85ze+GK/zZn/Or/zGed7kDU7zwtx71GiGIp7DajL3HjVu2Czc786DiecnSqXMFoyHl4CbuO13f5prX/o16Ta2mZaHAIyHl+i3T3C/W17rbXnU234YJx72EvxrXbdRuOr/LAAqV131/9yZN3kb7vrub+Jf66Gf8gV0Z65l/6/+lFwtGc+fBeD8r/8CN3/Ix3H3D30XAKqVl/25P+DeH/9+Fg9+OEdPfgIvyL0/9UPc8mGfiLqOG9/rg3jaF3wKd33/tzG77gaOveKrcc1bvAO3fd2XcM+PfR/HX+W16E6d5gW550e/hzNv/Jb8R7hv9yL3PuOpLAQ7TPz9U57Eiz/8kTzQn/7dX7NTzM/fvYv5j1F4tmvnPW970zUALFvju59+N29y/SkevLkA4A/P7XLfauCtb7oGgKPW+J6n382/1WBzcUrud5Tm9qHxH+n0DTdy/s47eG5njh/j6bsHvCAHU+MvLxzw8qfE45/+NB7zkIfyQH/w13/BdhEA9936JPavv5HtxZx/j/oyb8j4ez/Cv8X6Z74agNV3fDz3iwe/BPQLZm/9sXSv9vasvudTeBbxn0fihXnlVzjGap186Vc/nYuXJhbzwv0e8bANXuWVjnO/u+5e843fejsAX/yVT+cD3+cmXv5ld1ivky/7mlv5nd+/wDu8zXUAvP+H/wPXnplxzZmeB9+yoO/Eg26e813fdydf/623c8edK264bsa/ZDmZP757xavdMOd+v3vHmt+4bcUrXT/jIcc6AFrC79y54gW5+TXeir/8xk/mzEu8Ck/71R/kzb79T7np1d6cv/zmT2V+8lru+tNf5dU+/XvABuD0Y1+Rfus497v3r36Hu//iNzm85xk85Re+i4e/2fvwgrzidTOu+j8LgMpVV/0/d+yVXp3jr/pa7P7h7/Cv8aRP/XCuect3ojt1mr9669dk2t8DYO+v/pQnfvwHcuG3fwWAXK/5q7d8dU6/6duyesbTuOfHv58XZPWMp/GMr/0iHvxxn8n17/YB7Lz8q7K++06Ov9pro1q58f0+nI1HPobx4gVOv9FbcL9r3/7dydWK++3+ye9xz49/Py/3S3/Cv8e9Fy9y9z13cPa2p7IIcb/zT3scf75/iZ2TZ0gnF8/ew3TxPs6tJ777qffy7zG15OKUGLivJfc7f+cd/NWf/Q6ntrd4ytnz8AqvzV//2q/gjZ7VNPHUfov11jH+6s9+h1PbWzz53AV4+dfi3+qPLx3xZ/fu86J47M4mZ2Y9L8w6kz8+f4kH2r+0y/Ozt1zxL/mGJ97FN7ziwxmf9Lcc7J7n2MkzpJP77rqNOLzE/fo28Kd/+Jtcd8tDOX36Wq49cYJ/i/rYV6M87GVpT/1L/iP43B2sf+hzADj6yvcg734q9/P5u1j9yOfz3NY/9eXk3U/h38XmhdlYFH7j516eH/nJe7jmmhmf/SkPA+CjPuQWHnTLggfqe/Fij9niG7/yMQDUKra3Kr/8Uy/HD/7Y3bzz21/Pu7/T9QD80He+JD/6k/cwjOYXf+JliRBv+5bXMpsFf/cPB/zgd7wkL/US27wovu/xB7zk6Z7tPnj3x2xxOCY3blWOzYL7/diTD7jnsPGCvMJHfiVP+YXvZlod8vpf8YvU+QbXv/zr83IfWjn/hD/j1T7jezn1yJchp5FX+Oivoc42eKBu6zg3v8ZbAdBvHeMFeZXrZ9y0Xbnq/ywAZNtcddX/c8O9d/OXb/kaDPfexX87iZs/8KN50Md8OjFf8K9130//ME/+9I/i4Z/95Vz79u/Bv8df/tWfcXTuLl4Uj7t0xBf83W3cvRz4l7znqQ2uq4Xzh4d8y2d/Bs/h+puo7/YBPLe88zbyh74DAC826D7sk2g/9YP4qU8EQK/1huj6m8gf/k4AvLFJ96GfyP3e8cSCl9noeaDP+OzPZnVpl+dHr/BqlNd6Q14UH/uoW3ilU8d4Yc6vRz70L54AwCO2NnjfB1/LJ37UR2Enz+09PvCDyFseyo/cdi8vzEue2OQzX+IWTs46XhTXPfiRPPwRj+HfKi/cxdEXvQPeP8//Vt1rvBPl7d6Yo/Ofzv8m/eZb8ferD+LL/+ISADdsFT7ipY/x0GOVB1o386NPOuTnn3bEf7frNwuf/6on2OqDq/7PAqBy1VVX0V97PS/9k7/JEz7yvdn7iz/mv5XN7d/yVdzz49/Pmbd4ezYe/mhiPueFao31XXdw9hd+kvHCOR7x+V/DNW/9zvx7PfVwzd/cdYEXZm9s/OX5A/70/D4vqlMlOFGDdSn8V/nRi0v+6HCgIu43DAP/Ee6++xncu9qkbRyHUnmWTBhX5OElbt/bB+YAPPngiE/5+6dTPuCjeX5+COC2e/mX/O3FQ97l95/Aq19zjBc7tsFGDV6Y17lmzcP5t4uTN7DxiT/E6js/gfb0v+F/JYn/C+46aHzq71/gJc/0vPipnnkVdxxM/OFda/aH5L/bS57u+YiX2WGrD676Pw2AylVXXXXZ/MZbeOmf+E0OHve3XPjNX2L/b/+S6dIu/50OH//3HD7+7/mXRNex8YhH85BP/nxOvMbrErM5/xH+4PwB3/gPd/AfbTCXSfyXun1oPFDLRPz7af8CB4d38cLMHMD1/Ecb0/zWPbv81j27/Et2bnkkr8e/T5y5hY1P+hHabY+j/f3v0J7x9/hoj/8t4poHEbFD6V+K/02i3sh2Hzz2ZMcDjc381X1r7nfzVgEK/x22++Dhxzte7tqeG7cqV/2/AEDlqquueg5bj31Jth77klz1n+fbzh2wEaJdOMdzO7W9xRscXwDwJ0cDtw8NAEmcvvkWTpy5hrvuuYc10G9scsNLvhTr1Zr7asUSp295ECdOn+Gue+9lzVX/Wcotj6Xc8lj+t9o685X8b/No4LNe5QRXXfU/CACVq6666qr/YoNhaMZj47ltzWe83GYPwD1j4/ahAXDzwx7O+77BawFw2Bpf8YRn8PYf8IE8ansTgF+95zx3Lte8zxu+NgAH08RXPvE2/id7qeNb3P0Pf889z3g696v9jNd9szfn1++9wFVXXXXV/3AAVK666qqr/qcSz3LHcs3n/sPTeKAfue1entvn/sPT+N/ipY9vc/16j5//w9/mfre8zMvxBted5NfvvcBVV1111f9wAFSuuuo/gdsF1gc/xrj6Y7LdDR75n2jrmm/hW77tV3n84x/P/2aS2Nra4mEPexiv9mqvxqMf/Wj+V5BwP+OBdoeJX99bAfD3y4n/KLf0hUfMKg/0G7UyrXm+HjzveeT2jPs14I8OBtY2/5HmtfJAfd/zP11euJvh17+T9g+/R56/E6aR/y2613xnytu8AUcXPpP/kTQn6o1081dntvW2KLa46qr/wQCoXHXVf7Dh6FdZ7n4NeMVV/zVss7+/z1//9V/z13/917z0S7807/7u785sNuPf4+FbM97ohhO8MHtj4yl7S86uR/61dOoM3Ud+Kg90CPzG/pr/aG91fMENXeGBfrerTDx/D1r0vP7OnAdap/mjw4H/KE85OOKODPRiL839nk7lzy/s8a9x40bPQ7cWbNTghXnQ5ox/r+F3foj1T3wJDCv+V7IB8z+WV+T4VNbjUxkOf5rFiU+lm788V131PxQAlauu+g80rv6E5cUvBcxV/33++q//mszk/d///ZHEv9WrntzipV/sZl4Uv3PvLl/1+DvZGxv/e4gXxDb/2e5ZDewuttHND+Z+Yyk87WDJi+K6ec8nvthNvPTJLV4U153Y5N9j/LNfYP1Dn8NV/zWclzi68Jlsnf4aSv8IrrrqfyAAgquu+g9iDyx3vwIwz884mdvuWJFp/i3WQ3L7HSv+r9ja2qLve/6z/O3f/i1/8zd/w7/H8VNnOChzbJ7HgYON0zdQT1zDUYrXuvY4X/3yD2OjBC+qd7j5Wt5u27ydLvJ2usjb6SJvp4u8nS7yVrM1H/Lwm/iPMpl/FUk8t8Z/rFc/fZxXOjhH/vJPk7/80+Qv/zQ33f4U3vGWa/mXXDPv+PpXfBgvfXKLQwfX3vRgyvYJ1uZ5rNIcu/Ymtk+c5t/KywPWP/oF/LeR0Mkb+K9y79mB/f2Jf6t77l1zeNR4oEt7E+cvjPyreM3y0lcD5qqr/gcCoHLV/2lPeMIT2Nra4qabbuI/27T6fdzO8/zcc++at3+Pv+Hs2YHt7cqv/9zLceHCyMu+xh9zy01zVuvkSz73EbzNW1zLZ3zek/meH7qb1sybvMFpvv3rX4xn3Lbkrd/1rzk4mHiZl9zhe7/tJZjPAoCf+Nl7eb8P/Qce/+evxvXXzTg4bHz8pz6RX/ut8/zGz788D75lwX+X13qt1+It3/ItOTg4YL1e8/3f//3cdtttvM7rvA5v+qZvyjiOfOu3fiu33nor/xl+93d/l5d+6Zfm3+qhtzyYh97yYJ5469O464l/SxcCoG2f5PVe/lXoagXgcL3mL/78j3gw8O4PvZZvffLdvChe/uQ2i3rEwdFdPLdy4jQPvuYE3/SUO/iP8AMXDnnorBI82zAMvCBPPFxxdPGI+x2lefJq4vmZSsd6a5uTW9tE7WmlgkRpE0wj548OGPb3YOB5bHQdD7Sx2OBF8eGPuoGTs4565ibe8KVeFkk8Atg7OuRv/vKP0fIAgBXBS7ziq3PtiRP8e4x/9gt4/wL/UeLBL8HmJ/0I3jtPe/Kfsfqhz8GHl4jrH0b3ym9NefQrc/RF78Blsw02Pu77KNc9lOlJf8ryGz4YbP6zfP6XPo1v/a47MOarvuhRvP1bX8dbvfNf8Xf/cIBtXvs1TvJtX/diPO4JB7zz+/wtd9295pab5vzsj74MD75lwSd95pP40Z+8h/m88F3f+GK88ise51u/6w6+8MufxjiZT/v4h/KhH3Azh4eNn/jZe/mJn7mXD3zvm3izNz7D89OGJ9CGx1P6x3LVVf/DABBc9b/CXXfdhSTe//3fn3+NL/qiL+InfuIn+K8wrf+WF+Trv/U2XuYlt3niX706r/FqJ/iLv94DoOvE3/7xq/LFn/MIPveLnwbA533GI/jA976Rt33La/j2r38xAL7mm27j9V7rJE/8y1fnnnvX/PTP3QvA7qWRL/nKp/NAn/vFTwXBE//y1XnwLQv+uz3xiU/ksz7rs3jyk5/Mq7zKqwDwpm/6pnzlV34lv/Vbv8Vrv/Zr85/laU97Grb593rUgx/K1rU3AbCf4tVf8dXoauV+m7MZL/0yr8gqzRtcf5x/janOeX42uo7/SHvN/PXRyF8ejfzl0chfHo3ky70yeuXXRK/8muiVXxO98muiV35N9Mqvyb3X3cJfHo385dHIXx6NPGE10Xj+bnrYi/PYx74c193ySK654cFcf+1NXH/NjVxz/YO45uaH85hHvTSPeIlX4bndsxp43HKAmx4MNz0Ybnowtx4c8bSDJS/MVld41TM77Dt45Zd+OSRxv52NTR77ki/PmAbgugc/kmtPnODfK5/y5/xH8+ElDj7pNfD6iNlbfxwA9RXeHG0eI07dxP26l3kDvDpk/6Nfnrj+4ZSHvSz/WZ7ytCO+5Ttv52/+6FX49q9/Mf70L/a43+d+2sP4+z99Nf7kzy7x+390kZd88W1+7WdfDoC//eNX5cG3LPiHxx/wgz92N3/3J6/Gx33Eg/isL3wqAN/xvXfwyz/1cnzb1z2W7/+RuwD4u8ft82d/cYmnPX1JpnlhpvXfcNVV/wMBULnqf4Xf/d3f5dVf/dX5nd/5He735V/+5dx888383d/9HZ/xGZ/BbDbja77ma3jKU57C+7zP+/CyL/uySEISAH/yJ3/C937v9/KWb/mWvNEbvRHr9Zov+7Iv47777uPmm2/mEz7hE/j3yHaOF+RxTzjkLd7kDOcvDHzMh97C8eMd584NZIPf/6OL/PXf7XPqVMcL8vRnLHmLNzlDhHipl9jmiU8+AuAzP/8pfPSHPYgP/ZjHc7+f/+WzbG8VHvHSv8d7v9uNfNanPIz/Ttdccw1v+ZZvyWMe8xh++Id/mK7rmM/nHD9+nJd92ZdltVrxn6W1xh/+4R8yTRP/XheGNWeAU6evoUTw3HY2Npj6DU7Fkq1aOJgaL4oyrXl+DseR/2zllV6T/wj/cOmQZUtemMOp8dyecnDEueNniBd/ae43lMKfX9jjhblu3hES119zPc/PqZ1jHEXlGI2nPf0ZnL/rHv69XvKeZ1D5t4mbHkV9sddk/MOfgHGArueBpr/7bWZv+VEADD/7NcTNj6W+9BtwP+2cxvvn6d/o/dHmMXTsDP9ZHv/EQx7y4AUbi8JjHrnJSzx2m/s9+alH/P4fXeTgsHHyZMfz89SnH/HgWxZsbRZe9qV2+IIvexoAf/JbrwzAt3/PHbzki28D8MqvcJxXfoXjvPab/hn/kszzXHXV/0AAVK76X+F3f/d3eZd3eRc+93M/l7vvvpvrr7+ez//8z+fDPuzD+NEf/VFe5VVehTd7szfj2muv5fDwkI/8yI/k93//97nfOI681Vu9FZ/zOZ/Du77ru/LEJz6RX//1X+d3fud3uPHGG7n77rv594o4xgvTmvmeH7iLb/i22/nYD38Qb/IGp2lpvvgrn87JEx1f/+WP4QWReA5RxB/+yS6/8TsXeOVXOA7A7/3hRd7xba9jb3/ie7/1JVjMg9d98z/nsz7lYfx3Ojw85PGPfzwnTpzgJV/yJXn6058OwGMf+1h+93d/l1d4hVfgP4skXvZlXxZJ/Hv9w61PZ3n7kzhcLnlBsk0YGNO8KP78wj65ewlyg+c2XTziGfdd5H+DX7nnPP8Wr376OHf/zTl+8Zd/mvvd8pIvxTve8rb8xcV9XpCDKQHYXy55QWyD4GGPeAQPu/56/r3yiT9Ju+1v+beYv/vn0Z74pyw+4ttgfcT4ez9Cu+8ZPEsEOHmBbOojXoHl7/84effTwOY/U2vwlKcf8UEf+TiWy8Zf/N6rAPCLv3qOv/7bfT7n0x7GS77YNs+PJGwuMyCJ+331Nz6DP/uLPX72R1+Gfy3FMa666n8gACpX/a/wu7/7uxwdHbGxscHv/u7v8k7v9E4AvM/7vA9/9Vd/xcWLFzk8POQP/uAP+PM//3MuXrzIA91xxx0Mw8AHfdAH8U3f9E387d/+LVtbW1y8eJFaK6/xGq/Bv1f0j4KjX+b5eamX2OYP/niX7/qmF+cP/niX+3Wd+Pkfe1n+JS/x2C1+7w8v8s5vdx1/+Ce7fOYnP4yjo8ZrvdoJfu+PLgLw+CceAvCoh29y2+1Lbrh+xuZG4b/bOI6cP3+eixcvcv311zOOIwcHB/zlX/4lj33sY7lw4QL/WW688UYWiwX/EY52zyIgDy9xdneXM8eP80C333cvmznwlP0V60xeFD92+72AgBM8jzXwlDv4v26j63igjcUG/5J7lgP3LgeOtfPct7vLNceP80C33XsPOzRAXDx7F/OHPIR/r+FBL0H7y1/h3+LoK98LhiX67esoNzyC6R9+j3jwSwBA7ele9e2Y/uH3eUHywl3kxXtoT/pT4tQN5Pk7+c/yki++xdNuPeL0yY5P/biH8Bmf/xTu91Efcgvv/s438MK82GM2eerTjrj7njW//lvneckX3wLgR3/yHr73B+/iV3/m5Ti2U/nXqt1juOqq/4EAqFz1P965c+d46lOfyju8wztw9uxZfvd3f5d3eqd3AqDWyv1+7dd+jd/+7d/my7/8y/moj/ooHujYsWOsVisuXbrE2bNnOXHiBA996ENZLBZ8wAd8AG/7tm/Lv1e/eF3We9+Jc5/n9tEf+iA+/OMez0u+8h/y6Edu8iZveIZaxC03zXlun/F5T+ZnfuEsAO//4f/At3/9i/GRH3wLH/iRj+OVX+9PeJM3OM2bv8kZSojXf51TAPzBH+3yIe9/MwBf/aWP5sM/7vGsVsmXf8Ej+e+0Wq04c+YMH/VRH8XFixf54R/+YQB+/Md/nHd7t3djuVzy/d///fxnec3XfE3+vdbjyJ/+9Z+j/YsAzEL8/V/9ES/2Mq/CNcePA3D7PXfxxL/7C+YSP3jrfbyoTvYV2bRxzb9EpVJrx8VhYrJ5YV7y1Akk/tPccXDE+dWa7VlPSPxbHQB3RGXrEY/mYLkC4NaDI552sORf8j1Pu5dPfLGbedxf/TGHj34pHnL99QA89a47uPVxf81MAoBL5/j9v/gzXubFX5LN2Yx/q+5V34b1L3wDDEv+1YYlAL54D9PFewBgGvH6iM1P+XGmJ/4J65//Op6ljeTFu7nf9Ne/QX2ZN2Tzc36J8S9/hXzG3/NvJgHiBXnQzQs+/zMewZu87V/S98HHfviDAbjmTM/mZuWB/vbv93n39/87brlpzku+8h/ysz/6Mjz0wRt82ic8lDd5u7/kmtMdX/fljwHgW77zDqbJvO6b/TkAf/Brr8j2dgXgumt7FhuFFyTqjdT5y3DVVf8DASDb5qr/0X76p3+ar/iKr+D3fu/3+K3f+i0+8iM/kr/7u7/j+PHj/PVf/zUf+qEfyru+67vyyq/8yrz6q786r/Ear8Hf/d3f8YQnPIH3fu/35mVf9mX5yI/8SD71Uz+Vb/7mb+Yt3uIt+J7v+R7+5m/+hpd7uZfDNh/+4R/O13zN1/DvNRz+MsvdL+N/i61rvoVv+bZf5fGPfzz/1zzsYQ/jIz/yI4kI/q3+9G//mot338pmiOfWbPaaCeBYDQB+4On38R1PuYcX1Ve+9CM43lXu+svfIDAvzOKWx3LD9bfwiX/zZJ5xuOKF+dW3fD26Evxn+fK/ehy/cOudfPirvyInFgv+rU72HUcXz/O4pz6d7/uN3wIgSuHlXvXV+IuL+/xLPuxRN/B2t5wG4GIDZXK8C56fVZobHvYYHvvwR/FvNfzW97H+kS/gf7PuNd6J8rZvwNGFz+J/h8Lm6S+mzl6Wq676HwiAylX/4731W781b/3Wbw3A67zO6/B3f/d3AOzu7gLwi7/4i9zvnnvu4YG++7u/m/t94Rd+IV/4hV/I/b7ma76G7/me7+HFX/zFefd3f3f+I/Sbb0y2+1jvfw9X/fe58cYbeb/3ez8ign+P2kY2Qzw/ReJEFQCPv3TE9zz1Xv70/D7/KhKbXWW9eZLF4XlemP74Gf4neunO7Ih/o4F7hyP+4e/+gvzlnwbglpd4Kd7xnd+Wv7i4z7/kG554F3994YC3uOkUL3Z8g82u8ILMQ/RO/j3613kP8vxdjL/+XVz1X6GwOP4x1NnLctVV/0MBULnq/623equ34rM/+7MppfC5n/u5/EeZ77wndfaSDIc/zbj6M/CKq/5r3Hzzzbz8y788r/Zqr8ZsNuPf6/tuO883/MHf8p/GBqCfzeGQF2qnn/GiMv+yiODEieOcOHGCxWJBmxqr9YpzZ8+xt7/PC2PzLDY8rsG5FP9aj+hFkXigza1N/jX+4Owef3B2jxfF57/JaT7xEfy7zN/+k6iPeVXG3/khpif8IQwr/leRAPE/mbRJXbwKs623p3SP4Kqr/gcDoHLV/1tv9VZvxVu91Vvxn6HOXpo6e2kgcV7CueZ/oiineI/3eA+GYeB/s4hge3ubWiv/X73lsTmvuNkDUMUL1fc9j3rUI5nNZjzLDDY2Nzh58iTnzp3jGc+4Dds8P29zYsGrjju83LE5VeLONL/91Kfzt3fdy4vq1R9yCw97yI1E7eDkabjpwQDcdrTmqQdL/ierL/Ya1Bd7DciG9y/gac3/FppvwnzB9rU/wP9EigWKY1x11f8SAFSuuuo/VaA4gYL/sba3O676byIBMAwrFrxwe8PA6cWcFyQEReJfUmvlMY95NF3X8YKcPn2aiOBpT3s6z08ARSIAccVynLi0WvPWx+e8zEbP5uYm+xY/vbvk4bPKq231LJdLxnHiy+7dZzU1xjTdxibx8McQr/raABwCv37PBf5XiIKOnUH876N6HVddddW/GwCVq6666qr/LjZDJv3hRf4l0/5FWFzPv9dNN91I13X8S06ePMn58xe4dOkS/xpV4sYzZ3jYQx8KwGvzbIdHR/zd3/894opZET53kfzT3yN/9HsBuOnRj+WD3uIN+KS/eQpXXXXVVf/DAVC56r/Fky6d5RfueDxP2TvH4TTwv93nvuwbc61/nTY+lf9N5jvvy/RbP0/e+UT+V1NB2ycpD3tZ6mNfDWrP/wbf8JQ7KJhxOsm/pNx2nv6+JfeuBv6tSimcPHmSF9Xp06e5dOkS/1qlFp6frlaemyQe6NiJ4/xv0G5/PO0ffpc8fxdMa/63KI96JeLlXpz1wU/yP5G0IOqNdPNXJer1XHXV/3AAVK76L7U3rviIP/5pvu8pf4Ex/1d89GNfg1P8JdPqT/jfZLb1DkyP+wPUz4mbHs1/tOmPf5o8dwf/NQyATt/M/K0/jvryb8L/dE89WHLFjH/RYBgO+ffY2NggInhRbW9v8a/1+NXIo1YTD+Z5rQ2/ub9isAGwwRGw2ICdYwDcdu9ZLgwT/1N57xyr7/9Mpr/9Tf5XqjN4qTOMR7/K/2SrS99Mv/lmzI99ENKCq676HwqAylX/ZS4NK17p576GJ+6d5ar/WepLvz7dK781/9Hak/8czt3Bfw0B4HO3s/z2j6a/92nM3uzD+Pd4j1tO8XYbL8kLszdOPHl/xY8/4yx/cm6ff42TfUU2bVzzL1Gp1NpxcZiYbP4tSgn+NSKCf61FiHmI5yeAYyUQVwxpNrZ2iJd4OeLiCoBD4Mduu5cX1Rtef4I3u+kkD92as1kLL8x1N53k3yPP3cHRl74z3jvHVf/ZkuHw55iGx7N15muQ5lx11f9AAFSu+i/zIX/0Ezxx7yxXXfWfS4AZfu7r6F7+zYhrH8y/VUO8MIdTEgpe7uQWL3dyix94+n18x1Pu4UX16Y99CMe7yl1/+RsE5oVZ3PJYbrj+Fj7xb57MMw5X/Fus1wP/Guth4F/rwX3lpr7w/HSCl9vo+eVLKwBmRfjcRfJPf4/80e8F4MZHPYYPeos34JP+5im8MAF86kvcwutedxyAMc2UpoZ4fgyM5t9l9Z0fj/fOcdV/nRyfwurSN7E4/jFcddX/QABUrvov8aRLZ/mRp/81L8w3vcrb8XWP/30et3svVcG3vdo7APCH993K9zzlzxmy0Ufh01/q9blx4xg/ddvf8/O3P477vdGNj2LVRn7nnqfxglQFn/5Sr8/NW8f5+dsfx0894+95+dM38yY3PorP+5tf510f+jJMmfzorX/Dg7dO8nEv/lo0J1/+d7/NHUeXeIEkMC+Sc+cHvvLrn8FqlbzPe9zASzx2m1/5jXP8zM/fB8Abvu4p3votrgXgYz75CazXCcA7v/31vOarneDe+9Z8+dfcSkv4iA++hYc8aAHAap383C/ex8u81A4Pf+gGLzKJf8n6R7+Q+kpvSXnQiwOQ5+9g/PXvBonuDd6POHEd/15x06PoX++9IRvjH/0U7Sl/AQAK6mNfDQ9L2pP/nO4135nykJfiftOf/TzT4/6A5ySwGX7125m/x+fzb/UKL/Py3Lv7cJ7wuL+hHO5yv7F03PLol+JhN9wIwOOf/jTufMo/8G4PuYan7C/5nXsv8SKR2Owq682TLA7P88J0x07z77VcLhmGgb7veVFc2r3Ev8VqueL5WS6X/EuOnTjBi+KdH3wNr3vdcQYVbnnUS/Lwm29hao2n3PYMbn/S37EInsXHz/CSj30pjm1u8m81Pf4PaU/7a/4z1Jd7Y+qLvxZeHjD8xnfj83cCUB75SnSv/Fa0Z/w94+/8IP8hJEC8MH/9t3t85/fdyckTHR/5IQ/i5ImOr/mmZ/DEJx3S98H7vseNvOSLb/P0Zyz5sq9+Ovf7rE99ONee6fmzv7zE9/zgXVxzpucTPvLBLBYFgHPnB37kJ+7hwz7wFu73rd91B3/z9/u88euf4i3e5Bqen+Hwl5hvvycqp7jqqv9hAAiu+i/x83c8jrR5QV7pzC188KNfhXd/2MsCUCN470e8An994S7e/eEvxxe//JsB8Nkv84a8zKkb+cU7H8/3vMY78+LHr+OGjR2e+vafwo+89nvwMidv5IX59Jd6fV712gfz87c/jm951bfnZU7dyIO3TvCmNz8GgFc4fTOvcOZmAL7xVd6WMRtVwVe/0lvxH+X9PuwfODhovOSLb/E27/LXDGPy+Ccc8qSnHvHqr3KCz/+yp/O9P3gXAK/yisf5jd+5wMkTHdddOwPggz7yccwXhVtumvPO7/03tGb+4I8v8nKv/kd8+Mc9gXvvG/iPlHc/leE3v5fxD36C+61/6HMxwsOK9Y99If8R4vh11Me8Gu22x7H44K+nvvQboBPXsfX5v8r8/b+SctNjAMi7n0p70p/SnvSn1Jd4Lbw65PmSmP7mN/j3uvb4cV7rVV+Lod8AYEzz2Jd+ZR52w43c7zEPeSiPeqlXoNm804PO8CKzAehnc/4lW7MZ/xHuuusuXhSZyb333su/1n4zTz53gV/+0z/nR//kz3nnX/k9PuO3/4hf/fO/5Pf+4fGcHRvJFTZQCiw2YOcY7BzjrgsXuTBMvDBF8E4PPs2Q5sVf/tV5+M23AFBL4dEPeSiPeMlXwFwRx87wGq/wqhzb3OTfY/qb3+Q/S7nlxYmTN+DlHpuf/tPo1I3o5A0sPvQbmB73+/Sv8+7Ul3lD/ivs7U285Tv9NS/9kjvsXpr4qE96AgC/+TsXiCJe7DFbvNnb/yVPedoR21uFF3vsFj/4Y/fw6q9ygsU82L008k7v9be89quf4OlPX/IZn/8UAL7mG5/Bq73+n/LZX/RU7vfzv3yWr/mmZ/AWb3KGD/zIx/Gkpxzy/DXG1R9z1VX/AwFQueq/xFP2zvPCvN2DXoJfvOPxvO2DXoJP/Ytf4n4/8vS/5g/vu5Vff+MP4mP/9Gd561tegk/+81/gZ2//B562d56zq0OWbeC1fvEb+ZpXfmv+JW/9oBfn8//m1/mpZ/w9T9u/wL3LfR62fYpZVB68dYKdfs6F9REAL3PqBj7jL3+ZN7/5MbzRjY/ihbJ5UQxD8nt/eJGv/6PHcPONc173NU8SIQAefMuCd33H6/mTP7/EE558CMA7vu11fNnX3Mprv8ZJHvnwDZbLxm///kW+6Wsey/XXzviir3g6T3rKIQ950AZ/+BuvxGu84Z/yr2bzwkx/9SvUF39Npr/5DXiXzwSJdvvjWbzZhzP9w+/SnvBH/Efxcp/xd34QbWzTverb0J74Rxx+6bsyf9fP5n7tyX9Ge/KfUR75iuT5O2lP+2teEB9c5KlPfAKj+XfLOofhiFxsc+3Jkzy3m6+5jr+NnkftiC7EmOZFFRL/kk7Bf4Rz586zubHJmWvO8ILY5ulPv5VxHPnX+pW9Fb+yx3O49wh+/+IBz22dyeaxE8QrvgYl5wDsA9/ylDt4YW7amLHdVaaNY1xz/DjP7cHX38Df/Y04UcxRgyc84Qn8e91w91MR/3navU9n+LmvozzoJehe5g3Ju5+Cz9/F9Oe/SLn5MZRHvALTX/0q/242YF6QP/nzS5w50/O+73Ejq1VycXfkfq/88sd493e+ga//1tt4+q1L3uB1T/HWb34Nn/Y5T+Fd3/F6AH75189x5nTP27/1ddxw/Zz3+ZC/58u/4FG86Rud4U3f8DSv+gZ/yv22Ngsbi8LOdmUxL8z64AXJdidXXfU/EACVq/5HeLsHvyTv+js/wM+9/vvy2OPX8rT989zv3uU+O92cWVQWtXLUBgD+6sJd3G9vXPOiWJSOo2kA4G8u3MX9HrZziu96jXfm4dun+eGn/xUAoeBzX/aNeMreOWoE/xGWqyQTtjYKb/tuf80wJN/5jS+Ogd/5/Yu8zpv9GXffs+bnf+xleX6GwQDM+wBgsREsl8ljHjXjP8v4l7/K7G0/gfYDn0V7+t9QHvrS0Brrn/96yrUPxq3xr1Vf8nWYv+tn0+5+KsMvfAPda7wT05/9PGAAfOks2jiGlwewPOD56d/oAxh+/Xv4l8xmPYXg36ufb8DRBba3NnlBZv0MrUcWJRiz8aJaDWsWvHD7w8CJ+YwX5E8OB560mgB4OSB4wZ5x220crZbceMMN1Fp5oKPDI267/TYODg55Qf7ocOAPzx/SjkZeYtEB8CaPfgRv8uhH8K8xL8Ln7iV/51do3/u9AFz70IfziZ/zOXzS3zyFF6RIABzf2uYFKbUDDxzb2mY+n/PvJYl/L23ssPHxPwDdjPWPfyn1pV+P9c99LQ/k/XOwsUN7xt+hndPM3vnTqS/+2kx/8+v8VzhaNjY3gn94wgGf9BlP4obrZ3zr174YAF/zTbfxtd98G9de0/Nar36C52e9TmYzAbC5UVitEoBHPGyDpz39iAd69CM3Wa2Sz/7Cp/Cgm+dcd+2MF8jiqqv+BwKgctV/iUfunOYFeZmTN/LQ7VP86Ou8BzvdnLe55cX5in/4He73Ysev447DS6xz4uJ6ycl+A4APfNQr8/v3Pp3H7d7Li+risOTUbBOA933EK/Ln524H4HG79/I6v/RNfNUrviX3OxwHvu2Jf8LhNPA61z+cF0oC8y/a3CjM+uCe+9Z8zZc8mpd45T9kPSQCXv5ld/iSz3kE1183o+uC52dzq7CxCM6eH6idODhoXHftjH8XiRckz95G3vEEVt/7qfhwl+mvf43y0JeG+Sb9q709zDeYnvBH/Gt5veTwC9+W8ohXpH+TD2b8/R/jgeKGR5L3PYMXJG56NOXmx7D8xg/lhdH2KW568EP5j3Dx8BKHwPnz53h+xtYYjw5Ytom9sfGiGjPpDi/yL1ke7HJifi0vyN1jcveYANj8i87ed5YL5y+wvb1N3/e01jg6OmK5XPIvuXtsPG41cc/YePS84+EFHlrMA0nQRUHZcBSG1nhuHeYcz+nUNdfwL7l7NTClueueO3npl3o5ntv+cknf1hBiYzHjwQ9+MP9eqxsexviEP+TfpZuz+uHPwxfupn+bj8OX7sMX7uaB4oZH0p70p/hgl6MvexfKQ14KX/8I2tP/lv8QEiBekJMnOu47O/Dwh2zwnu9yA1/yVU/nfu/+ztfz9m91LTfeMOcFueZMz7lzIwB33r3mumt7XpDv/5G7ebVXOc43f/Vjeb03/3N++dfP8VZvdg3PT9Qbueqq/4EAqFz1X+JtH/QSfOKf/wJjNp7b2z34JfjuJ/8Z7/P7P8I7P+Sl+fiXeG2+4h9+B4Bvf7V35GVP3ciH//FPAfAtT/wjvvDl3oS3uOWxvOlNj+ExP/ml/Gt8yxP/iM95mTfiDW54JG9282N4iZ/+ch7JGZ6fH3r6X/GJL/E6zEvlx57+N7xQNi+KWsWHfuDNfPBHPZ5HPnyDzY3CYh4AbG4Ubrl5wQN9zCc/gXvvG/j6b72Nvg9e89VO8P7vfRMf9JGPYz4P3vJNznDD9TP+XWxekOkvf4X60m/A4oO/junvfof1j34+s7f9BLqXfxOGX/sO3Brdy74x/1rtiX8MwPQXv8T0F78EQH3x10LHr2X+AV9NfdjLcPTl78YL0r/xBzL89g9CG3nBTPcKb8Z/hDvuu5fzdzydeYhtGn/013/Bq7z0y/FAf/jnf8x2gR+5/SIvqh+67V4KZpi2+JfUO86xuDhybj3yLxEvmtYau7u7/Hs8fhLCPLetWc+LnT4F992Nrr2ex91xN2NrPNBjj22yHCce6Nw9d2NeuOWU/P59e7z2dcf4/b/4U1795V6R+7VM/vJv/px5CIC7n/5Err3mWk7vHOPfo3v5N2X8ze/j38OX7qNdug+A1bd9NA9UH/VKxMd8D0wD45/9IgBx+ia6131PvHsf01/8Mv8hbMC8IK/8Cse4+cY5H/AR/8C99w2cOtlxv1MnOm68Yc79nv6MJZ/zRU8F4EM+5nF89qc+nFd42WNce03PO7/33/CEJx/xMR/2IF6QV3jZHb7tu+/gYz75Cdx2x5KXeLEtni/NqYtX5aqr/gcCQLbNVf8lPvZPf5av+off5bm95InruTgsuf1wl83a8wqnb+Z3730ar3ntQwH46wt3sTssud/LnbqJxx6/ll+/68ncvdzjfi92/DouDUvuOLoEwE+/3ntzrF8A8Jfn7uDj/uznAHjpkzfwEieu5zfufjJ3He1xZr7JzZvH+cvzd/LwnVPY8NT98wC89S0vTnPyc7c/jhfmr97qY3mEv55p9Se8KP767/Y5e27gpV58m2vO9Nxx54rDo8ajHrHJA/3Rn+zS0gA87CEbXH/dDIA//YtLrNfJa7zqCR7oz/7yEo98+CbHdioviq1rvo31N38R3Su8Gd0rvzXPLe96MvQL4vRNMK6ZnvbX1Ee8PCiY/uY3QKK+5OuCxPNz9FXvTXviH/Oi0OYx4sZHgU3e8QS83Od+ccMj8NEe3r0XgPLwlyPveCJeHfD8GaKy9cW/i3ZO8W/1jLvv4r577uTgvjvpQjzQtNjh1JlrCeDOu25jY1rz9IMVH/GnT+GoJf+dPv5lHkuR+M/yy7fdxd+cu8iNx7apETw/12xt8e4v/Vgek2v+NuZ8+5/8Jctx5PlZjRP3Hhzyr3Fm3vFNr/hwTs462nyLm6+/kRA89bZbmU1rHugo4ZobH8R1193IdafP8G+1/OaPYPrrX+M/Wpy+GZ28HqaR9oy/gzYBENc9BC12aE//W8D8R+he850pb/MGHF34TF6QcTK/+/sX6PvgFV7uGPNZ8PePO+DM6Y5rr5lxv/39ib/5+33u93IvvcNiUVivk9/5/Qs86JYFj3rEJvdbrhp/+df7vNorH+d+T3naEX/2F5d43dc6ybXXzHh+ZtvvwXznvbnqqv+BAJBtc9V/iVWbeINf+RZ+/96n81/h5s3jFAmAZZu4d7nPf5a/equP5RH+eqbVn/C/ydY138b6m7+I7hXejO6V35r/aEdf9d60J/4x/7UMiPl7fzHdK781/x5/+Vd/xtG5u/iXGPide3b5ysffycHUuAqu39nmQ1/pZXilDn5vFF/x23/I0TjyH+lBmzM+7SVu4eHbC14U1z34kTz8EY/h38qHuxx96TuT997K/1bda74z5W3egKMLn8n/BnX28mye+kJQ4aqr/gcCoHLVf5l5qfzqG34gH/OnP8P3POXPWbWJ/0y3H+7yX8bmfy2b6a9/nTx3B//RfP4O/svYIBE3PZrZW3wk9aVej3+vP7xwwK/8w+38Sx5/6YjbDtf8a7zJ9ad474fcAMAfn9vlq550O/d7450ZL7no+eW9Fc3wZsfm/P1y5E+PBt7n1CaXWvKt5w750DObbETwLWcP2E/z/80zDtd84B8/mccc2+CWzRn/knc/diMP599Om8fZ+IQfZvXDn8v0l78C2fhfxwbM/3ia02++GfOdDwAVrrrqfygAKlf9l1rUjm9+1bfnS17+zfm1u57E0/fPczSN/G933cYOvV+P0j2K/00iTtC90luSZ2/jP0N95bfmv4QCbZ+kPuxliRsfyX+Upxys+ZW7LvKf4eCeW/mH3adgxL3rBE4C4FufyjMu3M26K1xYT6TNn807zk6N5brx55s9g00erPmH7RmBGA7X8IqvCRH8f/T4S0c8/tIR/5LXOFzz76Wt4yze/yvxwQWmx/8RPn8Hnkb+tygPenGiu4XZ9nvyP5G0IOoN1PnLIm1w1VX/wwFQueq/xbF+zts/+CX5v+X16Pjfp3ult+Sq/x7z4QiAYM798tan8Hd//of8Hc92G8/2azzbb0XwmMe+GId//3eUl3s1FMFV/zW0dZLuFd6M/63mO+/FVVdd9e8GQOWqq6666n+p02fO8G7v+Z58wed+Div+87Xf+mV87928KNq11+ITPbzYY8m//2umH/8+puUSgPLW74zmC6666qqr/pcDoHLVf6v7VgccTQP/292wcYyOPZxr/jeJchrv7+Jxxf9qKsT2Sehm/H9y37338qmf+AkAFK54u5uu4bWvOcFzu2u55osefysAX/MyjyLE8/jh2+7hD85dAuBDXvyRvNoNZygS9/vsP/4N/uGOW3mR5AD7e1y2twt3PgOOjgD45jd4dY5vLADYXQ982V8+jqftHfC/Tja8fwFPa/630HwTNha47fI/kWKB4hhXXfW/BACVq/7LPfHSfXzeX/86P3f749gbV/xf8Fdv9bE8wl/PtPoT/jfZuubbWH/PF5G3/h3MNvgP1yZw8p/OiQ8vETc9mu7V3p7+Nd4RovA/WWwcY/vM9VhBf+kQLjT+I4STM7MOSTzQ+dWK+20E7Mx6HmhKIycAL37yOO/4iAfx3Ppa+Y9wzcaCkxsLAK7bWPDej3kYn/knf8P/Fu0Zf8/wi9/E9Lg/gHHF/ybda74z5W3egKMLn8n/VNImdfHqzLffk6jXcdVV/4MBULnqv9S3POGP+Mg/+WmGbPyfYvO/ls3sHT6Z7pXfmv9oR1/13rQn/jH/VfK2v2f9jL9n/J0fZPFBX0tc+xD+PV7t1BZbL3YTL8z+2Hjy3pLfu2+PdSYvqrtjzu+0DQDuCgGX+I+wvOspPOH8k2DjGLVWWmu09SG7R0fAtQDc89e/xe2bx6n9gohgGAfK4S7rcQPY5MS85/mJEP8ZNrvKv9V2V3iNa47x0K05GzV4YV7u5Cb/Lpmsf/EbGX7hG8HJ/0o2YP4nsw8Zj36FcfnbLI5/NP3GG3LVVf9DAVC56r/MTz3j7/iQP/oJzFVX/WcRCPKuJ7H85g9n89N/GkrHv9XDNmdcf8NJXhT3Lgc+52+fwRP2lrwonrR/xJP2j/jP0I9LuLQEIIAOgMr9hJkfXoTDiwDMud8G/5u80ultPuXFb2anq7wortuY8e8x/Nb3Mfz813PVfxGvWV78ciJOUecvx1VX/Q8EQHDVf4lVG/noP/kZzAt208Yx+ijc78FbJ3jQ1glC4oFOzzd5jWsfwkbteG7zUvmXnJpt8JrXPpSt2gOwUXuuX2wDcHK2wfF+wQPNSuVfJPGv8dSnHfEXf7VHawZgb2/ittuX3Hb7knFM7nf7nStuu33Jbbcv2T+YuN8Tn3zI3z/+gAd6+jOW/NGf7LJaJ/8qEv8S794H45rnMa75D9PN0akb0ckbQOJ51J77aWOH8ohXgNkGz5/Iu5/C+Mc/y7/H6Rtu4dhND2WZ5oFsqMfPsP2gR7H9oEfC1nGuXfR86cs+lBsWPVf953uJ45t8/ks/mO2u0h0/w4kHPYrjD3okubHDc1s6OP2gR7B16hr+rbx/nvXPfDX/GbSxg07diI6d4TmUjvLwl0PHruE/jASIf8lf/NUeT3zyIfe77+zAbbcvueOuFfdbD8ltty+57fYlt92+ZJzM/f70Ly5xx50rnttqndzv7LmB225fctvtS267fcnBwcTzaiwvfS3QuOqq/4EAqFz1X+KX73gitx3u8oKc6Bc8/R0+jff9/R/h+576F8xL5env8Gn85fk7ODXb5N1/9wf5/Xufzhve8Ei+5dXenifs3sdjj1/LS/3MVzJm46Me+xq880Nfmu988p/y1f/we7wgr3Pdw/iu13hn/mH3Hl7qxA281M98Ba9z/cP5uBd/LV7l57+Oz3ip12dy8gl/9vO8xc2P5f0f+UpcM9/iVX7h63ihbF5U3/ODd/H133ob157p2d6q/NB3vSTf+X138g3fdjsPffCCpzztiJ/70ZfhsY/e4mM++Yn8wR9f5KEP3uBTP/4hvNkbneEbvvU2vu5bbqPvgrd5i2v4nE97OL/4q2d5vw/9Bx76kA0k+J1ffgVKiBeJzQvjYcnBZ7whs7f5OPrXfQ8Apr/5DcY/+Am8d5aNT/4x/iPUR70S8w/8avLup6JuxtFXvhceV/Sv8x50r/jmjL/3owy/9X3o+DVsfspP0J7x98SNj+Lo898KL/d5fsbf/1G6V3s7/q1uufZauPZarr3+Jv7mT3+Xhbhs+0GP5KUf9Rie7TH8wV/+OVvn7+R9H34dn/93t/EveZVTx3iD604B8MS9Q37k9nu56kX3YY+6gSKx86BH8ZKPfDTP8sjH8Ht/9kdo9z4AhtLziq/8Whzb2ODfY/zTn4dhyX+G/o0+kO6V3hKPK/IZf8/yOz4eMBsf/wP46BLlIS/J8mvfn3br3/HvZgPmhfnAj/wH7rhzzX1nBz7gvW/kg973Zj7gI/6Bu+5eEyE2N4Jf/ImX5dbbVnzEJzyeP/uLPV7tlY/zrV/7WG68Yc47v8/fcuszlpy/MPLVX/Io3uyNzvBnf3mJb//uO/m13zrP0/7uNQD45u+4nT/580sA/NXf7PM1X/po3v6tr+W55XQH0/rvqLOX5qqr/ocBILjqv8Qfn30GL8xb3fLi3LPc520e9OI80Jv92nfweX/za3z7q70jAJ/2Uq/PF/3tb/Imv/bt/OpdT+IlTlzHydkGW13PwbgG80J96ku9Hl/x97/Dm/3ad/Bzt/8DL3XyBl6Qlz55A08/uEBfCv8iiRdFpvmMz3sK3/iVj+Envv+lOXG8slw2AF7r1U/wKz/9crzVm13D9//I3QD8+Pe9FDfdMOdzPvVhvNkbnSHTfMlX3cpP/sBL87u/8gp847fdzrnzA7fetuRHvuel+J1ffgUe94QDzp4deJFJvDDt738PbR1n+pvf4H5555PQ6ZvwNPIfx/j8nRx90dvTnv439G/ywWjrBJpt4PUR9ysPeWly9x6W3/gh4Ebc+ChekPaMv2O9PGK1WrFarVitVqxWK1arFavVitVqxWq1YrVasVqtWK1WrFYrVqsVq9WK1WrFarViZ77g1PUPAmBPlZd+1GN4bq/0Ui/DQTOvfHqHF8Wf/vZv8hPf+e38/Pd/Lz/7g9/P/yTrljw/Nv8pxkz+NU7POh65s2BfHS/5yEfz3F7hpV6eZTMAx294ELMIVqsVq9WK1WrFarVitVqxWq1YrVasVitWqxWr1YrVasVqtWK1WrFarVitVqxWK6an/RX/mca//U0OP/tNiRsfRX2p10NbJykPfgmW3/RhTH/7W5THvCr/ISRAvCB//ld7/Opvnuenf+il+Y5veDEu7U3c76M+5Bb+5Ldeid1LE7/3h7s8+pGbfPc3vzgAv/DjL8uNN8z5i7/e46//do8/+PVX5Cu+8JF8yVc9HYB/ePwBj3rkBvsHE/f7jE96GD//Yy/LN331Y1ksgjd7o9O8IG34e6666n8gACpX/Zc4tz7ihXn7B78En/GXv8TXvNJbs1l7mhMAAb9+15P59ld7R6qCW7aO87T98wB8wB/8GPf71L/4JX7ydd8LSbwwN2+e4Kn75wH4kD/6SQDe4cEvyWOPX8tvvcmH8PDt0/zI0/8agM/7m1/nrR/04rzmtQ/lX2Tzotg/aOztTzz8IRv8xV/v8a7veD0RAuDW25Z823ffwe/94UU+/INu4fnZP2js7U9cf+2M48c6NjYLt9+x4kPf/xYAvu277+AVX/4Y110740Vm88JMf/WrzN7kg1n91Ffgw120eZz+TT+E6a9/nfakP+HfQievp3/jD6Y9+U+Z/uwXqC/+mjxQe9pf0b3y2+Dzd7L+ma9iccM3cr/p73+H2dt/Ehuf/GP4aJ/2tL/i+RNk8pd/+ZcMU+Pf6+I4cBq49tQ1PD+1FMpii8VwyE5X2BsbL8ywXPI3v/c7AOjhj6bwTF3H5slT9F3H0WoFNhuLBcM4slqv2dnaIm129/Y4cewYAi7t74P4D/NXZy/wxIt7POrEDg9km/8I5tmmNL946538a5zoKwDXX3Mtz8+87xjrjIUH7rjtDvbvPcu/10ucv5eOfyeJ/k0/BNWe9S9/K+WGR5D33cqztIl2698StzyW6a9/jemvf53NT/4xdPwMhz/9VfyHsAHzgtx194pbbpqzWiX7BxOv+1qnuN8f//klzp0fOX9h5CEPXvD83HHnimvO9JQQN98057bbVwC897vdyNOefsQXfcXTeW7f9O23827vdD2LReEFce5z1VX/AwFQueq/xPWLbV6QnW7O69/wSJ64d5ZlG3njGx/FL9zxeAAM7HQzVm0kMWM2uigAXLfY5mBcczAN3M+YF2bMRhcBwLXzbY7agIGn7p3nfX7vh/mMl34DwDyL+Q/VdQJgNSR/+Ce7fP6XPo2/+5NXBeDoqHH+wshnf8rDeLM3PsPzU6sAmJoBaJPpugDgx37qHr7hW2/nZ3/kpfkPM64Z/+63YGMHLbaY/vo36F7t7fj36l/rXfF9T6d7pbdi9qYfQnvqXzL99a9zP/UbeFjy/HQv84b4cJf1D3428/f/CsrDX472pD/ledhQe17lVV8VFPx7/c2Tn8j+rU9gd3+PF2S9XtHZHE7Jv1V5tdflrd78zXiZjZ6fv7RkMrz18QV/vxz5zf0VH3nNNvst+cJ79vmE63foQ3zpPftcbMl/lDGTD/ntP+H0Yk6IZzl7+x38R/iQX/4dYnMTgINh4nCa+Ne4OEwAXNi7xAuS0wAFHvmYx/Dom2/m32v11J9nvPWv+PeImx5DufkxtFv/ns3P/DmYBg6/8O14IC224d6nE6dvpjzyFVl+/QfSv/EH0b3q2zL84jfxn63rgvU62duf+P4fvps/+8tL/MXvvQoAFy6MjDeZn/vRl+HhD93g+emqaM0ATJOpVbwwly5N/MCP3M3v/9or8sIojnPVVf8DAVC56r/E69/wCD7/b36d5+ctbn4stx5cZH9Y8+fn7uBtHvQS/MIdjwfgVa95MG//4Jfkp2/7e9Lm9+59Om91y4txYX3ET7/e+/BWv/6d/Om52wEwgHmhfu/ep/FWt7wYdx3t8ZOv+968y+98PwDrnLj14CJ7wwrznIz5F0lg/kUbi8JLvcQ23/qdd/CWb3qGz//Sp3G/xz56i0/+2IfwQH/0J7ssl41/ePwBL/aYLa6/bsaLPWaLH//pezlzpmc2Cx7x8A1+6dfO8VGf+AS+7PMfxW13rNjYKJw+1fMikXhBpsf9Ado8jrZPUm55caa//jW6V3s7/r3WP/UVXPbr3412TuO9c9QXf03oF9QXf02613gnht/6Pp4fbZ8EwG0CQxw7Q+P5EfXRrwwK/r2GaeLCnbfSAWW1zx333ctN11zLAz39zjs4RuNPL+zTbP49fnVvxZ8djtwzNWy4b0x2W7Lbkm89e8jKBuBbzx1SJS625D+agbPLFQ/kV3s94uVelRdFnDiBHvligNCLvTTxdu9BrNcAnE3gaMW/1bn1yNMPVtyU5p5z57ju9Gke6HFPfQrHC5fdd9tTefTNN/PvVR7zaox/+nP8e+Ttj2P5zR8BwPjbP4CzwbAEII5dQ325N6Y8+pVZ/8xXw8Y2lAoSTGu0c5r/EBIgXpCXe+kdnnHbir973AEv9RLb/NlfXuJ+b/qGp3n3d76B++3vT/zZX+wB8Ht/eJGXf5kdXvolt3n6M1b82V9c4kd+8h5e9ZWO88J8x/fdwWu/xgluvnHOC1Pnr8BVV/0PBEDlqv8Sr3ntQ3mVax7EH933DJ7bg7ZO8GV//1t8x5P+lJc8cT2f+7JvRNr89j1P5SMe++r88X3P4Iv/7jcB+IQ/+3k+66XfgC94uTfhc/7qV/nTc7dzv3+4eA93HF3ifq92zYPpogBwcVjyNxfu4lP+4hf5rJd+Q7745d+UL/m73+T37306r3Xdw/ir83cC8NT98zQn9zu3PuQvzt/Bv8jmRfUd3/BifPYXPpXP/IKn8qWf90huvnHOjTfOGSfz3L7i65/Bgx+04Nd+6zwPf9gGb3bdGX7ku1+ST/iMJzGO5hd/4mWZ9cE/PP6Al33pHX7ox+8G4JM+5iG8xqv2vEhsXpA8dxv9670X/eu+J3nfM1j90OdCNoiCtk5QHvTi/Ht57xwAPryEz99J9+rvyPDbP8D4ez/C/fKuJ5G79wIw/N6PoGPXMH+nT2X6i19k/Mtf4fkS9G/4/vx7Pe3uu7ntSX9HN64AqBKP/6s/Zu/hj+WRD34oLZMnPv2p3Pv0J1Aw3/mUe3lRHL/mWl7+Ld+Kvhb+9mjkbp5tt5ndNnG/pw8T93v6MHG/O8fGfyVdcx3iRaOdbdjeAUDHThA3PYgYR/6jfPuT7+bzX+Yh/N1f/D5nH/oYHvuwR3DP7kXuuvN29u+6lT4EQBxd4vf+5Pd5+CMey/UnT/JvVV/hzdDPfy0+fxf/Ebw64H557nbKQ16S+pKvy+pbP4q8+ykArH/mq5i95UeR5+5g+KVv5j+EDZgX5JozPd/1zS/Ot3zn7fR98BVf+CgAXvyxW1x7zYwHuvPuNd/+PXfw6q9ynC/5qqfzLV/zWG68Yc73f9tL8Hlf+jRuuH7GN3zlY7jffF54tVc+zgM97vGHfPgH3cILU2cvT+kezlVX/Q8EgGybq/5L/MPuPbzyz30dB9Oa/wqf8OKvzWbtAXjawQW+9yl/zn+Wv3rLj+ERfAPT6k/432Trmm9j/U1fSPeKb073ym/Nf7Sjr3pv2hP/mP8O9aVfj8UHfwP/Hn/5V3/G0bm7eFEcTo0v/Lvb+KNz+7woXvr4Nq9y+hgATz9c8st3n+flTmzzZjecAeBph0u+/9a7ea8HX8/LzM3Rk/+C59YU3PKyr8dXPuk2/mb3AIC3PVZ5zRuvZWtzm0WtDK1xsFpx+9m7+dK7VwB85YO26U9cw1Y/o4vgcBo53N/lR+84yx8dJv8Rrt/Z5kNf6WV4pQ5+bxRf8dt/yNE48h/p7W45zYc96gZeVNc9+JE8/BGP4d9qevKfs/yq94Js/G/VvcY7Ud72DTi68Fn8b6DYZuvMNxL1Bq666n8gACpX/Zd5sePX8ctv+P689W98N+fWh/xn+7K//23+y0hg/neS8MFF8vwd/EdTP0M7p/gvMQ54uQ9AfenXZ/F+X8G/10FL7lsOvDB748RfXDjgx59xjovDxIvqr3f3+evdfR7or/7gD1ju3cdiPucJu/vw2m8CwGxjmyOe1zDfYV4LD7R94gzXHz/J/WqtbGxtsdRNcPdTALjuhgdRJO53rO85duoaNnYHOLzI/xY/cds5/ubiIW9x00le7NgmGzV4YXZa8u9RH/HyLD7gq1l+1yfCsOR/JQkQ/xsoTrJ56ouIegNXXfU/FACVq/5Lvdq1D+Hp7/Cp/ODT/oqfue3v+dOzt3NufchV/73WP/4lrH/8S/hfq1Ti+ofRPfpVqa/4FpRbHst/hJ+88yLf+AdP4L/KOKz529//PQC45aFUrqgRPF8RPLdfuec8f3Zhj+e2yuR+n/cPT0c8r7tXa/63ecr+kq96/J28KD5/+wZe8tH8u9SXeQO2HvFbjH/8U0x/9zu02/4elgdc9R9DcYLSP5pu/up0G6+DNOOqq/4HA6By1X+5rW7GBz7qlfnAR70y/7d8If8bbXzEt3HVf60uxPs/9EYe6OfvOsetPH+HqxXPT1kfYpsHumc1cM9q4IV5/N4hV/3baes4/eu/D/3rvw//Wx278Te46qqr/t0AqFx11VVX/RcLm0dqRdnYoS+VYVzzOx55fn7/3C5PODcx5nGexwC/+qTbuO1oxVVXXXXVVf/lAKhcddVVV/0Xs5Pl0/6GBxrbKXZOnuLl3+It2eg6/nZ/yZ3AUw+WPBWATZ6v83v8a7Wf+1H8xH/gP1O74QZcPxxe+ZXJP/xtpq/5MqajI14U5cM+CS02uOqqq676Hw6AylX/LX71zifys7f/A0/fv8DhNPC/3be/2jtyEz/NtH4c/5tsnPh4xp/5Adqtf8v/alHQ9knKQ16K7pXeAm2d5H+jB73ES/DYMycAqEcr7rzrHPfLpz4Rpol/le0d4oabueo/mJPpb36D6e9/D1+4C49r/reoL/W6xGu+PKtL38X/RIoFUW6gW7w6dfZSXHXV/3AAVK76L/WMg4u85+/+EL9779P4v+RgXNN4Gm34G/43sVe0O59IXPMgysNelv9o4x/8OHn2Nv7TOfHhJaY//wWGn/1a+jf5YPo3/gD+vbZqcO2844XZHxtHLfmP8LhLhzzu0iHPT/vln0bLI/419MjHwlu+E/8fbNfCRg1emI0S/Hu1O57I6rs/kbzjifxvFNc9FLVH0Ia/4X+y4fAnqbNXYHHiE4lykquu+h8KgMpV/2VuP9zlZX/2q7iwPuKq/1nKI16e7pXfmv9o45/8LN47x38d4dUB65/+CvKepzJ/7y/m3+NtbzjBG7/GY/iX3Hm05sefcY6fueM8V/3XqRLv+pAzvNmNpzgz7/iXXHf9cf492jP+nqOveA8Yllz1n29a/xkH930gW9d+BxHHuOqq/4EACK76L/N+v/+jXFgfcdVV/6kkwIx//NO0W/+Of4+Yb7DbeL6WaQ6j50CVU/Oej3rMjXzai9+M+N/pllsexNu/4zvx+m/4RsxmM/6n60N82cs+hPd+2HVs9ZWj6NlXxzrN83OxCfo5/2ZOVt/5CTAsueq/jvMiy4tfzVVX/Q8FQOWq/xJ/feEufu2uJ/GCFAW/8Abvx2f91a/wJ2dvo4/Cr7zRBwLwh/feypf83W+xN67Y6WZ8/au8LTdu7PBTz/h7vv7xfwDATjfjXR76Mtx1tMfP3f44XpCt2vP1r/K23Lx5nJ+77R/46sf9Hq913UN5p4e8NB/6Rz/Jhz/m1WhOvukJf8TbP/glef9HvhK7w5LP+Mtf5sl75/iP8NSnH/FZX/BU1uvkPd7let7yTa/hx376Xr7nB+4E4CUeu8VnfvLDWCwKb/8ef8Nq1QD4kPe/mTd7ozM8/okHfM4XPY2pmU/4qAfxSi9/nPPnBz76k5/Ixd2RV3vl43zKxz2U/zhm+U0fTv+670F51CsDMP3lrzD8/o+hjW1mb/FRxLUP5t+rPOSlmL3Nx0E2hj/8SaY//TkAtNiivsJb4It3M/3db0M3Y/bmH0F58Esw/snPMv7hT/C8BJjh17+Lxft/Jf9WL/2YF+OlH/Ni/Pk//C3LO5+GJC7b2OEVXuoVOL61BcD5S7s87m//nNe7Hv5u95CfveMC/5IWhWG2DRF0yz1o/Ld57Iu9GO/9fu+PJABe6mVemq/6si8jM/mf6n0ffh0vdXILbx7jlV7qFdjZ3ATg/N4ef//Xf0xZLwEY0tzwyJfg1R/yMP49pr/9LfLep/OfoXuNd6J7hTfDqwOGX/oW2tP/hvrSr0//uu/J/aYn/xnDz30d/xV+5dfP8U3fcTsnjnd8wkc9mMc+eotP+9wn8zd/t0+EeKs3u4b3e88becKTDvn4T3si9/uWr3ksN94w56d+7l6+6/vv4vSpji/8rEdw3bUzAP727/f5oR+/hy/67Edwvy/6iqfzB398kdd8tRN84kc/hOdnWv0uOd1J1Bu56qr/YQAIrvov8Yu3P54X5jWveyive/3DeeeHvDQAIfHa1z2Mz/jLX+YRx07z9a/8NgB89Su9NWM2PuyPfopPf6nX55VO38KDNk/w52/50XzGS78BD9s+xQvzpa/w5hSJD/3Dn+BjX/y1eI1rH8KZ+RYvc+pGAB62fYqHbp/imvkW3/sa78Jn/OUvszss+aSXeF3+o3zAh/8DL/XiW3zI+9/MB33U41iuGnfeuWJ7u/I1X/po/uwv9/iW77wDgK/64kdx511r3u0dr+c1X+0EAO/7of/Aa736Cd757a/jXd7n7xiG5Od/5SwPf9gGX/lFj+JbvvMO/u4f9vmP0p7xD0x//zuMf/wzAHjvPMvv+kRmb/wBaLHD8Mvfyn8EbR5Dx69l/dNfxexNPpjuNd4Rnb6ZjU/+cWZv9iHE6ZsB6F75rSmPfmVWP/L5zN7244lrHswL0v7+d8Hm3+vlX+wl4fg1ACzTvMzLvSrHt7a436ljx3nsS78SQ5q3uvk0/5KIykNf7vV58Zd8ZV78xV+Rh77c69Jvn+C/y6u/5mshiftdd931POKRj+R/qi7EW9x0iqOEl3/5V2Vnc5P7ndrZ4bEv9UpMNgDHb3wIj37Iw/j3mv7+d/nPEqdvJnfvZfzDn2TxEd9GXP9wpif8Ecvv+RSW3/MpeBrwpfv4r3D+wsj7fOg/8DEf9iAe/tANPv1znwLA3z/ugDd43VN8+ic+lM/5oqfy13+7z0MevOCzPvlh/P4f7fINX/kYrrlmxp13r/iQj348n/FJD+XkiY6P+9QnAvA5X/QUPuoTn8C3f88d3O8P/niXH/rxu/nMT34Y3/0Dd/Enf36JF2Rc/TlXXfU/EACVq/5L3Hp4kRfm7R/0knzzE/6It33wS/Axf/qz3O8pe+f4nL/6Vf7yrT6W9/79H+bVr30IH/nHP8UTLt3HS//MV3Iwrlm1iUf+xJfwE6/7XvxLXvPah/Jpf/lLPHHvLK/wc1/D4TTwxjc+ijPzLd774S/PY49fx99evIvdYcmjfvJLuP1wlw945CuxP675j3C0bPzl3+zzg9/5klx37Yy7n/za3G9zo/Cwh2xw4w1zLu1PANx845xaxZnTPdtblcOjxuOfeMjbvdW1XHOm5yM/4Qk86SlHvNe73sh9Zwd+7w8v0vfBmdM9/1Gmv/pV+td8Z8Y/+wXIhja22fycXyZOXs/4pz+P5pv8W5SHvBTttsdBG3mWNtJu/VvG3/sR6ku/PuMf/CSHn/XGLD7kG7mfjl9L3v548q4nk/feSrnlseR9t/K8hFcH/MPf/Q1j8u92sBrZBubHTrE5n/HcTm1vs+4WPGRLzEuwaskLMjj5gsc9nQe6bTnw32W9WvHc1us1/1PdvDFjUYJ64hoWfc9zO3PsGAeqHKdxfnefv/7rv+bf68F3P53Cv1+cuRmPA969lwfy6pDpr3+d9kpvSX2p12X45W/Fq0N06ibKLS/G8ps/gv8Kf/oXl7jlpjmv9eonea1XP8kDnTrR8WKP2WJzs7B7aWTWBzfcMAPgQTcvAPibv93noQ9Z8Aovewwb3vV9/xaAT/m4h/Ie77zilV73T7jfU556yCMftkEtYhrNk596xCu9/DGeH+e9XHXV/0AAVK76LzEvlRfmbR704rzn7/0Qb/2gF+flT93E3+/ew/0Op5E+CoHoIpicANyz3Odfq4vCmAnAvct97rfTzXit6x7GTZvH+NuLdzFk4/bDXd7+wS/Ja173UF79F7+B/wjTaAD6PnjF1/5jVqvkV3765QD48Z++lx//6Xt5icdu8aWf9wien2kyAF0VAH0nxjEBuPW2Jb/wK2e55kxPKeI/yvSXv8LsbT+e6fF/SHvSn1Ee/crEyeuZ/vJXaE/+czY+4Qf51+pe613pX+Md8Tgw/uGPU1/mjRh/83u4n9dHqF9ATjy36W9+nY2P+V4Wx84QNz0Kj2ueLxskrjlzDU3Bv9cBhrO7iBdM4rIQL1QaHrd3yP8Uv/5rv8qjHv1our4H4IlPeAK3Pv3p/E812QAUBS+IEAAnT53iuhMn+Peqsznm30cnrmPxkd8Jw5Lxz3+R+phXZfndn8wDeb2Ebs79+td/b8Y//AkYlvxXGMek78Rf/s0e7/1Bf8+Dbp7zcz/2sgB8+Mc/gY/6xCfy1m9xDa/9Gid5fsbJ1CoA+k5MkwHo++C5tYS/+tt9fvoX7uMRD98gm3nBCldd9T8QAJWr/ku82PFreUFe7ZoHc2K2wbe92juw3c14mwe9BH+/ew/3e41rH8ITLt3H5OQZBxe5frEDwHe9+jvxbU/6E/7wvlt5UT3j4CLXb2wD8K2v+vb84NP+CoCn7p/nfX7/R/iqV3xL7vfGNz6KL3q5N+W1fukbObc65D/C5mZha7Pw9Gcs+dPffmWO3/SbTM0AvP1bX8u3f/2L8cJsbxV2tiu33rZknMze/sTNN835+V8+y/Fjle/8xhfndd70z/iTP7/Em7/xGf698o4nkufvYvWjXwTrQ8a//lXKo1+Z6R9+n/VPfhmLj/t+tHWCf6321L/i8I9/mjh2Dd1rvjPrn/xS4vi13K88+pVptz+e5ydvexxHX/A2xLUPpjz4JWlP+yueP6GTN3Dm+hv4j/D0O26lAYeXLnC0XrMxm/FAF/b3qcOS25Zrjqbkf5M777iDL/2iL+TFXuIl2L24y+P+4e/5n+zOo4GDsXF47l5W48C863mgC/v7LHKEELSB6667jn+v9U2PYviH3+XfZViy/MYPJs/eRv967834pz+PL9zFs0SlPPzlmP7m1wHQ5jG6V3kbDj/3Lfivct01M+68e81LPHaLr/myR/Pxn/pE7vf1X/5o3v2db+CFuenGOXfetWYckyc/9Yhbbp7zgpw80fHgWxZ87qc9nNd6kz/jxPHKCxL1QVx11f9AAARX/Zd4m1tegs3a8/y87YNfgu9+8p/xkB/7Qt77936Yt33wS3C/X3nDD+BzX/aN+MA/+DEAPuuvfoUvfvk340/f4qN48RPX8Q+79/Cv8dl//at83su8MX/y5h/Jy5++mb+9eDfPz0435yde970R4gde6934sdd5T14oiRdFKeIzPvlhvPcH/z2v86Z/xk03zDhxrGKev7d/97/mjrtWfNYXPpVf+JWzRIhP+pgH8y7v+7e8/lv8OR/+gbdw+lTPYh586Mc8njd6m7/g/MWRV3nF47zIJF6Q8a9+hfqyb8TWF/4m8w/4Gqa//nW8PGD5LR+OEavv/ASW3/IR/GvlHY+H9RF5362sf/yLyTueCIBO3cjGJ/8Yceomhl/6Zl6Q7lXfltm7fCarn/gSvH+B5890r/zW/Ef483/4W8YL9wCwGfAXf/5HXDo64n5nL13iH/7qj5mH+KnbzvO/0e7uLn/we7/HP/z932Gb/8mazc/feZ7NMH/y53/CME3c777dXf7ur/6YPgTApTufztPuuJ1/r+6V3wok/j18eIm8+6kwjQy/8m2Mv/+j3K97yddl89N/ivaUP2f6698AoHvNd2F6/B/gC3fxH0YCxAvy8i+7w6u/ynFe603+jI/95CfyEi+2zQvyhCcd8t4f/PcAvNnb/yV33rXi5V56h1d42R1e443+jE/73KfwSR/zEF6Q13vtk5y7MPAGb/XnXLo08bqvdYrnR7FNt3hVrrrqfyAAZNtc9V/iC//2N/i0v/glntt1i22OpoG9cU0XhRs3drj14CIP3joBwO2HuzSb+1272Oaa+SZ/d/EeHuia+RarNrI3rgH4i7f8aE7ONgD4w3tv5d1+9wcBuGa+xXWLbf724t0AbNSeY92Mu5f7nJxtkDb744qbN49zv8nJHYeXeEH+6i0/hkfwDUyrP+FFcfbcwIWLIw+6ZcF8FuztTQxjcvpUzwPdfucKpwE4caJje6sCcPc9a4YxedDNC+5339mBpzztiJd5qW0W88KLYuuab2P9TV9I94pvTvfKb81z8/55KB3a2IFs5MW7iePXkrv3cj9FQSeu5/k5+qr3pj3xj3mRdHO0cwqW+/hojwfS9ikYV3h1yGXzTVgd8oIZzbfY/KLfRott/q2edtvTeeITH8c2E89tmebkNTewGgaWu+eYh/j1uy/yRX9/O+Y/3vgNX4KWR/xr6JGPpbzlO/Hc2s/9KH7iP/Cf6YYbbuDDP/zDeeVXfmV+53d+hy/7si/j6OiIF0X5sE9Ciw1emD7El73cQ3mJ45scpTl9+jrGNrF/8RzzEA9k4LDMeNQjHsNDbn4Q/1arH/gsxt/7Ef6jaWMHFtt4/zwMK+6nndMwLPHqkP8o3Wu8E+Vt34CjC5/FC/Pkpx7S98GDbl4AcN/ZgY2NwtZm4X7rIbn33jX3u/76OV0VAE940iHXXzfj2E7lftNk7rpnzS03zblfa+aJTz7kUY/YpBTx/MyPfTizrbfhqqv+BwKgctV/mU96idfhr87dyY8/4295oHuW+9xvzMatBxcBuPXgIs/Pvct97l3u89zuWx3wQC/3s1/N83Pf6oD7Vgfc72gaOJoGAC6sj7jfrQcX+c9y5nTPmdM999vZqTw/N9845/m5/roZz+2aMz3XnOn5j6TtUzxLFOLUTQDEqZv4Dzeu8Pk7eX68f57nsDrkhYrK4oO+Fi22+ffYPX+ObSaen0WI5bm7ATgYJr756ffxs3ec5z9LPOrFYVjzr6HrbuT/qiHNJ//l03nfh1/HG11/gqML9wIwD/HcBGy1NW11xL/H7B0/lbzrybSn/iX/kXy0B0d7PDfvneO/yyMetskDXXOm57nN+uCWmxc8P49+5CbPrVZxy01zHqgU8dhHb/GCdBtvzGzrrbnqqv+hAKhc9V+mKPjh13l3vuzvfpuve/zvc9fRHv9nSGD+d5IYfulbGP/gJ/iP5r1z6OQN/Jdw4r1z1Bd7TWZv+ZHETY/m3+tX793jJ/7qqbwwe2PjGYcr0vynKq//Zlz1nJYt+YYn3sW3PfluHrQ5Z6MGL8yHbl7Hwx/Bv5m6GYuP+k6GX/gGxt/7EXy0x/86EiD+p4tyDf3W2zPbejuuuup/MAAqV/2XKgo++SVfl09+ydflz8/dztP2L3A0Dfxvd8vmcWa8Pd3itfjfJMoZ+td/b3zxXv5Xi0DbpygPeSm0scN/lHvWI39z8ZCr/mcb0jx5f8m/5Ox64t9L/ZzZ23wcs7f8KNqtf0deuAvGNf9bxHUPQf2NLI5/Av8TKRZEvZHSPZyrrvpfAIDKVf9tXv70zbz86Zv5v+Nl+d+oPubVuOqqq/6VSqU87GUoD3sZ/jfqN9+Yq6666t8NgMpVV1111VVXXXXVVVf96wFQueq/zV+cv4On7p3naBr43+4tb3kxdngC2c7yv0k3f1XaE/8WX7yX/9Ui0PYpykNeCm3s8L/NmVnH/c4PIye6jhCXXRwmdrpKEZddGic2SqELAbA3NuYl6EMAHEyNKjEvAcDhlBy1xlX/wdpEu/XvyAt3wbjmf4u47iHoQTcyrf6S/4kUC6LeSOkezlVX/S8AQOWq/1Jp871P+XM+4y9/mTuOLvF/xV+91cfyCP840+pP+N+kXPNtDL/+3fjcHWjnNP/RvHcOj2v+8xmWh3h9SH25N2b25h9OXPsQ/jeQzUfdeIIHXXOGuy5c5POfeAcfdO02j77hOu7b2+dLHv8M3uXkNi//oJu4cHjEV/7D03iDYxu8xkNv4WA18HX/8BReemvGGz/8wSzHkW9/3FO5YVZ5m0c9lCmT733C0/iDI676jzINDL/9Awy/9M348BL/23Sv+c6U69+A5e6X8T9ZlOuZ77w33cbrAeKqq/6HAqBy1X8Z27z77/4gP/S0v+L/HJv/tWz6N/kguld+a/6jHX3Ve5NP/GP+yximP/15pr/6NTY+/Jspj35V/j3e8NodHv5yD+WF2RsbT95f8kt3XuDCMPGvlWk++UM/hPuVD/gYPucTvhgNawDKu38QX/ltXwuXLgIQb/fufMv3/Rbfcs+dAMSbvi3/8Pi/4wee/mQA9DpvDPfezU8/7m8A0Cu/JuXVX4//q25c9LzxjSd5yNacjRK8MC9/Zpt/D48Dy6/7ANqT/oT/tWzA/E+X7W6OLn4R/fD3LI5/FCCuuup/IAAqV/2X+ZK/+y1+6Gl/xVVX/acRgGBas/zmj2Dzi34bLbb5t7pu1rFzcot/yWtee4x3efAZvvDvbucPz+1x1X+Nt7jpJB/+qBvpQrwoTs86/j3WP/oFtCf9CVf91xkOf46oD2K29TZcddX/QAAEV/2XOLc65PP/5td5YV7lzIPY7mYAhMRrX/cwXvu6h/GQrZM80MucupH3eNjLccPGDg9UFVwz3+Jf8lInb+A9H/5yPGjzBABn5pu87KkbAXj4ziketn0KgO1uxjs+5KV405seTVXwQkn8a/zir57lp37uXg4OJgDuuHPF7//RRX7/jy5y39mB+/3Rn+zy+390kd//o4vcfc8agGkyP/uL9/GTP3svq1XyQHfdveZv/n6ffxWJf0m79e/w0R738+qQ8S9+ienvfwfaxH8EbR6jPPIVKY94BTTf4n5x06PpXuVtiGsexP3izIPoXuVtiOseyvMnvDpg+I3v5d/jMS/2Upx85Esx9Rs80DLNzi2P5NGv9Do89OVeg8UND6FE8JkvdQuP2F5w1X++V7tmh495zE00YOumh/ESr/r6PPqVXpvFtTezTvNAbWOHM495WR700Efyb5V3PZnx93+U/wxx+mbKI1+R8tCXhig8UFz/cOpLvS7/YSRAvKie9ORDfvBH7+YJTzoEYJrM7//RRX7/jy7yt3+/z/2e/owlv/9HF/n9P7rIX/3NHvf723/Y5wd/9G6e/NQj7nfh4sgP//g9/MVf7/GiWO9/D/YRV131PxAAwVXP4xnPeAZPfepTARjHkR/90R/lKU95CvcbhoEf/uEf5i/+4i94Uf387Y/jcBp4QW7Y2OEP3/wjePeHvSwAfRR+600+hA9+9KvwW2/yIbzXw18egPd5xCvwg6/5brzCmZv5q7f6WK5dbHO8n/Ntr/YO3Pcun827PvRleGHe7WEvy4+9znvycqdu4s/e8qO4afMYr3Xdw/iGV3lbAD7s0a/GBz/6VQD44zf/SN7y5hfjs1/mjfiWV3t7/qN83Kc+ka/8+mfwy792njd7+78C4Md/+l4+7OMezw/+6N282hv8Cb//RxcB+NGfuod3fd+/48u/9lae/NQjAD71c57Md37vnfzEz9zL+37o33O/aTLv9F5/wyd82hP5j+SjPY6+7F0Yf/dHuN/Rl7wT05//EsPPfz2r7/8M/iOUh7wUiw/5BvrXeXc2P+vnidM3UV7sNdj4yG8nHvKSbHzyj6ET16PN42x8/PcRD3kpNj72e9Gxa3hBpj/7ef49Fn3PYx/0YF711V6HsZsDMNk85mVelZd81GM4vbPDDSdP8nIv9pLc9KiXoo/gvR92LVf95/ugR1zPmOaRL/VKvPRjXpxjm5uc3jnGy73ky3LDI16c++XGMV7r1V6HR910M10p/FuNf/krYPOfoXuNd2L+bp/D7K0/lo2P/V6oPQDda74ziw/5BsqDXoL/Dn/513u84Vv/BU952hFv8Y5/xZ/+xSX29yfe/B3+iu/5wbv46E9+Ah/6MY8D4K//do/P/IKn8iEf/Xh+8VfPAfDXf7fPO7z73/DEJx/ypm/3lzzt6UesVsnrvcWf88d/tsu7vM/f8nt/eJF/iXOfafWnXHXV/0AAVK56Hj/wAz/AhQsX+PIv/3I+/uM/nmc84xl88Ad/ME9+8pM5deoU7/AO78C9997L8ePH+eVf/mVeFH994S5emHd48EvxhEv38XYPekm+6Ql/xP0++k9+hlc6cwtf98pvw/c85c/50Ee/Kp/7N7/KDz3trzm7POCWzePcfrjLb9z1ZK5bbPMv+dBHvypf+De/wXc/5c+4Z7nPzZvHeUE+7I9+kj+471be+SEvzfs84hV4oWxeFNNkfuBH7+Y3fu7lefSjNvmRH7+H1SoBeIWXPcY3ftVj+fhPeyI/+wtnefVXOcFXffGj+f0/2uXDP/AWXvPVTjBO5ru//07++Ddfieuvm3HzY36XZ9y+5EE3L/iGb72NUsW/ms0LM/31rxPXPJjpr36V/o0/AGxm7/wZ1Ie/LOMf/wzjn/wM/1G8ey/Lb/0oZu/wyfRv8ZGMf/KzLL/7k2mP+33qw1+Bct1DYbFNnruD9Q99LuVBL0598ddk/IMf5/nJe2/l0sXzWIV/r40T1zDedxvTfIubrrmG5/aoBz+EJz/x73i5U1sEkLxoIsRHf9Znc8uDHszdd93FN54/4t0/4RN41MMexn33neVb797lzT7kQ3npRzycC7sX+c5n3Mervud78iqPfAT7Bwd8z9Pu4DGPeSSv8+iHs1qt+aGnPINry0vzJh/14Uxt4sefdCt/zf8t1y96btqYsew3ueW663luj3now/mFJ/09x4rYOHENu7u7/Ht1z/gH/jNNT/wT1j/42Wx8yo/TvfJbMf35LzF7q49m9YOfDW0CBTj5d7MB86L4wR+7m3d82+v4zE9+GG/4eqfYWBTu9xVf+CjuuHPFa7zRn/GNX/VY3uYtruWeewf+4E92+bRPeCgA3/uDd/GOb3sdn/NpD+f8hZHv+5G7eePXP816nXz1lzya6659Oj/1c/fxGq96gn9JG2+lW3DVVf/TAFC56oX6iq/4CmqtPOQhD+HpT386ly5d4jd+4zc4e/Ysi8WCF9XBtOaFefsHvySf+he/yPe8xjtzcrbB0TRwv786fyc3bx6nj8Lp+SZnV4cAfN7f/Dr3++Gn/zXv8JCX4l9yerbJfat9AL7ob38TgLd/8EvyMidv5Onv8KmcnG3wrU/8YwB++56n8vOv/3682c2P4e1+83v4j3B41Fitkhuun/FVX/8Mpsmsh8TA455wwGd8/lP42V88yzd/zWN5fo4OG8NoThzvWCwKW1uF8+dHAH7ul87yYR9wM9/23XfwH2n6y1+mf5MPYv0jn09euIs4eQP1Ua/E8hs/hOlvf5vFB3wV/1pxwyOYvd0n0p78Zwy//l10r/I2+OI93C/vfBLdq74d7XG/D0D3qm8LTqYn/yndy78p6ubM3/Pz0WyB+gXPnwBzx+23Myb/bruHh2wCJ7Z3eEHmi0369QHbXeHS2HhRWOLXyibccQ7oGevE7/QLfv+O80CwnC/44/mcv7zzPAD7G1v81aznCXddAGB38xj/0FVuu3sXgPs2j7NXgrP3XgLg7OZxWA/8X7JRAoDrTp7kBYluDrlm/9Iutw4D/14POdwj+Hcqlfm7fQ7UnvVPfjnlIS9Fe+pf8EB515PQyRuJmx6N5puUR74i9SVfFx2/lvG3f4D/ShcujrzEi23z6799nj//yz1e5RWPceP1MwC+6huewZ/++SXe7I1O84Jc3B256YYZANec6Tl3fuSG62acPz/yc790lr/5uz2O7XS8SLzkqqv+BwKgctULVWvlD/7gD5imiZd+6Zfmt37rt7jxxhtZLBb8a9yyeYIX5IaNHV792odw59Elhmy8zYNenB946l9yv2vmWxyMa4ZsrKaJeakAvPTJG7j7aJ97V/u8qJZtZF46AF7y5PWcXR4A8FcX7uRVfv7r+KpXfEse6M1//Tt414e+DJ/50m/ATz7j73iBJDD/osU8ADg4bNx805wP+sjH8W7vdD0AGxuFxzxykx//vpfiJV98m+dnsQgAVkMCsFwmW1uFT/2cJ6OA7/nBu3jarUt+47fP83qvfYoXicQL4qNLTI//Q+hmUDqmv/xV+td/bwAWH/pNjH/6c6x/8RupL/fG/GuUR78Kw299H91LvDZbX/r7DL/5ffjiPdxPO6fx0SUA6ku+Dv2bfwRHX/auMI0wjbBzivU3fR3zd/lMPA08f4Z+gxd7iZcCiX+vv3vSE7j0jPPce+4+XpBheQBO9qfGv8bj9g55oCfuH/FATzk44oGePi15oEvjxHO7a7nm/6p7VyNpc+fZ+3gJnlfLhHEFRZy59lpe/KEP499r9bcPZnzaX/DvEdc9lDx/F3nfM9j4hB+E5QGHX/wOPJC2T8NdT4EI8vxdrH/oc/HZ26iPfEXG3/4B/t0kQLwoFovC3v7EieMdv/9HFxmG5CVfbBuAm26Y8XLvfzOv/zqneEE2NwqrdQJwtGxsbhZuvmnO1375o/mVXz/H3n7jZV/6GC8KlWu46qr/gQAIrnqh1us1H/ZhH8Y3fuM3Umtle3ubvb09/rXe5KZH84K8w4Nfit+6+yl88xP+iG9/0p/ydg96Se73Tg95ab711d6Br/qH3wXgF+54PB/26FfjPR72cvzem34Yp+cb/Gv84h1P4EMe/aq8+8Nelt99kw/j2sU2z8+8VO57l8/ho1/sNXjVax7MxWHJC2Xzouj74PVe+yRf9OVPYxwSgAgQ8OBbFrzrO17PS774Nvf70Z+8h739id/+vQs86SlH9H3wqq90jC/+iqfzmV/wFK67tuehD9ngEz/qIXzWJz+MV3vl45w+1fPoR27yIrN5Qaa//g3KzY+le+13p3vNd2b6q1+Bcc3Bx78qw69/N+2pf4U2jvGvNf7m99L+/ndZ/dDncvCxr8Tw818PCC126F7rXehf9z0Zf+9HKQ97GRYf8NVMf/bz1Ee/MnHTo5me/jeodpQHvRjloS9Ne+pf8oLUl3gtkPj32js64r7bngrANo0n33Yrz+1P/+6v2Qn4o7N7pLnqP9HB1PiLCwcsphVPv+N2nttfPe7v2S4C4L5bn8T+csW/V33x1+TfK+98EsMvfAPTn/08h5/2ehx+/lvBNABQrn0I/Zt9GOWWxzL+xS+Ttz8ObR6je813ob7sG9Nufxz/IWzAvCje+PVP8aM/eQ/PuG3JcpVIPMs7vM11vPkbn2E+CwD+6m/2+LO/vMQdd6z4xV89C8DrvtZJfurn7uM7vvdOfvYXz/J6r3USgJd/mR3OnOm559417/PuN/Ci6OavxFVX/Q8EQPnsz/7sz+aq5/B7v/d7LJdL3vAN35CP//iP5xnPeAYv+ZIvyfb2No94xCP4qq/6KrquY3d3l4c//OG8KG7cOMafnruNp+yd47k9eOsEP3f74/jde5/G43bv5eRsg9+79+nYZlE6vvspf863P+lPAPjde5/G6dkmL3/6Zj73b36NP7zvGdxPwD/s3ssdR5cA+IQXf23e8IZH8trXPYxbto7zNxfu5vfufRrH+wWvdOYWvvBvf4PfvfdpAJxbHfKX5+9EwFP3zvPEvbP8+l1P5g1ueCRH08DH/dnPcTgNvCAf/OhX5RR/Sk538i95yzc5wx13rrn9rhUf+2EP4mVeageAm26c86hHbPJAv/zr53jJF9+m74Obb5pz/XUz3vLNruGpTz9CEl/zpY9ma7Ny3bUzbrl5welTPTfdOOPVX+UEL4p+8y1pf/H7lBsfSbnp0Tw3n7+T8mKvTn30q1BueAQ+vER91CtSH/vqTE/4I9TPmb/Dp6DZBs/P+Mc/jc/fwYvKbUKzDYZf/lbaE/6IOHkDeeksZEMbO3j/PHn748m7nkJ9mTdk+I3voT3pT3leBovF+34ZOnaGf6sL+/s87Y7beeLf/RlzNwAE7J27hwsHh+wPI2cvXuTJT34849k7OWzJ5//dbeyPjf/J/KR/gPNn+c+0vb3NK77iK3LTTTfxjGc8gz/8wz9kHEdeFPGKr466jhfmyXtL3uiGE+yfu4fdo0P21yP3XbzIk574D4zn7kQSAMWN2+64jWVrOApbiwX/FnHdQ5n+6tfw/nn+wwmwoU2sf/SL8IU7YRqY/uH3qI96RfKOJzD86reDzb9XefBLEI95GOPyt/iXPOoRm7zYo7f4gz/e5RVf/hgf9D4308+Crgav/qonqEXc7/FPPGS1Th7+sA0y4WVfaofHPGqLW26a81d/u8/HfviDeJ3XPAnAk558yL33DXzRZz+Sa6+Z8S/pFq9Nv/kWXHXV/0AAyLa56jn8/M//PIeHh7zTO70Tn//5n89TnvIUAD7wAz+QV33VV+XP/uzP+NIv/VJe/MVfnM/6rM/iRXXX0R4v/7Nfzd3LPf4rvPNDXpp5qQDcvdznV+58Iv9Z/uqtPpZH+OuZVn/C/yZb13wb62/+IrpXeDO6V35r/qMdfdV70574x/yXskGie813Zv6un82/x1/+1Z9xdO4uXhT3LAc+52+fwRP3lvxP137uR/ET/4H/TDfccAMf/uEfziu/8ivzO7/zO3zZl30ZR0dHvCjKh30SWmzwL3nJE5t85kvcwslZx4viugc/koc/4jH8W+VdT+Lwi98JhiX/W3Wv+c6Ut3kDji58Jv8bRLmWzTPfSJTjXHXV/0AAVK56Hm/+5m/O/T790z+d5/YKr/AK/NiP/Rj/Wjds7PB7b/qhvMWvfyePv3Qf/9l++Ol/zX8Zm/+1bPLupzI98U/4j6baoZM38J/PsNzHy30ole513p35O3wK/15PPVzzN3dd4F/y+EtH/MpdFxnSXPVf528vHvIuv/8EXv2aY7zYsQ02avDCvM41ax7Ov13c8Eg2Pu77WH7Th+Hde/lfyQbM/walezgbJz+HKMe56qr/oQCoXPVf6mE7p3nc234iv3zHE/jZ2/+BPzt3B2dXB/xv15dK+ARRruV/E6kSO6cY/+wXGP/sF/jfSrUnHvmKlEe+It0rvDnaOc1/hD84f8A3/sMdXPU/15jmt+7Z5bfu2eVfsnPLI3k9/n3Kg16crS/4daa/+U2mv/9d2m3/gI/2+N9Cm8eR5qhcy/9EUU5SukfRLV6dOnsZrrrqfzgAKlf9t3jjmx7NG9/0aP5v+QT+N5q/95dw1VVX/SuUjvqyb0R92Tfif6ud636Qq6666t8NgMpVV1111VVXXXXVVVf96wFQueqqq676/2axCTvH+U+1tQP9jMtmc9g+BrXnRaLgqquuuup/AQAq/4/9/tMu8F1/djt/feclLhyNGPOf4Xve5WX42fN/wE8+4+/4v+pnX/99eTjfz7T+K/432Tz9xQzf/41MT/pT/leLILZPUR72snSv9vbE9Q/jqhesvP6bAW/Gf6ays41e4mUAiJd7Fer7mjqO/F/g9RHj7/0I0z/8Pr5wFx7X/G/RvdJbUN7oNTja/Ur+J5IWRL2BbvEa9IvXBVWuuup/MAAq/w/trSbe/0f/hh/7m7v4r7AcG+dWh9x6cJH/q4bWSF0k2738b2JP5N45uld4M8pjX53/aOOvfjvt7qfyny4bec/TaU/7G4bf+B7qK78Vi3f7HKg9/x4P35rxRjec4IXZGxtP2Vtydj1y1X+PGzd6Hrq1YKMGL8yDNmf8e01//3usvvdT8d5Z/jfywS72Crd7+Z/IQE63Mq3+kPX+D7Fx8rMo3YO56qr/oQCo/D8zpXnb7/4zfuPJ57jqqvvF9Q+jPuqV+I82/OI34Qt38V9GgJPpj36K5XKPxQd/A/8er3pyi5d+sZt5UfzOvbt81ePvZG9sXPVf47p5zye+2E289MktXhTXndjk32N68p+z/MYPhmxc9Z8vp9s4PPcxbJ35BqLewFVX/Q8EQPD/zDf9wa38xpPPcdVV/9dNf/0btCf9Kf8ex0+d4aDMsXke+xRuePAjOHXjgzlI8VrXHuerX/5hbJTgqv9818w7vv4VH85Ln9ziwEF/7BTaPsFh8jwmm2W/yfaxE/xbeVyz+u5PhGxc9V/Hucdy92u46qr/oQAI/p/5it95Ki/Iqz74BLd++utz9nPfiB95j5ejhviQV30wT/+01+NvPu61+LBXezAP9IPv9rJ8+us/gv8Isyg8/m0/kde/4REAzKLw9Hf4VJ7+Dp/KD7zWu3HDxg4AD90+xR+/+UfS3vvL+PHXeU+qguP9gj9+84/E7/Pl/PobfxDzUnlBHrR1gj94sw/H7/Pl/PTrvQ99FN7kpkfzU6/73gB85ku/AZ/6kq8HwJvf/FjufZfP5t53+Wxe7/qH8++xtz/xju/5Nxy/6Td563f5K5bLxm23r3jJV/5DXvKV/5DXfpM/4/f/6CIAn/F5T+YlX/kPeclX/kPe/8P/AYBz5wfe9O3+kuM3/Saf8OlPpKUB+PvHHfC5X/xUvuabnsH9Llwc+e7vv5P3+IC/40Ui8UI5Ofz8t2b6y1/hgbx3jsPPelOmv/0t/iOUR74Sm1/wG2x+3q/Sv8kHQxS0eYyNT/4xtr/5CSw+6jug9iBRHvXKzN/9c6kv+Tq8YGb4je/m3+OhtzyYN37dN+LMI1+CMc392rEzvMkbvDkPfcRjecxjX4rXeb03Zdo8zoO35rz7Q6/hqv98H/6oGzg5q+TOKV7vdd+EV3zFV+fVXvk1ea3XeRPaxg73W6Z56Eu+Em/wWq/Ptddcx7/V9Ne/hs/fxX+G/o0+gM0v+A02P+NnqC/7Rtxv8SHfwOYX/AabX/Ab9K/zHvyHkADxolitGu/7oX/P8Zt+kzd8qz9nd3fk0qWJl3zlP+QlX/kPefU3/FN+6dfOAfAVX3srL/nKf8hLvvIf8nbv/tcA7B9MvON7/g3Hb/pNPugj/4H1OgH4wi9/Go962d/nFV7rj7n1GUv+JdP6z2njU7nqqv+BAAj+H3nS2QOecXHJC/JZb/govvJ3nspNn/trXLs945UedIJj88qf3rbLO3zvn/Mpr/cIXv8RpwE4seh408dcw3u+/M38R3iDGx/JzZvHeaeHvDQAknjw1kle+5e+iQvrI771Vd8BgK94hbfgl+94Apvf9ym81MkbeIMbH8m7PPSl+fuLd9N/zydx08ZxXuf6h/OCfOnLvxm/e8/TmH/PJ/HIndO8yU2PYbP2XLexDcCJfsGJ2QKAz3rpN+BD/+gn+Lg//Tk+46XfgH+Pr/y6W9naLFy47XXY2iz89u9dZJqSu+9d87d//Kq8z3vcyMd/2pMA+LzPeATv+LbX8lqvcYJv//oXA+Brv+k2HnzLnLue9Fr8wR/v8vO/dJZhSD7wI/+BX//tC9xx54r7fc4XPZVf/LVz/NGf7vIfoT3lL8j7nsH4F7/MA61+5PPxpfvwsOQ/gvoZDEsOP/+tqY99dfrXe2/qK7w5eecT2f/olyNO30R5xCtQHvLSzN70Qygv9ppovsULMz3+j8Dm3+vRD34oW9feBMBhwqu+3CvxQLNaeZVXeFUOm3mD609w1X+urVp41TM7HKR4tVd4Vbpaud+873mZl3klVmkArn3QI7jluuv592qP/yP+s2jjGNM//B5H3/RhzN/1sykPeSkAyoNenKOveA8OP+31GH7r+/iv9s3fcQe7uxO7d7wuj3jYJr/06+fINLfdseL3f+0V+eSPeQgf9YlPAODjPvLBfMj738xLvsQ2P/H9Lw3Ad3zPnZQi7n7ya/GM21f80I/fzdGy8aVffSu/9YuvwCu/4jG+8/vv5EUxrf+Sq676HwiAyv8jTzt/xAvzW085x4e+6oPZ6Arv9L1/wb0Ha17jIScBeNLZQ37q7+7mLV7sOn79yed4yxe/jl94/H283E3HePHrtvn7e/b593i7B70kX/Z3v8WHP+bV+eA//HHut24TX/MPv8cT3u4TKQpe4uT1fOMT/pBVm3jET3wxD3T9Yocz800et3svL8hLnLie73vqX7DOxmN/6ssAePsHvyQ3bRzns1/6DXnlax7E79/7dABu2TrB3rDm3R/zctyyeYJ/j7/9hwPe/I3PECG+/9tfEoCnPf0IDLfdvuTwcELiBfr7xx/wZm90ho2Nwsu85A5/+w8HvNWbXcMf/vor8emf92TW6+R+X/Olj+av/maPd3jPv+FFYvPCjH/5K/Sv/94Mv/UDMK6hmzH9/e+g0hE3PJx/k9pTX/r1ac/4O3z2drRzmmdZHzH+xS9SX/oNWH71+zACOn4t2jhG3vNUfPEejr7qvdj4+B/ghRMMS/7yz/6U0fy7nT065Dhw/NQ1dKXw3GZdRyy2ODUcslULB1Pjqv8c1y46QuLMmesoETy3nY0N1qVn7pE77znL8tKf8O/1qDufQuHfrzziFaB2tMf/Ido4htdH3M/n7mB6wh9RHvtqtGf8Pdo5w+KDvgZsVt/1SeS9T+ffzQbMi+IfHn/Aq77ScQC+4SsfA8DFiyMAd9y5Ym9/QuIF+vvHH/CyL73DYlF4hZc7xt/83T7v/W438oave4ov+LKn8Wd/cYmv/dJH86LIdh9XXfU/EACV/0eu2Zrxwnzxbz6FX3/SWT7s1R7CP3zia/MSX/7bPJDNs7zdS1zPk84e8ORzlbd9iev5+3v2+beqCt7qlhfjI/7kp1m1iVe75iH86bnbuJ8xQggQz9/xfsGvv/EH8Zl/9Ss84+AiL4gkbJ7HOiduPbjA3rDmgT7+xV+L73/qX/LSJ2/g3yvTfOXX3co3fNvtfOyHP4g3eYPTjJP50I99PCdPdHznN744L4jTRHBZKSKb+S9hM/3VrzF70w8hdk4yPf4PKY96JVY//PnM3ubjaD//9eRdTwEbJF5U/Zt8EHHdw5i9xUcwPeGPiNM3M/7W9/EsbUIKALRxjI2P/k7WP/M1+OI9vOgMCh7+yEeSiH8v33Eb0937LNdrXpBxGpkDk81V/3lWLQFYjyMviFuDgBtuvJEHnTnDv1f319eSz+DfJa5/GPN3+Sxy9x54rXclrnkQR1/9PjyHbKACNodf+Lbk3U9h/g6fQv/678PqBz6T/2oGvu277uArvv5W3vUdrucjPugWAD72U5/IyeMdP/gdL8kLYhvMZaUIGw6PGnfeteblX3aHJzzxkKc9Y8krv+Jx/iWKHa666n8gACr/jzzm2i12ZpW99cTz87sf9qp8xi8/kff70b/mbz7+tXmlW05wv62+8LqPOM3n/tqT2J5V3uCRp9meV7Znlbd5iev43F97Ev9Wr3v9wwF4/0e+EuuceOsHvTh/eu427vdWt7wYf3z2GUxOnnDpPl7m5A385t1P5tff6IP4rL/6Vf7k3G38zOu9D9/55D/lGx7/B7wwT9i9j5c+dSO/dOcT+OU3+AC+9O9/C4CzqwO++yl/zkudvIH73bc84Bse/4d0Jbhnuc+/xyMftsEf/PEu3/VNL85f/M0eBgx0Vfz8j70s/5KHPmSDf3j8AZnmr/52jw99/5t5Ycx/jPb0v8GrA8Y/+wUApr/+NeK6h1If8XK0v/9tfHCB9uQ/Ayeo8KIaf//H8P4FNNugPPbVGH75Wyk3PgoQdHPqS70+7al/Bd2MxYd+I+Pv/Sjj7/4Q/1px02PYPH6C/wjjE/4WAePBLhcPDjixtcUD3XvxAotpzVMOVqxactV/nruOBi4OE/OL57h0dMixjU0e6I6zZ9lWA8TR/i7HH/EI/r2GB78k67/6Vf498vydHH3N++BLZ6kv/lp4dYD3znE/bZ+kPvpVWP7RT6Fjp+le851Z//gXk4eXiFM38F/tEQ/f4I/+dJef/IGX5m//YZ8H+tHveSl2tisvzMMfusHjnngAwF/+9R5v9HqneMZtS572jCM+7ANuwYZf+fVzvOs7XM+/pHaP4aqr/gcCIPh/ZNEV3usVbuYF+fLffirf/o4vxW2f8QbcvrvkN558DoB3fOkbuOuz35BffeJZfuyv7+ItXuxa/uHefV7nG/+Q1/7GP+DFrtvmISc3+Ld6+we/JN/55D/jdX7pm/jQP/oJ3u5BL8H97n7nz+IdHvxSfMAf/BgAn/hnv8B7P+IVOP+un8e9qwP+8L5bef9HvhKved1D+fJXeAv8Pl/OF77sm/CCfMpf/CLv+tCX4fy7fi5744rfuedpPDdxxRf+7W/w3a/xTnzNK701X/q3v8W/x0d+yIN42tOXPOTFf5enPnXJa73aCQQgnseHfszj+PKvfQbf90N38xbv+FcAfNLHPIQ//fNLPOplf5/HPnqLt3/ra3lhxL+CxAsy/eWv0L3cG7Pxcd/H/D2/iOlvfoM4fRPz9/pi5u/1xcSZW+he610gCv8avngPTAM+3GX6s1/AF+8BIK5/GFtf+nuwOmD9K99K/xrvRHn4yzF7h09h+5ufQP+WH8WLTvSv/a78e63Hkd/7sz9C+xcBWIT4+7/4Q+69eIH73XbvPfzDX/0xXYgfuvU+rvrPZeBHbz3LIuCv//wPuffiRe5327338IS/+ROKBMBw7k7+8vGP49+re9W3gX7Bv8uwwpfOAjD9/e/QnvIX3K9/zXdm81N/kuH3fpT2+D/Eu/eh2rP1hb9F/2pvx/g7P8h/CAkQL4r3f6+bODpqPPjFf5ff+8Nd3uB1TvGCfPrnPZlP+ewn8/O/dJZXe/0/AeBDP+AW7js78IiX/n22twrv8x438qhHbvIWb3KGF3ulP+BHfuIe3u89b+JfEvVG6vxluOqq/4EAkG3z/8j5w4GX/crf5bbdJf9VfukDXokfuu83+N6n/gX/lf7iLT+ak7MNAP7w3lt5t9/9Qf6z/PlbfDSP1jcyrf6E/022rvk21t/0hXSv+OZ0r/zW/Ec7+qr3pj3xj/kvZ4gbHsbmZ/wsROHf6k//9q+5ePetbIZ4blOafVWwOaZGSPzA0+/jO55yD1fB9TvbfOgrvQyv1MHvjeIrfvsPORpH/qMI+KyXfBCvee0xxjQHqpRsbAdIPI/9hAc//DE85mGP5N9q+K3vY/0jX8D/Zt1rvBPlbd+Aowufxf8Ohc3TX0ydvSxXXfU/EACV/2dObfb8/Pu/Im/0rX/M3Xtr/i97uZ/9aq76/8YA6PRNLD7kGyEK/x61jWyGeH5qiBM0EDz+0pLveeq9/On5fa76r2Hg8/7uNt5q9yRvedNpbtkUFF6g7YAuG/8e/eu8B3n+LsZf/y6u+q9QWBz/GOrsZbnqqv+hAKj8P/QS1+/w1x/3WnzN7z6NH/2bu3nKuUOu+n9MYv1jX8z6Z7+W/3BtQjun+U/nxIeXiJseTffyb0L3mu+M5lv8e33vbef5xj/4W676n6nZ/ORt5/nJ287zovj8NznNJz6Cf5f5238S9TGvyvg7P8T0hD+EYcX/KhIg/ieTNqmLV2G29faU7hFcddX/YABU/p+6ZmvGF7zpY/iCN30Md15a8dRzh6TNf4aXvGGHB1/3erzPI16B/6seeewMc94fb70j/5tEvZ7Z23w8PtzlfzPVjrjuYWjzGFdd9Z+tvthrUF/sNWAaaXc/BR/t8b9FHL8GzU6yefor+J8oykmi3gQEV131vwAAlau48dicG4/N+c90cuMaHn38Gv5veyj/G5WbHsVVV131b1A7ys2P4X+jOntprrrqqn83ACpXXXXVVVddddVVV131rwdA5f+xluaPn3GRv7zjEheOBv6zvNvL3cTfHT6dv71wF/9XfcCjXpkz/BltuoP/TWabb8n0579Hnr2N/9UUaPsk9WEvS9z4SK666j+b9y8wPeEP8fk78TTyv0V50IsTj3kow9Fv8T+RtCDqDdT5yyEtuOqq/+EAqPw/9TN/fw8f/3OP4ynnDvnP9koPOsFP3/d3fO9T/4L/q9785sdyTL/BtPoT/jfpFq/B+Cc/C8OSOHMz/9HarX+HD3f5LzENrFeHlIe8NP2bfSj1sa/OVVf9R/PBRdY///WMv/vDkI3/bbrXeCfKwyvr/e/lfzJpg9n2O9NvvQNSz1VX/Q8FQOX/oa/6nafxcT/3D9hcddVl3au/A90rvzX/0Y6+6r3Ju5/Kf6X21L9g+XUfwPw9v4juVd6af4+3vfEEr/7qj+aF2RsbT9lb8lO3n+OpByuu+q/1Uic2ebMbT/LQrQUbNXhhHnn9cf49fLjL0Ve8B3n3U7jqP5d9xGrvO5mGx7F58nNBhauu+h8IgMr/M3/8jIt8/M/9AzZXXfV/lMDJ6vs+jfrYV0PHzvBvtSiF6xY9L8iYZqurPHJnwRvdeIKve8Jd/Owd57nqv8YHPPw63uUh1wCwStPSbNbg+THQRfDvsfreTyPvfgpX/deZVn/Mav/7mO+8N1dd9T8QAJX/Zz71F59Amudroyu888vcwI3HFvzc4+7hr+/cA+CNHnWGV3nQCf7ijkv83OPupUh8xhs8gq/4naexv574j/JJL/E6/PDT/5pnHFykKvj0l3p9AP7gvlv5tbuexP3e/5GvxPUbO/zC7Y/jL8/fCcCb3/xYXv7UTfzBfbfya3c9iRfmfR/xityyeZxfvOPx/Om523ns8Wt51WsezLc/6U944xsfRdr86l1PAmCnm/Ea1z6UX7jj8fx7/fKvneOv/26f13y1E7zqKx3n4u7It3znHQCcOF5513e8nu2tyi/8yln+7h8OAHjQzXPe5R2uB+Anf/ZenvSUI17/dU7x8i+zw/3uvHvFbbeveJVXPA7AXfes+YmfvpdaxTu93XWcPNHx7zX8xvdQX/w1iWsfAsD0uN+nPe2vAYhrHkT3im/Bv1dc8yDqK74FZGP6s58nz94OQH3J1yVueSztKX9Be8IfAVBf7k2I6x9Ge8If0Z7yFzwvQZsYfuXbmL3jp/Jv9Qov8/Lcu/twnvC4v6YcXuJ+SwcPfbGX4WE33gTAE5/+VG570t/zkY++kduP1vzVhQOu+s/1Zjee5F0ecg1rVW551EvwiJtvBsSTb38Gtz7ur1kEz+JjZ3jJF3spjm1u8m/VnvbXTH/zG/xnKI95VcrDXhZWB4x/8BN4uc/9tHWS7rXflfE3vgcv9/mv9ju/f4E/+tNLvOLL7fC6r3WK5arxNd94GwA725V3fvvrOHmi4zd/5wJ/+heXADhzuuf93vNGAH75187x13+3z6u98nFe41VP8A+PP+Dnfuks93vwLQve+e2v44VZH/wYs623RbHDVVf9DwNA8P/IucOB333aeV6Qb3i7l+BNH3Mt5w8Hfv2DXoVHndni9R5xmu98p5fm9ksrvuwtH8vbv+T1lIDPeqNHsT0r/Ed58ePX8cUv/2a8x8NeDoAawWe9zBuy2fV89Su9FZ/+Uq8PwKe85Ovyfo94Re5d7vPrb/RBPGTrJO/w4Jfia17prdif1vzE674XL3Hiel6Qj32x1+SDH/0q3LXc4xff8AN45M4ZHnv8Wt7vka8IwBvd+Cje4MZHAvD5L/vGPOMdP53Pfdk34t/rp3/+Pj7pM5/EtWd63usD/44//6s9Ll4c+bKvvhWAX/71c3zQRz6O+/3uH1zkl371HPf7nh+8iy/6iqdz6mTH277rX/MPTzigNfOO7/U3vNyr/zE/+bP3cr+3eIe/5M67V/zm717g4z/tifx75YW7WP/YFzH+/o9xv+lPfpa844n8R4prHkT/Wu+KFttsfMIPUx75inSv8GbM3v4TYVyz+JBvIK5/ON1rvxv9m3wQTAMbH/Wd6Pi1PF+C8a9+jX+va48f57Ve9bWZ5lsAjGle8uVfjYfdeBP3e9RDHsYjXvLlEfAeD7mGq/5zCXivh17LOs1Lvvyr8YibbwEEwCNufhAPf/GXw1yhY6d5jVd8VY5tbvLvMf7Vr/KfpT76Vakv8drEDY9g4zN/Fm2f5H6zd/hkZm/+4bDY4r/ab/3uBT7wIx/Htdf0fMQnPIHf+O3zrJbJF3/l01kPye/90UXe9X3/lvv92V9e4id/9l7u9wu/cpaP//QnceZ0z3t90N/zh3+yywP9xm+f52/+fp9/kVeMqz/hqqv+BwKg8v/Ik84e0NK8IFuzyrnDgR/6qzv5o2dc5MLRwMe99kP5/r+4g+/4k9v427v2CPGf4u0f8pL86p1P5G0e9OJ8/t/8Ovf7ir//HX7utsfxM6//Pnz+3/w67/bQl+XT/vKX+Jnb/oE7DncBuPXgAu/829/PX56/gw961KtwzXyLF+TdHvayfMnf/RY/+vS/4baDizQnALOoPHjrBDv9nAvrIwB+4hl/x19fuItPecnX5d/rJ3/2Xt773W/kfd7jRl75FY9zbKeyWjWiwCd/7EP43T+4yAd91OMAeLM3OsNf/c0e954deJd3uB6AX/2Nc7z3u93AB7z3TfzBH+/yy796jsc8cpNP/fiH8siH38N6nQCs18nHfcSDece3vY4f/NG7+YmfuZd/r+kvf4XymFdj+qtfY/Z2nwhAXrybuOnRqJ9TH/Nq/EfxwQXWP/GleLlP/9rvxvCr38HyOz6evP3xdK/+jmj7JHnHE1h91yeR991K/3rvjTaP4917eR4GX7ybO57xDCabf7d+E1YH5MY21548yXN78PU38rh/+Bte4sQmVWKyueo/x40bM07PO7RzijPHj/PcHnLjTfz93/8lJ8K0mHHrrbfy73Xqzifzn6k94+9Z/+Bns/io76B7+Tdl+K3vpzz21dCx0+Dkv8NP//x9vNPbXcf7vPuNvMarnKDvg/t9zIc9iNvuWPE6b/pnALzua53kiU8+5A/+ZJf3e88bAfjlXz/HO7z1tbzfe97IPzz+gJ//5bN84Wc9ghd7zBbjZL7/R+7i/d/rRl4UOd3GVVf9DwRA8P/I0dB4YT78J/6O05s9T/qU1+X9XukWLhyNbPaV/fUEwJ/dvsuf3LbLf4a3e9BL8EV/+5s8bPsUD946wQM9/eACx/sFs6hsdj2H0wDAL97xBJ5+cIE/O3c7f3budj7pJV6Xe5Z7/PY9T+EF2aozDsY1AL985xN56v55AB57/Fp+600+hLd/8Etyv786fydTJv8R9vYnThyvfM8P3MnXffMzePwTDwBozXzIRz+OD/qox/Ee73w9L8jBYWNzswBwbKeytz8RIV76JbZ5oNkseNd3vJ5z5we+5Kufzsd8+IP495r+8lfpX/fd8bQm73wiAOVhL0ccv4721L9k9T2fwr9WefQrs/kFv8Hs3T4HnbiO2dt/Eg/k3XvRzmnarX9LPuPv6d/kg/CFu2hP/nPaU/6CvPOJzN76Y2lP+yvyzifyfEkArFdHrFYrVqsVq9WK1WrFarVitVqxWq1YrVasVitWqxWr1YrVasVqtWK1WrFarVitVqxWKxpX7Gxu8YJ0/YwisVGDq/7z9CEAthYLXpBSOwBCsFqtWK1WrFYrVqsVq9WK1WrFarVitVqxWq1YrVasVitWqxWr1YrVasVqtWK1WrFarfCw4t+tn7PxKT/Oxif8IHHTo+nf/MPR8Wt5IF+8F7ZPQz9n/g6fwvoHPhsAzH+5/YOJE8c6fuyn7uErv/5W/vrv9rjfx33KE3m39/1b3ufdbuQFOThobG0VAI4fq+wfTNzvx3/6Hl7sMVs87CEbvEg8cNVV/wMBUPl/5BGnN3lh3usVbubDfvLvsOEPPuLVeMNHneFgPbE9qwC80aPOAPBbTznHf6RH7pzhxU9cz+e/7Bsjibd90EvwjU/4Q+734K0TnF8fss6Jg3Fgq84AeP9HvhJ/eN+tPG73Xj7gka/Eez785Xm1X/g6ms0LcjCt2epmALz3w1+evzx/JwB/deFOXuXnv46vesW35D/D9lbl/PmRt3jTM/zoT93LE550yEMetECId3un6/mID76Fxz56ixfkxPGOCxdHAM6dH3jYQzd4Qc5fGHnLd/orPv4jH8xrv8ZJ/j28ey/taX/N8IvfDMOK8a9+jdmNj6I+5lUpD31p2kNfiuV3fgL/WtrY4egr3oP6Uq/Lxkd9F8MvfwsPpFM3kRfvAaB7zXeme4U35+hL3wWcAPRv9AGUh78cR1/xHrxgRosdHvaox/AfYfkPf8vhHpw7d5bnZ5gm2tE+F1tjb2xc9Z/n7tXAlObOu+/kpV7y5Xhuq3Gkjmso4vixHR798Efy77X6i4cyPuXP+PfQ9imGX/pmvHeO+Tt9OnnxHrx3jgeK0zfTbv07uld+a7Rzmvl7fD4omL3lR7L6nk/hv9L2VuXCxZG3evMz/MTP3sdf/+0+r/EqJwB4h7e5lo/44Ft4yRff5gU5cbxjd3cC4Oz5gdMne+73Nd94G1/02Y/gRaVyA1dd9T8QAJX/Rx50coOXv+kYf37HJZ6fl75xh9d86Evxl3dc4sSi47bdJd/z53fw4+/1cqymxge9yoP54B//W+73sa/1MA7WE2cPB77hD27l3+rtH/yS/PQz/p6P+dOf4a0f9BK87YNenG98wh8C8Fkv/Ya86U2P5jP/8lcA+O6n/Bmf/lKvz6te82A+5NGvwov/9Jfzhjc8km961bfjO5/0p3zEY16d37v3afzG3U/h+fnuJ/85n/wSr8vLnbqJD330q/IyP/OV/Fd4p7e7jk/+zCcxTuYZty2ZzwsAUeDVX+UED/QLv3KWP/yTSxweNn7ox+7mXd7het7xba7l4z7tSezuTvzBH+/yBZ/1CF6Qt3/3v8bAvfcNfPFXPp1P/tiH8EJJvCDjX/0a5dGvzPw9Po/2+D9k+K0fYPbmH876p78Knb4RDi9RH/ay/GtNf/mrAIy/9f2Mv/X9ANQXfy20fZLZ234C3au8DUdf+37UF39N5u/62Yy/9yN0r/setCf/Gdo5zextPo7hN7+P/g3fj/a436c97a95XqK+zBvwH+GO++7l/B1PYx5iW43f/4s/5dVf7hV5Fps/+os/ZquIH7n9Ilf951pOye/ft8drX3eMP/rrv+BVXvrluF/L5E/+4o/ZKALgnqc/keuuuZbTO8f496gv84aMv/cj/Hv4/J1M5+8E4Ogr3p0HKg96cebv+YXo2BnGP/1ZAKZ/+D0Atj7/1xl++wf4DyEB4kXxdm91Le//4f/A5mbhqU874uVeeof7vfIrHmdnu3K/3/ydC/z6b5/n9jtWfMf33sn7veeNvN1bXsN7f8jfEwE//0tn+dkfeRkAfulXz2Gb13nNk7xogm7xalx11f9AAJTP/uzP/mz+H7nx2Jwf/Ks7eX5+8m/vJkLszDs+7mcfx+PvO+D23SV/cOtFHnZqk2/8g1v5+cfdi4FbLyy572BgdzVx9mDgCfcd8IK8+8vdxN8fPp2/uXg3z08flZ+/43E8ae8cT9o7y8G05q8v3MXT9y9w59ElvvjvfotfuvMJAPzRfc/g/PqQY/2cT/qLX+SJl84yL5W/OHcHtx/usjssecbhRe5e7vO1r/TWvONDXoq3vuXFedTOGf7gvlv503O3ce/ygBOzDT71L36Rf9i9l8Np4Am79/HkvXNcXB/x97v3cNfRHgBH08ATLt3Hk/bO8sJ84KNemdP6M3K6k+fnkQ/f5NVf5QRnzw2849tdxzu+zXXUTjz8oRu8+GO3eaALF0ZuvmnOy7/MDtde0/PQB2/wiIdv8kovd4yDw8YXfc4jedDNC+534njHYx+9xQ3XzwFYzAuv9PLHOLZTObZTeYkX2+YF6TffkvZnv0e58ZGUmx7N85jW1Jd4Lcr1DyeueTBabFFufCT15d4Y75+nPOzlmL3RB0CpPD/jH/80Pn8HLwoPK3z2dvK+W1n/xJfi83dC7clb/w5fvAeW++S5O/DRHvm0v8Z7Z2G5T567Ax9c4DkYECw+8KvR5nH+rZ5x9108+SlP4J6nPo5ZiGdZHvDUO+/gYLXi7Pmz/N3f/RXdcp+nH6z44r+/ndHm/7vt2YxXuOl6bipwW4o/uvV2xkz+ozxu74jXu+44s9UhT7/nbvaXS86eP8vf//1f0q8OuF/F3H77M9hfLSEKWxub/FvEmVtoj/9DfPFu/qP56BK+cBftqX/J+me+CoYlTCMs92G5j8/fSXvyn0Gb+Pcqt7wY8ZiHMi5/m3/Jg25Z8Iavd4r7zg68+Ruf4T3e+QZqJx76oAUv9RLblCLut3tp5Mzpnld+heOcOd3xiIdtcsvNC177NU5y8eLEZ33Kw3nMo7YAOHd+4K3f/Bquv27Gi6LffHP6jdflqqv+BwJAts3/Mx/3s//AV/7O0/iv8ksf8Er80H2/wfc+9S/4r/Rq1zyYLgoAF4clf3PhLv6z/PlbfDSP1jcyrf6E/022rvk21t/0hXSv+OZ0r/zW/Ec7+qr3pj3xj/kvZYPE7K0+mv5NPph/j7/8qz/j6Nxd/EsM/PY9u3zV4+/kYGpcBdfvbPOhr/QyvFIHvzeKr/jtP+RoHPmP9KDNGZ/2Erfw8O0FL4rrHvxIHv6Ix/BvlRfu4uiL3gHvn+d/q+413onytm/A0YXP4n+D0j2czTNfizTjqqv+BwKg8v/Ql7/FYzm+6Pji33wKR0Pj/6o/uO9WrnoRSEx//evkuTv4j+bzd/BfTdun6N/8w+lf+1359/qbS0v+8Kn38sLsjRN/ceGA2w7XXPVf6xmHaz7wj5/MY45t8GLHNtishRfmLU/ezMP5t4uTN7DxiT/E6js/gfb0v+F/JQkQ/xvU+auzceITkGZcddX/UABU/h+SxGe8wSP5iFd/CL/wuHv5yzsvceFoxOY/xY3H5rx6PBRJ/F91ar5B5WVRHON/E8U29TGvSt75RHz+Dv6jlUe8POURL89/OhW0fZLysJelPuZVoZvxH+FvLh3xPU+7l6v+Z3v8pSMef+mIf8kjHrXkLfj3iTO3sPFJP0K77XG0x/0eef4umNb8b1Ee+lJEvYZu4w35n0haEPVGuvkrE/VGrrrqfzgAKv+PHV90vNvL3cS7vdxN/Gd7ietfiQ945Cvxf9vb879R//rvw1VXXfWvU255LOWWx/K/1caJT+Kqq676dwOgctVVV1111VVXXXXVVf96AFSuuuqqq6666qqrrrrqXw+AylX/5S6uj/iKf/gdfva2x/HU/XMcTSP/2/3VW30sj/DXM63+hP9Ntq75Ntbf/EW0f/g9/ldToO2TlIe9LN1rvjP1Ma/KVVf9Z8kLdzP8+nfS/uH3yPN3wjTyv0X3mu9MeZs34OjCZ/I/kuZEvZFu/urMtt4WxRZXXfU/GACVq/5L/dQz/o73+/0f5eKw5P8Um/+1bObv/cV0r/zW/Ec7+qr3pj3xj/lP58R7Z5n+6leY/upXKA96CRYf/q1o+yT/Hi91bIP3eui1vDB748ST91f8w+4h5qq3v/kaAE5sbvLI7Q1YH/HYnU1u2ZjxhEsj/9GqxEue2OShW3M2a+GFeczOgn+v4Xd+iPVPfAkMK/5XsgHzP5ZX5PhU1uNTGQ5/msWJT6WbvzxXXfU/FACVq/7L/N49T+Odfvv7GbNx1VX/8cT92q1/x/KbPpSNT/whQPxbvdSxBY942LW8KJ5w6YjP+7vbuHs58P+VgHe4+VoA5vM5t2xvcG59xIsd2+TmjTlPuHTAf6RH7iz4tBe/hZs3Z7worttZ8O8x/tkvsP6hz+Gq/xrOSxxd+Ey2Tn8NpX8EV131PxAAwVX/JaZMPuSPfpIxG/9efRRu3jzOA1UFD946QZH4l3QR3LJ5nBfF9Yttdro5/xFW6+S2O1Zkmn+L9ZDcfseKF8WFiyMXLo78Z8sLd4HNf6qo6NSNoOBZoqCTN/ACSbSn/hXTX/0a/x6nb7iFYzc9lGWaB7KhO36G7Qc9iu0HPRK2TvDoYxt89cs/jBN95f8rY57whL/i7ntu557dixys1wDs7p5j79J5AB67s8lrnTnBa505wWudOcFjdzb5t3jI1pyvevmHcdNGT3/8DCce9CiOP+hReOs4z23p4PSDHsHWqWv4t/LygPWPfgH/1XTiOuhm/HcZx+S225dMk/m3mCZz2+1Lnltr5q67V/yLvGZ56asBc9VV/wMBULnqv8Rv3v1k/mH3Hl6Qrdpz9l0/h/f43R/ix2/9W+alsnzPL+b2w10Op4G3+Y3v5gmX7uNVzjyIH3vd9+TSsOJoGnjNX/xGbtk6zu+8yYdydnXIvFRe/ue+mkvDiufn5U/fzM+83vtwcThiyuTVf+HreeObHs3Hvfhr8So//3V81Su+Jc3Jx//Zz/Mzr/c+PPb4tVyz2OLdfucH+PnbH8+/1d33rHm9t/hzbrh+xu7uxK/81MtyaW/iZV/jj7nlpjmrdfIln/sI3uYtruUzPu/JfM8P3U1r5k3e4DTf/vUvxjNuW/KO7/U3bGwUzpzq+d5vewnms+AXf+UsP/mz93HTTTM++1MeDsDXffNtfMO33YYN7/kuN/Bpn/BQ/l2mkYNPeFVmb/+JdK/2DgB4916OvuGD8YW72fqi34Z+zr9XffHXZPEh34iP9mi3/h3Lb/to4tQNbHz0d+PlPgBHX/yOsLHDxsd/PywPYLbg6IvfER9c5HkIht/+AerLvCH/Vrdcey1cey3XXn8Tf/Mnv8siuGz7QY/kpR/1GJ7tMfzBX/05Z87dyXs/7Fq+6vF38p/hOBOvp33+o/2mt7lI5T9Cd+leji7dS1w8xnRmB8omebhLTAPQ8aontnjdG85QJAB+8+6zPG7vkH+tD3/UDSxKsH3Lo3ipRz2aZ3s0f/RXf047dycAQ+l5pVd+LXY2Nvj3GP/sF/D+Bf4zzN7m4+le611gGhh//8dZ//RXQOnY+KhvR1sn0bFrWH7zh9Oe/Gf8V7q4O/L6b/HnnDzRcc+9A7/4ky/L1kbhIS/xe9x044z12nzaJzyE9363G/mKr72Vr/3m2xjG5FVf6Tg/8f0vzX1nB97hPf+GWkTXiR/93pdiZ7vyN3+3z7u//99x5nTHb/7CK/AvacMTaMPjKf1jueqq/2EACK76L/E79zyNF+YtbnkxDqeBt3vQS/BAr/hzX8O3PvGP+f7XfFcAPvtl3pAv+pvf5MV+6ss4uzrk1a59MK96zYP5yn/4XV7ip7+cw2ngNa59CC/IZ77UG/BV//A7vPhPfTnPOLjIa1z3UJ6bgZs2jrFROx7zk1/K5/71r/HuD3s5/j2+4mtv5U3e4DS//rMvz7u90/U88SlHAHSd+Ns/flW+8osexed+8dMA+LzPeAQf+N438rZveQ3f/vUvBsCXf92tvPHrn+a3fuEV2D+Y+JGfuIdxTL73h+/mnvvWHB427hcBv/ozL893fdOL88M/fg//XtPj/wCiMP3lr3G/1Q9/Pt3LvhGbn/4z0M/5j5L33crBJ7wq5MTszT+M8vCXZ/jV7+Dws98UslEe9jLE8WtZ/+SXc/h5b4kPL1Ee8fI8f6I95S+hTfx7XXP8BNc+6GEA7KnjpR/1GJ7bK73ky7DfzGtde4z/LAuSl4sjXi6OeLk44uXiiJeLI14ujni5OOLl4oiXiyNeLo54uTji5eKIl4sjXi6OeLk44uXiiJeLI14ujni5OOLl4oiXiyM2SF6QmxYzXuvMCV7rzAle68wJXvnUMf49Dm97PE/7s1/jH/7yd3ncX/4Oe894HP9ax/vKS5/YYk+Vl3rUo3lur/CSL8NRMwDXPOgR7Gxs8O/Vnvyn/Gca//TnOPyMN6C+4ptRX+J10PZJpr/7HQ4/7y0Z/+RnqC/1evxX+8Zvu52XeLFtfu1nX56P/JBbeMKTDrnfH/76K/E93/LifMbnPwWAj/vIB/PJH/sQXu+1T/ET3//SAHzTt9/OS77YFr/x8y/PyZMd3/G9dwLwgR/5D3z2pz6MH/u+l+JFNa3/hquu+h8IgMpV/yXuXe3zwrz9g1+Sz/mrX+PzXvaNmJfKA/30M/6er3zFt6QqeMTOaZ64dx8Ab/pr384DPfrYNdywscOfnr2dF+QRx07zLU/8IwDe6je+C4C3f/BL8rDtU3zXq78Tr3jmFn7xjsdzx9El3uBXvpWQeIubH8sPPu2v+Pd46q1L3vJNz/CkpxzyCi+7w4NunrNeJ9ng9/7wIr/2W+e5+aY5L8gdd6552ZfaAeDhD9vg1mcs6brgh7/rJfn0z3sy63Vyvw/7wFv4lu+8nW/77jt5v/e8kX+v6S9+mf6NPoD1L3wjPtpHswXT3/0WPrzI8OvfTfe678nszT6Ufw1t7NC9xjvRnvIXtKf+JXHzY3ig6e9+m+4V35L1T345AHH9w9H2Sdoz/h4fXCQOd1l8yDeg+SbtCX/MC9RG/uiP/5hhavx7XRwHTgPXnDrN81NLoS62WAyH7HSFvbHxf8GD+sL7PeR6ZrUA8NSLl/jj85f49wgn8/EIALzgX+v0rEOCG89cx/NTS6H1c2hrnva0p3H+jjv593qJs3fR8e/XvfJbQ+0Y//AniVM3knvnuJ+XB7Qn/Rnx4Bdn+rvfYvi172L+fl9GfdQrc/Q178d/taffuuQlX2yLp916xGMetcktNy243x/96S6/+wcXefAtC16QZ9y+5MUevQXAIx+2wTNuW/Lkpx7xtFuXfN8P38WHfdzj+eavfixv/ebX8C/JvMBVV/0PBEDlqv8Sp2ebvCBbtedNbno0f3TfrRxOI29446P41TufyP36KIzZMJBASDy3h22f4lfe8AN419/5Ae5bHfCC2CYkntvZ1SHf85Q/Z6ubcb+Q+MHXejeesneOb33iH/NCSWBeoBIwTeaP/mSXL/+6Z/DB73sTb/IGpzHmh37sbk6d7PmWr3ksL0gpkMllmVCKeGFe89VOcHDQ+JGfvIeP/rAH8UJJvEDTyPQ3v0F35ha0fZLp736T+lKvD21i8X5fQbvzSax+8HOYvdmH8q/Rv/EHQhTm7/wZ5OEurA4Zf/9HeZZScRsBiDO3sPjIb2P57R+LDy4C4L1zjL/9A8ze/XOJB78k7fF/wPMyROFVXvmVoVT+vf7myU9k/9YncHFvjxdkvV7R2RxOyf8Vv/vrv87vftavceza6+j6nnMXL1I+8GP577Q7TABcPNjnBWnjAAGPfPRjePTNN/PvtXzyTzPdyr9L3PJYuld7e/Kep9G9xjujreMcfcHb8hxqD61xhRl/70fRYof6sm/IcOcT+XeTAPGiiAIt4S/+ao8v+apbecs3PcNHfNAtAPz4T9/LieMd3/utL8ELUmuQyWWZUIrY35/Y3qr8+Pe9NN/yXbfzAz96N2/95tfwL1Gc4Kqr/gcCILjqv8RrXvdQXpC3uOXFOL865MWOX8fth7u8/YNegvvdvHmcT32p1+NnbvsHmpO/On8Hb3Tjo7h58zh3vtNn8jrXPYwbN47xa2/0QXzjE/6Qp+yd43i/4AX5qwt38YY3PoqbNo7x9Hf4VN74xkcBsDeu+O17nsodh7vc75tf5e24efM4X/y3v8VNm8d4oWxemJd+yW1+6dfO8bZvdS0PunnO/UoR3/hVj+XzPuPhXH/dDIDzFwYu7U0cHjbuPTsA8OKP3eb3/+giR0eNP/7TXV7yxbd4Qd7lff6We+4deOmX3OaOu1b8i2xekOnxfwC1x+duI45fw/SXv4rmG+jEdbRb/448exvaOs6/1vonv5z1j38Jh1/yTgw/89Usv+PjuKx0xPUPp3+Nd6b9w++hE9ex+OjvYvzN7yPP3YEW23Sv9Jb0b/5htDufjPfOEyeu5fkT5aEvC6Xy7zVMExfuvBWAujrgzrP38dyeesdtHKPxFxcOaDb/Hi93YpsfedWX4Ede9SX4opd8GP9VPvaRN/Mjr/oS/MirvgRvcv0pAMA4k9277+LsM27FaQBOdIUfepUX50de9SX4wVd5cXqJ/yrn1iO3HqzIg13uOnuW5/aUZ9zK8TAA9932VP4jlIe/Av9eedvjOPqKd2f1A5/J6rs/iaMvfzd8dAkAzTcpj3gF6ou9Ou1xv0/c9GgWH/IN5L234vN3ECeu5z+EDZgXxUu++Da/8uvneKPXP82jHrnBA33FFz6KL/28R/KQBy0AuLQ3cXF3ZLls3H3PGoAXe8wmf/xnuyyXjd//o4u85Itv89AHL1itkyc86ZDb71hx8kTHi6L2L85VV/0PBEBw1X+JN7zhUTzm2DU8Pw/ZOsnn/vWv8T6//yN88B/+ODv9nLT57Xueype+wpuzOyx5/z/4UQA+7k9/jkfsnOG33uRD+N6n/Dm/dc9TedVrHswzDi/yxjc9mu96jXfm7R70EgC86jUP5rWvexivfd3DeKmTNwDwCX/2c9y8eYzfedMP5cee/rf88p1P5OzqgL86fycAT90/z9P2z3O8X/CIY2cYsvFtr/4OfNUrvhX/Hh//kQ/hzOmeN3yrv+DkiY43ecMzzOeFV3vl4zy37/uhu3n8Ew+57+zA13zjMwD4hI96MMePVd74bf+C93n3G3nLN72G+z3kQQse9pAN7vf2b30tn/H5T+GzvuCpfNvXvhj/HnnfrfRv9AHM3+uLmb/75+NxDZks3uuLWP/s1zD+wY8zf7fP5d9sGmhP/xsY1/jwEt69l/k7fwbjn/08w69/F+XhL4fP30l9iddm8V5fRH2ZN2B63B8QJ65n4xN/iLzziYx/+nO8IP3rvzf/Xk+7+27+8A9+k25cAdCFeNxf/TGPf9pTOFqvmVrjiU97Ck/7h79kdPKdT7mHf6/V7n087i9/m7//q9/jjsf9Cf9V7n3K3/D3f/V7/MNf/S7799zKCzONA0/6i9/i7//q93jyX/wmzsZ/pW978t10If7hr/6If3jaU2iZHK7W/M0THsfTn/DX3C+OLvH7f/J73H3hAv8e3Su9Bdo+yX+UvPsp+OI9AOS524nj19K/yQez+u5Pot36t+RdTybP3s7Gx38/On0z65/7Wv6rffD73sxLvcQ2b/CWf04mvP1bX0ut4tVf5Ti1iAf68Z++hz/8k13W6+QLvuxpAHzI+93MYx+9xRu+9V/whq93mnd/p+s5frzjyz7/kbznB/0df/+4Az7rkx/Gv6T0j6bOXoKrrvofCADZNlf9l/jD+27ltX/pmxiz8V/ha1/prdnuZgA8fvdevvTvf5v/LH/1Vh/LI/z1TKs/4X+TrWu+jfU3fxHdK7wZ3Su/Nf/Rjr7qvWlP/GP+65nysJdl4xN+iH+Pv/yrP+Po3F28KA6nxhf+3W380bl9/r1eTEveLS4AcLcrX5fXAnA9Ax9RzvIf7RvaGe6k593jPI/VCoBfzB1+39u0P/sD/Du/yrNs7VA/+OPYpvEp5R7u91nT9YwSX1juAmBr5xgv8YqvyVQ26doBn/Jbf8ofDR3vogu8RCy539/lgh/ySf4t3u6W03zYo27gRXXdgx/Jwx/xGP6txj//RVbf/rH8b9a95jtT3uYNOLrwmfyvoBlbp7+G0j+Cq676HwiAylX/ZV71mgfzI6/97rzLb/8A65z4z/aRf/LTXPX/iA0SAOVBL8Hig7+Bf6+Dlty3HHhh9saJv7hwwI8/4xwXh4mrXrjZDQ/j1HVn2Ox6DseB2T1n4c6L/Fv8xG3n+JuLh7zFTSd5sWObbNTghdlpyb9H9/JvivfPs/7RLwSbq/6Tac7Gyc+i9I/gqqv+hwKgctV/qbd50EvwxLf7JL7liX/Ez9z2Dzxu916u+u+3+u5PZvXdn8z/ZtrYoTz6Vehe6S2oL/l6EMG/10/eeZFv/IMncNWLbjXf4eSJ02wcP0W3c5rpaEXOtkgFAE9YJQf37XK/O1bJv8dT9pd81ePv5EXx+ds38JKP5t+lf533oD76VRl+74dpf/c75NnbuOo/kojuIXTzV6PffHOinOaqq/4HA6By1X+5B22d4Atf7k35wpd7Uw6mgXOrA/63u2HjGB2fgHPN/yZRTrN4ry/C44r/zVQ6dPxa/q+IfoOta0/h2lMvXYLzBqAhLrrwH60hAGbHrmHr+CZkw/cdwBJe4VVfjXd7r3fh2u1tjsaRv7ntdr7h3JKIwuYND8P9gmm5D3eNCPFiL/WqAMznczY3tlgerTh9+jp2Tl4Ld5/jj89fgvP8rxbXP4z5O34avOOn4aM9vNzjfwvNN2G+YPvaH+B/IpXjSHOuuup/CQAqV/232qo9W1sn+b/hBAr+19HOacRV/5NciJ7f9RaMcKk7AVwA4D46viyv4z/L48sWl6YZAGergSP25xv80f4K9lcAHHWbwJJBwe+xAwNQTpI6i21++76LABzb2ECnzjAHbj1cct964P8ibeygjR3+t1G9jquuuurfDYDKVVddddX/MHcu1/z47ffxX+0Pz13iuT15/4gn7x/x3JYt+fHb7+O5fdNT7gDg+p1tNq+9jlfq4M8u7PPk/SVXXXXVVf/HAFC56r/Fky6d5RfueDxP2TvH4TTwv93nvuwbc61/nTY+lf9N5jvvy/RbP0/e+UT+V1NB2ycpD3tZ6mNfDWrPVVf9Z2q3P572D79Lnr8LpjX/W5RHvRLxci/O+uAn+Z9IWhD1Rrr5qxL1eq666n84ACpX/ZfaG1d8xB//NN/3lL/AmP8rPvqxr8Ep/pJp9Sf8bzLbegemx/0B6ufETY/mP9r0xz9NnruD/xoGQKdvZv7WH0d9+Tfh32urBtfOO16Y/bFx1JKr/ntt18JGDV6YjRL8e3nvHKvv/0ymv/1N/leqM3ipM4xHv8r/ZKtL30y/+WbMj30Q0oKrrvofCoDKVf9lLg0rXunnvoYn7p3lqv9Z6ku/Pt0rvzX/0dqT/xzO3cF/DQHgc7ez/PaPpr/3acze7MP493jbG07wxq/xGP4ldx6t+fFnnONn7jjPVf91qsS7PuQMb3bjKc7MO/4l111/nH+PPHcHR1/6znjvHFf9Z0uGw59jGh7P1pmvQZpz1VX/AwEQXPVf5kP+6Cd44t5ZrrrqP5cAGH7u68h7b+XfY4zCqiXPT9rsN7PfzA2Lno96zI182ovfjLjqv0If4ste9iG898OuY6uvHNQFe9GzTvP8XGyCfs6/x+o7Px7vneOq/zo5PoXVpW/iqqv+hwKgctV/iSddOsuPPP2veWG+6VXejq97/O/zuN17qQq+7dXeAYA/vO9Wvucpf86QjVmpfM7LvCGvcPpmvv8pf8l3PeXPCImPfuxr8Ba3vBi/cdeT+fy/+XVekD4Kn/XSb8grX/MgfuRpf823PumPefnTN/MmNz6Kz/ubX+ddH/oyTJn86K1/w6tf+xA+5SVfl4Nx4FP+4hd42v4FXiAJzAv1td/8DH71N87z2q9xko//yAdz9uzAZ33hUwA4dbLnQz/gZq6/bsb3/tBd/PGf7gLwyEds8tEf+iCmyXzZ1zydP/yTS7zve9zA27zFtQBMzfzu71/k6Kjx5m9yhgf69M97Mq/zGid5vdc+xQsl8S9Z/+gXUl/pLSkPenHy3B0Mv/D13E8bO8ze4VP594obH0X/+u8N2Rj/6KdoT/kLUNC//ntTX+K1mR73Bwy//C3crzzm1agv9uqsf/xLeF4Cm+FXv535e3w+/1av9FIvy/BiL8mf/NWfod37eJaNHR79mJfimpMnAbjzvnt5+hP/jte7Hv5u95CfveMC/5IC3NJX/q+6ti8cLwFKTpTgwbPKUuZf8vRh4kXxfg+/jpc6uYU3j/FKL/2K7GxsAHDf7kWe8Ld/RqyXAAxpbnjES/DqD30Y/x7T4/+Q9rS/5j9Dfbk3pr74a+HlAcNvfDc+fycA9RXejP7V3p5291NZ/8SXwDTy7yYB4kX1Hd97Bz/1c/fxSi9/jE/5+IeyXiWf8OlPBGBrq/Ih738zD3nQgp/6uXv5td88D8CNN8z5tE94KABf+83P4Fd/4zzv+DbX8Z7vegMAX/8tt/G4JxwA8Aave4q3eYtreWGGw19ivv2eqJziqqv+hwGgctV/iZ+/43GkzQvySmdu4YMf/SpcHI741L/4JWoE7/2IV+Bdf+cH+OBHvwqPOX4tH/unP8tXv+JbcdPmMb7s736b73vNd+VvL97NS5+6gXd56MvwaX/5y3z/a74rv3PPU/m9e5/O8/Olr/DmPPrYNXzp3/0W3/Ma78zfXbybGzeP8aY3P4bP+5tf5xVO38zk5Edv/Ru+7pXfmq953O/zUieu5+tf+W1501/7dv6tvuW77uCHf/wePv8zH8EnfvqTeKmX2OZhD17wIz9xLz/zIy/Nj/zEPXzAR/wDP/9jL8srv8Ix/uCPLnLx0sSHvNYpAL75O27nN377Ap/w0Q/mQz768dxw/ZyXf5kdHvNyf0Cmedu3vIY3f5Mz3O97fvAuvv5bbuf6a2e83muf4t8j734qw29+H55GyoNeHG2doL7y2wAw/eUvkxfu5j9CnLiW8shXZP3Dn8f8fb6E9Y99CTp2hvryb8rwi9/I/D2/kPakP6U97a/QfIvFe30Rzsb6x7+E50ti+pvfgPf4fP49+lp5jVd4Ff7gj34HH+xylObVXu5V2ZzPuN+N11zLfLHB3/zhb/BWN5/mZ++4wL9kHuIDz2zyf9XW5gYvsdExrte83GZHO7XBNE28MGn4tLsu8S/pQ7z5Tac4THjtV3g1Zl3H/a45fgK91CvxD3/yW1SJYzc8mEc/9GH8e01/85v8Zym3vDjaOEZ70p+x+Sk/zuEXvT1x8gbmb/eJrH7oc5m91UeTr/zWjL//Y/xX+rGfuodv+Nbb+bIveCSf9yVP41GP2OQNXucUP/hj9/Cj3/OS/PbvXeTd3u9v+cNffyVe+iV3+MM/ucTfP/6AD3jvmwD4oR+/mx/80Xv4vE9/OB/1SU/gmjM9b/wGp/mRn7yHN3/jM9x845wH37LgX9YYV39Mv/lmXHXV/zAAVK76L/GkS+d4Yd7uQS/B9z/1L3jbB70En/oXv8T9fuvup/CES/fxe2/6YXzsn/4sr339w/i4P/1ZfvnOJ/IGv/It3L3c59Kw5Lfvfip3Hl1i1UZWbeIFeZ3rHsZn//Wv8it3PpE3/NVv5ezygBs3j7HTzXnt6x7GTZvHufXgAgAv8zNfxcuduolXPH0z59eHvFA2L8xv/NZ53utdb+B1X/Mkv/xTL8usD86eG4gCr/4qJ1guk4/5lCcA8MiHb3LzTXP62cBLvNgWAL/3Rxd5+7e+ljd6vdO83muf5Ld+7wKv9PLH+OPffCW+6htuZb1O7nfvfQPf9O238zqvcZIXic0LM/3Vr9K94psz/c1vwLt8JppvUh/1SmCz/uHPYf4un82/hXbO4P3z4ORZhiXT3/02cf3D6V71bVn/+BfT/uH3yEtnYVzjcQ1A/9Yfw/TEP6I84hV5wYwPLvLUJz6B0fy7LV2YA4tjp9icz3hup7a3GfoFDwnRhxjSXPWf46aNGYsSLE5fz6zreG5njh3jgMpxGgergSc84Qn8e91w15MR/36abwHg1QEPlJfuY/yjn6S+zBvQvewbMf7pz3P0dR9A3vkk+jd4XxjX/IewAfOi+I3fucA7vM21vN5rneJlXnKHUkQ2A/DKr3icUyd7vuv77wTgIQ9a8NAHL7j73jUv81I7APzuH1zkLd/0DG/wuqd4izc5w2/93gXe+A1Oc9fda+69b+DgoPHGb3CaF0W2O7nqqv+BAKhc9V+iL4UX5u0e/JK8zW98Nz//Bu/HY49fy9P2z3O/C6tDNmtPH4V5qQzZAPjrC3cBcC8QEt/3mu/CH599Bn927nZekHnpWLcJgL+9cDf3OzPf5L0e/vI89vi13Hpwgfu9+c2P4U1uejRf8re/xb/HMCZ9H3zF193Kb/3uBd7vPW/kJV98m3E0L/nKf0hL81mf8jBekNUqmc0CgI1FYXnUADh1suO5fdJnPonP/fSH84M/ejf/Eca//BXm7/TptNsfR3v631Ae+tIATH/7WxAd5ZGvyL9Wffk3Zf5On0ZeuIv1z3wN3Su8GdNf/BL388EFtLFN3vcMUDB/vy9jevKfk7c/jvLQlyGueRDDz38D5RGvyAtkQDCbLyg2/17dbA6HUCJ4QSQB0EcwZOOq/xyTDUBm8gJJAPRdz3w+599LteffS1sn2PiUH0e1Y/2TX0559Kuw/umv4oF8uAuLbXzpPnzpPvo3/3CoHeNf/DL/1YYhmc8K3/Zdd/Azv3gf7/R21/Hmb3QGgFd9/T/BCV/wWY/gBVmtktksANjcKJw7PwLwsR/+IB71yE2+74fu4vO/9Gl85Rc9in9Z4aqr/gcCoHLVf4kXO34tL8jLnLyRh26f4m/e+uMAeJtbXpyv+Iff4X4vcfJ6nrp/jiEb9y4PuGa+BcBnv/Qb8rO3/wN/ef5OvuIV3oKTsw3e4te+kxfm3tU+18y3APi0l3w9fv3uJwPw1P3zvM/v/whf9YpvCcCsVN7lIS/NF/zNb/Bb9zyV73mNd+Gbn/hH/Ftdc6bn3vsGPuC9b+SP//QSd9295qVefJuuip//8ZflxutnlCJekGvP9Nx73wDAHXeteNQjT/H83HPvmp/++fv46Z+/D4Cf/vn7eMs3u4abb5zzb5H3PYO84wkcfcW7AzD91a9RHvrSAAy//p30r/ue/Fv44CKHn/1mxPUPo3+992b47R9AXc/9yi0vRt57KwCzd/xUNN9i+Y0fCkD3uu9BfeyrUx/76gDM3uFTWP/YF/G8hE7ewE0PehD/Ec5dOs8K2L94jqP1mo3ZjAe6sL9PWR1x7zhyMDX+NUopPPyhD+H/kvl8zonjx7nv3ns5dfIkj3z4w2it8fw87em3Mk4TL6o7jwYOp8bh+ftYjQPzrueBLh0espkjhOirePCDH8y/1/rmRzM87vf4d6kdq+/6RPKupzB7648hL96DL93HA5UHvTjtCX8EQPea70L3Mm/I0Ze/G0wD/9XOnO655741n/yxD+FP/uIST791yf1+9Hteikc+fJNaxQty5nTPfWcHAG6/c8VDHrRgb3/i9Kme13/tU9x++4pf+NWzvCiiPoirrvofCIDKVf8l3uaWl+Dj/vTnOJwGntvbPfgl+O4n/xnv8/s/wjs/5KX5+Jd4bb7iH34HgJ943ffiIVsn+fA//ikAvuTvfosvffk3460f9OK8/Kmb+arH/S7v+JCX4qNf7DX58Vv/lm97tXfg529/HD/xjL/j+fmSv/0tvvaV35o3uenRvPKZB/FNT/wjbt48znNbt4kPfNQr8+4PezlOzzf5qWf8HS+UBOYF+sD3von3+IC/4ylPO+Jv/n6f93mPG7hMcMtNcx7oq7/hGfzIT9zLMCaf+jlP5gs/6xG817vdwHt/8N/z+Cce8LgnHPJNX/VYnp/rrp2xe8frAvDeH/z3vMLL7nDzjXNeKIkXZPqrX6W+9Ouz+OCvZ/q732b9I1/A7O0+gXbr35F3P5Xuld6Cf4v2hD8CoD3lL1g+5S8AqC/+WujUjWx88o8Sx85w9BXvQX2FN6d/nXdn/ItfZv4en8/0N7/J6ts/ltW3fyzloS/D/P2/kvWPfRHPn+le+a35j/CEW5/G/j2304XYDPjzP/8jXukVX41Z1wGwv1zyd3/1x8yL+IGnX+BfS0Df9/xf0nUdEQFAKYWu6yil8HxJ/Gs0m5+74zzv/OBr+JM//xNe5RVehb5WAPaXS/72r/+ULgTApTufzlOPn+RhN93Mv0f3ym/F8KvfDjb/Vt69j7Z7HwCrH/xsHqh7ydelPuLl8cFFxr/4ZeKWF2P+zp/O9MQ/YfaOn0p7xj8w/vb38+8mAeJF8T7vfiNv/S5/xcXdkd//o4t85ic9jPvddOOcWsX9vuN77+DbvvsOLu1NfPjHPZ6v/4rH8O7vdD1v9+5/zX1nB/7gj3f51I97CIt58JVf/wx+5hfu4/FPOuTDP/AW/iWKbbrFq3LVVf8DASDb5qr/El/4t7/Bp/3FL/HcXvLE9Vwcltx+uMtm7XmF0zfzu/c+jde89qEA/PWFu9gdltzvYdunuGFjhz8/dwfLNnLT5jEevn2a+916cIFbDy7y06/33hzrFwD85fk7+Lg//TkAHrJ1kps2j/EX5+/gaBo5M9/k5s3j/OX5O3n4zilseOr+eaqCV7v2wewOK/7+4t00mxfkr97yY3gE38C0+hNekHvPDjz5KYc89MEb3HD9jOWq8Zd/vc+rvfJxHuhJTznkvrMDAMd2Ol7ixbYAuP2OFc+4fclLvvg2O9uV+z39GUsyzcMessEDPeFJh2xvFW68Yc4LsnXNt7H+pi+ke8U3p3vlt+a55V1Phn5BnL4JxjXT0/6a+oiXJy/eA+sj4oZH8MIcfdV70574x7wotHmMuPFR+GiPvPNJ4EQnrifO3Mz9fP5O8vydAGi+RVz/cNrT/5rnZTTfYvOLfhsttvm3uvueO3niU59EPdrjuR2lOXXNDayGgeXuOeYh/urCAZ/0l09nsvmXbIb49Ot3AKil8JhHP4r/S2azGdddey333H03N918M0+/9VYyk+fnCU96MuM4koZPu+sSL4o+xJe93EN5ieObHKW55pobGKaRvQtnmYd4IANHdc5Lv9hLce011/FvtfqBz2L8vR/hP1qcvhmdvB5fvIc8exsA2jxO3PhI7ueDC+RdT+Hfq3uNd6K87RtwdOGzeFGcvzDy+CcecPNNcx5084JpMn/8Z7u88isepxZxv6c/Y8mdd60A2NwovMxL7QBw79mBJz/lkMc+eouTJzoAjo4a//CEA3a2K496xCb/kvmxD2e29TZcddX/QADItrnqv0Rz8s6/9f38+DP+lv8KN28ep0gALNvEvct9/rP81Vt+DI/gG5hWf8L/JlvXfBvrb/pCuld8c7pXfmv+ox191XvTnvjH/JeLwsZHfCvlMa/Gv8df/tWfcXTuLv4lQyY/eds5vuup9zKmeVFshvj063cAqKXwmEc/iv9LZrMZ1117LffcfTc33XwzT7/1VjKT5+cJT3oy4ziShk+76xIvqkUJ3vfh1/FG159gqyv8S6578CN5+CMew7+VxzXLr34f2lP/kv+tutd4J8rbvgFHFz6L/w26jTdm48THA+Kqq/4HAqBy1X+ZouCHX+fd+bK/+22+7vG/z11He/xnuv1wl/8yEpj/nSTG3/8x2hP/mP9o3juLdk7xX2Ic8PqI+uKvRf9mH0Z50Ivx7/Wr9+7xE3/1VP4lT91fcTA1rvqvtWzJNzzxLr7tyXfzoM05GzV4YT508zoe/gj+zdTNWHzUdzL8wjcw/t6P4KM9/teRAPE/XZRr6LfentnW23HVVf+DAVC56r9UUfDJL/m6fPJLvi5/evY2/uzc7ZxbHfK/3XWLbXq/HqV7FP+bRJyge8W3IM/exn+Geuom/iuoVOL6h1Ee+UpoY4f/KPesR/7m4iFX/c82pHny/pJ/ydn1xL+X+jmzt/k4Zm/5UbSn/TXttr/HywP+tygPenHU3cxs+z35nyjKSUr/aEr3CK666n8BACpX/bd5xTO38IpnbuH/jtej43+f7pXekquuuupfqVTKI16e8oiX53+jsvNeXHXVVf9uAFSuuuqqq6666qqrrrrqXw+AylVXXfU8hvvuYXXnbeRqxf8GKkF36gyLBz8clcJVV/1XuOuuu7jttttYrVb8T7O5uclDH/pQTp06xVVXXfWfBoDKVVdd9Sznf/0XuPUrP5/Dx/0N/1N0p68h5nNeqJYM5+6lbG5xw7t/ADd98MdRt7a56qr/aLb5yZ/8ST7v8z6Pv/mbv+F/utd4jdfg8z//83nN13xNrrrqqv9wAFSuuuoqcrXkyZ/x0dz7Y9/H/wTzmx/MQz7p8zj5Om9E2dziReFpYv9v/pxnfNXn89dv/Zo85pt+kM1HPIZ/jze8doeHv9xDeWH2xsaT95f80p0XuDBMXPVf68ZFzxvfeJKHbM3ZKMEL8/Jntvn3WC6XfPAHfzDf+73fy/8Wv/d7v8drv/Zr81mf9Vl8xmd8BhHBVVdd9R8GgMpVV13F7d/0Fdz7Y9/H/wSbj35xXvIHf5Hu5Gn+NVQrOy/3yrz49/4sT/rED+bxH/YevMxP/TZlc4t/q+tmHTsnt/iXvOa1x3iXB5/hC//udv7w3B5X/dd4i5tO8uGPupEuxIvi9Kzj3+NzPudz+N7v/V7+t7HNZ3/2Z/OgBz2I937v9+aqq676DwNAcNVV/8+t776T27/5K3hBZtfdwNaLvwwAKpVjr/waxGKDzce8BP2ZawE49gqvSiwWAMRig2Ov+GrMb3oQACqFY6/8Ghx75ddg67EvyQujrufFvuPH6U6eBuC+n/kRbv+mL2favQjA+V//RVZ33AbAPT/+fSxvfSr3/Pj3cc+Pfx/3/Pj3cc+Pfx/Lpz6RR37JN6FSuPuHvpN/jxsf/HB2HvQoVio80Jimv+YmTj7qpTn+8JckTlzLvASf+VK38IjtBVf953u1a3b4mMfcRAO2b3gIN73Yy3PqYS9Od/wMNs+hbexw5jEvy4Me+kj+rZ7xjGfwlV/5lfxHePEXf3Fe+ZVfmVIKAA972MN4zGMeA8DLvdzLcebMGba2tnjt135tXuu1Xov5fM5/hE/5lE/h6OiIq6666j8MAMFVV/0/d/YXf4pcr3lB5rc8hJf64V9GpbD90i/Pi3/HT+A28bDP+BJOvNYbAPDi3/MzzG64mfmDHsor/cETuP7dP4CX+tFf5dq3fVdiscFL/fCv8OCP/2we8w3fz4t/10/xglzz5m/H/MZbAHjGV38hd3zH17G87en85Vu8Grla8oyv+nz2//Yv8DjypI//IIZ772Z9x23c++Pfz53f/nWs77iN6WAflcJN7/+R3PsTP8i/x7UnTvCSj3w0r/iqr8tKBQADNz/2ZXnFl3o5HnvLg3jxhzyEV335V2b7lkfQR/DeD7uWq/7zfdAjridtHvbiL8dLvdhL8uAbbuQxD30Yr/QKr8r8ulu4nzeO8Vqv9jo86qab6Urh3+qHfuiHGMeRf69P/MRP5Gd+5mf4/M//fH7t134NgA/+4A/mV3/1V6m18s3f/M281mu9Fo985CP5tV/7Nb74i7+YJzzhCbz0S780/1733HMPv/qrv8pVV131HwaAylVX/T938Dd/zguz9xd/jFtj6yVeluOv+tpc/N1fx8PAA0kCYPslXpb1PXfxxI95fzYf+xJsPPSR3O8f3u/t6a+5lpf9+T/kBTn2qq/N/e77mR/mYZ/9FZx8rTfgT1/zxdj9k98HzAPNH/QQHvRKrw5fDctnPI0HffSncb/jr/raPPHjP5Dd8+ehFP69jl1zI+t7b+OwzHn4zbfw3F7m0S/GL9z6FF7u1BYBJFf9Z7lu0XPTxoxVv8lDbryZ5/YyL/aS/MZdz2CziPmJM+zu7vLv9ed//uf8R/iET/gE3vIt35I//dM/5dM+7dPY2toC4MYbb+Rt3uZteKCDgwNe5VVehc///M/n8z7v83iLt3gL/r3+9E//lLd+67fmqquu+g8BQOWqq/6fmw72eGHcGhd+65c5/iqvxfFXe23u/bHvAwCJ53b+136ea976nXj53/hLzv/qz3Pb130J93ux7/hxNh/+KO750e/hBambW9xvunSRur0DQHfiFOPF8wAgAHOFuJ94Tv2Za8HmqU95ChP/fueWS44Bp0+c4AXpN7bo1wdsd4VLY+Oq/xzbtQBw7cmTPD+1FFrtwSMXzp7jifsH/Hvde++9/HvNZjNOnz7NM57xDN7xHd+R2267jYgA4Dd+4zf4iI/4CCTx3P7wD/+Qd3qnd+I/wt7eHlddddV/GAAqV131/1x/5jr+Jed/45e44T0/iO2XeBke/6Hvzv0UhcuigE3MZjzxY9+funOcR37JN/KQT/l8nvaFnwrAP7zf21MWG7zi7z+OW7/i85h2L/Dc1vfcxf3Kxhbt6BCA6WCPurUNETA1PE0AKMT9zHNa3Xkb6jpe9hVeAUXw7/V3T3oCl55xibPnz/GCDMsj5GR/alz1n+fsesTA3efP8xI8r5ZJTAMUcfODH8RjH/Rg/r0e9KAH8fu///v8e0zThG3m8zm33HILn//5n88f/uEfAvCkJz2JBz3oQbzUS70Uz217e5uDgwP+I1x33XVcddVV/2EACK666v+5E6/+uvxLLv72r7LzMq/Iwd//NeOFcwAcPeWJnHjtN+Tat3s33CbWd9/JmTd/O17yB36R/sy1LG97OnX7GPfbeYVX4dQbvjm5XuNx4Pk590s/xf3OvNU7cvs3fyXP+OovIFcrjr3Sa7D9ki/PPT/x/dz61V/A7Iab6a+5nhfk3C/+FCde7XVQBP9ee0dH3HvbUwHY9sgTnv5UnttfP+EfOBbJH53dI81V/4l2h4nH7x4yGw55+p2389z+6vF/z1YRAGef8WTG1vj3esM3fEP+vVpr/P7v/z4f8REfwd/93d8hiQf6uq/7OnZ2drhfrZU3fMM35FM/9VP59m//dv4jvMEbvAFXXXXVfxgAymd/9md/Nldd9f/Y4qEP576f/VGmSxd5QXJYowjO//ovcPTkJwBw6c/+gBOv+trsvPyr8ORP/yhWtz6Fg3/4GzSbcc1bvRPtYJ+nf+Gn0lZLZtffyMbDH009doLbvu6LOXryE3h+1nfdzsYjHsPmIx/DiVd7HXK1JFdLHv45X0l/6jQnXu21ycNDFIWHfvoXU3eOc7/5TQ9i4+GPBmB99x084aPel4d9zlcwv+lB/Ftd2N/naXfczhP/7s+Yu3G/3XP3cv7oiL1h4u7z57j96U/m0l3PYNmSz/+729gfG/+SXuI1t2cARARnTp/m/5JaK1tbWxwcHLBz7Bi7u7vY5vk5d/4CmYmB39xf86K47WjNG11/kt377ubc0ZKB4OylXR7/xMcx3nc7kgCINnLHvXdzmNB3PfO+59/iMY95DN///d/P7u4u/x4/+7M/y2u91mvxGq/xGnzHd3wHv/zLv8zx48e5++67+amf+ilOnTrF7/zO73Du3DmuueYaHvKQh/Dd3/3dfO/3fi//Xq/92q/Np33ap3HVVVf9hwFAts1VV/0/d+nP/pC/fdc3wePIf7eytc1jvv77OPnab8i/xer2W/mH938Hjr3Sa/Dwz/1K/j3+8q/+jKNzd/GiuGc58Dl/+wyeuLfkRbEZ4tOv3wGglsJjHv0o/i+ZzWZcd+213HP33dx08808/dZbyUyenyc86cmM40gaPu2uS7yoXvvaY3zKi99CF+JFcd2DH8nDH/EY/q1+7/d+j9d93ddlmib+tzl27Bh/9md/xiMe8Qj+r/vYj/1YPuqjPop7772X3/qt3+KTPumTAPjyL/9y7rjjDr76q78agB/7sR/jF3/xF7n55pv5iI/4CI6Ojvisz/os7vclX/IlXHvttQB8yId8CF/+5V/O5uYmV131AABUrrrqKo69wqvyYt/ywzz+I96LdnjAf6d2sM/fv/dbc/J135jr3vG92HjEo4nZnBeqNVZ33c65X/pp7vmR7+bat38PHvaZX8q/11MP1/zNXRf4lzz+0hG/ctdFhjRX/df57Xsv8TcXH88b33CCmzdn/Ete55o1D+ff7jVe4zX40R/9Ud7jPd6Dw8ND/re47rrr+Lmf+zke8YhH8P/Bj//4j/Pu7/7u3HrrrfzKr/wKn/RJnwTAl33Zl7GxscEnfuIncsMNN/Bnf/ZnrFYr/uqv/oov+ZIv4bM/+7N5+7d/e97iLd6CX//1X2dnZweA3/zN3+Qf/uEf2Nzc5KqrngsAlauuuuqyk6/7JrzSHz6Re3/8B7jw27/C6s7byfWK/y6HT3wcT/28T+JFoRJ0J89w7OVfhZf+id9i68Vfmv8If3D+gG/8hzu46n+ui8PED916lhfFzi2P5PX493mbt3kbnvGMZ/Dd3/3d/Mqv/Aq33XYbq9WK/2k2Nzd5xCMewVu8xVvwzu/8zmxubvL/2d///d9z00038WIv9mL8zu/8Du/yLu8CwE033cTh4SEHBwdsbW3x6q/+6gC81mu9FrVWAL7ne76H93iP9+Cqq54PACpXXXXVs9RjJ7jx/T6cG9/vw7nqqquev1OnTvFxH/dxfNzHfRxX/e/wO7/zO1x77bXs7OzwO7/zO7zLu7wLAN/yLd/C0dERf/u3f8vzc3BwwC/+4i/ydV/3dVx11fMBQOWqq6666qqrrvo/Y2Njg9Vqxf7+PseOHQPgt3/7t7njjju4ePEiFy9e5H4f/MEfzK/8yq9wxx138NjHPhbbPNBP/MRP8IZv+Ibs7Oxw1VXPBwCVq6666qqrrrrq/4y3fuu35oM/+IM5d+4cX/7lXw7A7/7u7/K7v/u7PPShD+XYsWPcc8893O993ud9+Lqv+zre8A3fkOf23d/93XzKp3wKV131AgBQueqq/yTj6o+YVn9CtntwDvxPtHHi4/jZn/8znvGMZ/C/WUSwtbXFgx/8YF7hFV6Bra0trrrqP4tt/vZv/5bHP/7xXLhwgXEc+Z9mNptx6tQpXuqlXopHPvKR/H/yxV/8xbzLu7wLW1tbPOxhD2McR37kR36ERz3qUQD89m//NvP5nA/6oA8C4Nprr+VlX/ZlAdje3ua3fuu3qLUC8Nmf/dm8xmu8Bldd9QIAULnqqv9gOd3O0YUvoI1P5n86e8ldd93FU57yFP4v+Mu//Et+6Zd+ibd+67fmVV/1Vfn3evjWjDe64QQvzN7YeMrekrPrkav+e9y40fPQrQUbNXhhHrQ549/rzjvv5Pu+7/u48847+d/gd3/3d3nkIx/Je73Xe7Gzs8P/Fy/1Ui/F/bqu47Vf+7W53yu+4isCcPz4ce73mq/5mgDUWnnt135t7vdar/VaXHXVCwFA5aqr/gO18Wkcnv0o7COu+u+xXC75oR/6IXZ3d3nTN31T/j1e9eQWL/1iN/Oi+J17d/mqx9/J3ti46r/GdfOeT3yxm3jpk1u8KK47scm/x2233cbXfM3XMAwDL8xDHvIQ3uu93ov/Kl/5lV/J3t4eL8iTnvQkvuRLvoRP/MRP5NixY1x11VX/YQCoXHXVfxizvPil2Edc9d/vl3/5l3mxF3sxHvSgB/FvdfzUGe67eIHNaYXEczikcOrESTbmc+6463Ze69rjPGhzzof/6VM4aslV/7mumXd8/Ss+nJOzyoGDa85cx2LWc8ftT2cR4oEmm3G2xfaxE/xb2eZ7vud7GIaBf8nTn/50PvuzP5v/Sfb29vjhH/5hPuiDPoirrrrqPwwAlauu+g8yrf+KNj6Zf8lTn37ER37CEzh3fuCjPvRBvOs7XM+P/fS9fM8P3AnASzx2i8/85IexWBTe/j3+htWqAfAh738zb/ZGZ3j8Ew/4iE94AsOQfNnnP5JXevnjtDQf+BH/wJ/95R7v8NbX8hmf9DD+J3ipl3opXuu1XguAu+++m1/+5V9mf3+f+XzOS7zES7C9vc1v/uZv8p/BNr/5m7/J+7zP+/Bv9dBbHsxDb3kwT7j1adz9xL+lCwGQ2yd53Zd/VbpaAHjQI16Mv/qLP+LBwLs/9Bq+9cn3cNV/rg9/1A2cnFXa9ile7xVeha4UAG56yCP5q7/8Y+JoD4Blmke91Ctxy3XX8+/xd3/3d9x33328qM6cOcO7vMu7ALC3t8dv/MZvcPvtt/NO7/ROXHvttdzvu7/7u1kul7zzO78zD3vYw7jrrrv4gR/4ASTxvu/7vtzv7Nmz/N7v/R5v+7ZvywP9/u//Pn/5l3/Ji+Lv//7vuffee7n22mu56qqr/kMAEFx11X+QcfXnvCje+4P+nrd7q2v5/m9/ST7uU5/IctW4884V29uVr/nSR/M3f3/At3znHQB81Rc/ijvvWvNu73g9r/lqJwB4jw/4e97l7a/jEz/6Ibzze/8tR8vGL/7KOZ70lCN+8cdflm/77jt5ylOP+J/g+PHjZCbf//3fz8mTJ3mDN3gDAD7+4z+eN3qjN+JhD3sY/5ke97jHYZt/r0c/+KFsXnMDAAcJr/Lyr0JXC/fbnM14qZd5ZVZp3uD6E1z1n2urFl7lzA4HFq/+iq9KVwr3214seMmXegVWaQCuedAjuOW66/n3+od/+Af+NWazGTfeeCPf//3fzz333MM7vuM7AnDzzTfz13/913z/938/3//938/BwQGv/uqvzvHjx/miL/oi9vf3ecVXfEVqrTziEY/gB3/wB/n+7/9+fvEXf5F77rmH7//+7+cZz3gG6/Wa7//+7+dxj3sc/xr/8A//wP91b/3Wb82tt97Kr/zKr/Apn/IpAPzhH/4hb/VWb8UnfdIncb9P+IRP4C3f8i2533d8x3fw2q/92rzne74nd999N09/+tN57dd+bV77tV+b137t1+a2227jqqueCwCVq676D5LTHfxLDg8bf/e4A97iTc5w5nTP3U9+be63uVG47toZp091XNqfALj5xjm1ijOne7a3KgeHjac87Yi3erNrOH2q54M/6nE85alHPOWpRzzmkZs84/YlAE9+2hEPf9gG/xNsbm7yiEc8go2NDZ7+9KcD8EVf9EW8xmu8Bo94xCP4z7Rarfi7v/s7MpN/rwsHK7aAYyfP0NXKc9tezGn9BqdiyVYtHEyNq/5zXLvoKRLXX3sjJYLndnxri3WZMffAuQuX+Ou//mv+ve655x7+tTKTCxcuME0Ttrnfddddx3q9Zm9vjwsXLnD77bfzpm/6przaq70av/ALv8De3h7Hjx8H4BGPeASZya233sqlS5e4cOECR0dHrNdrLly4wL/WhQsX+L/uD//wDzk6OuLee+/l7/7u7wD45E/+ZN7+7d+el3zJlwQgM/mu7/ouTp8+zZOe9CQe+chH8tSnPpXTp0/TWuOLvuiL+KIv+iI+6ZM+iTd90zflV37lVzh9+jRXXfVcAKhcddV/EMUG/5KWBiAC3u7d/ponP/WIX/npl8PAL/7qOf70z/+EF3/sFh/+gbfw/LRmACIEQK2iNZM2v/uHF3nwgxY86JY52cz/FF3XcfLkSUopHD9+HIDWGv9VrrnmGv4jHDhhdZH1MPCCtGwYmGyu+s+zag2A/aMjXhBnA8HOsWNcd+oU/16LxYJ/rc3NTT7/8z+fjY0NvuzLvoz7bW1tcfLkSWwD8JSnPIXv+I7v4JVf+ZV5wzd8Q77lW76FixcvAnDixAlsc/fdd/MfYTab8f/R6dOnedzjHseHfdiHAfC3f/u3PPShD+XFX/zF+Z3f+R0e+chHArCzs8N8PmcYBjY3N3mN13gNAF7zNV+T+XzOVVc9FwAqV131H6R0D2Pk13hhdrYrJ45X/v7xh/zED7w0x2/6TaZmBLzpG57m27/+xXhhtrcKO9uVZ9y2ZJrM3v7EzTfNOX6s8uKP2eJTP/6h/OCP3s3x4x3/U9x333380i/9EqvVihd7sRfjt37rt/ivct1113HdddfxH+HJtz4JAePBLhcPDjixtcUD3XvhAotpzVMOVqxactV/nruOBi4OE4tL57mwv8/J7W0e6M5z59hmAsS0PuK6616Mf69bbrmFf/iHf+Bf4/DwkM/6rM/iMz7jMzhx4gR33303AH/1V3/FX/3VX3G/N3zDN2R/f5/v/u7v5m3e5m14xVd8RX7lV34FgF/+5V8mM/mPcsMNN/D/0Zd+6Zfy1m/91rzTO70TP/7jP85v/uZvcubMGba3t/md3/kdPuADPgCAH//xH+fw8JCnPe1pXHXViwCA4Kqr/oN0i9cDzfmXfOYnP4z3+eC/41Ve7094mZfc5sSxygvySq/7Jzz9GUs+5GMez4/8xD1EiC/67Efwbu//d7z+W/w5n/FJD+P0qZ63fvNruePONa/yen/CQx684BVf/hj/UzzqUY/icz/3c3mLt3gLfvd3f5f/Sq/yKq/Cv9d6mvi9P/sjtH8RgEWIv/uLP+Teixe432333sM//NUf04X4oVvv46r/XAZ+7BlnmYf4+7/8I+65cJ773X7vPTzhr/+YIgEwnruTv3z8P/Dv9Uqv9EqUUnhRSUISrTV++Zd/mbd4i7fgfu/4ju/I53zO5/A5n/M5nDx5kn/4h3/gdV/3dfmMz/gMXv7lX56/+qu/4n6f9Vmfxed8zufwoR/6ofx7bW9v8+Iv/uL8X7e5ucnBwQF7e3vs7OwA8JCHPIRf/uVf5id+4ieYponf+73fY71ec++99/Lbv/3b3O993/d9ebmXezn++q//GgDbXHXVCwGAbJurrvoPst7/YVZ738a/5MLFkcOjxs03zvm3OH9hoDW45kzP/YYxuefegVtumvOi2rrmW/iWb/tVHv/4x/N/zfXXX88nfMIn0HUd/1Z/+rd/zcW7b2UzxHOb0uyrgs0xNULiB55+H9/xlHt4UWyG+PTrdwCopfCYRz+K/0tmsxnXXXst99x9NzfdfDNPv/VWMpPn5wlPejLjOJKGT7vrEi8KAZ/1kg/iNa89xphmRYDNZpiQeG77CQ9++GN4zMMeyb/VL/zCL/DLv/zL/GeICI4fP86lS5dorfGf4T3f8z15hVd4Bf6v+7zP+zy+8Ru/kb7v+Y7v+A5e//Vfnzd4gzfg/PnzHD9+nN/8zd/k9OnT/Omf/ikPfehDOXnyJH/2Z3/Gd3zHd3B0dMRLvdRL8V3f9V387u/+LgcHB2xvb7NcLpnP51x11XMBoHLVVf+BZtvvTJtuYzz6FV6Ykyc6Tp7o+Lc6dbLnufVdcMtNc66CkydP8oEf+IF0Xce/R20jmyGenxriBA0Ej7+05Hueei9/en6fq/5rGPi8v7uNt9o9yVvedJpbNmcAgHh+tgO6bPx7vMmbvAn33Xcff/mXf8l/tMzkwoUL/Gd54zd+Y17hFV6B/w8+4zM+g3d/93fn+PHjnDhxAoAf//Ef50lPehIv+ZIvSWby53/+5zz4wQ8G4O///u85ceIEn/iJn0hmsr29zeu8zusAsLW1xdOf/nTm8zlXXfV8AFC56qr/YBsnPpFh9hIMBz9DG5/MVf91NjY2eIVXeAXe8A3fkJ2dHf69fvKui3zPnzyeF2Z/bBy15Kr/es3mJ287z0/edp7tWtiowQvzSbNr+PBH8G8WEbzP+7wPD3/4w/n93/997rrrLv6ne8hDHsLrvd7r8VIv9VL8f/KQhzyEBzp27Biv8AqvwP0e/OAHc78bbrgBgMViwf0e/OAHc78HP/jBXHXVCwBA5aqr/hP0G29Cv/EmZDtHG5+E2x7/E0W5htd93dflZV/2ZfnfrJTC9ddfzw033EBE8B/lYEruXY1c9T/f/tTYnxovzFFL/iO8xmu8Bq/xGq/BxYsXue2221gul/xPs729zYMe9CC2tra46qqr/tMAULnqqv9EUU4T5TT/kz360TtcddVV/3onTpzgxIkTXHXVVf9vAVC56qqrrrrqqquuuuqqfz0AKlddddVzmKaJP//zP+fWW29ltVrxv0FEcM011/DKr/zKHD9+nKuu+k/XJtqtf0deuAvGNf9bxHUPQQ+6kWn9V/xvUuottKNb2Hvqvfx3k0TdnLFx40m6rTlX/b8GQOWqq666bBxHvumbvonP+7zP49y5c/xvVErhnd/5nfnCL/xCbrnlFq666j/cNDD89g8w/NI348NL/G/TveY7U254I5YXv5T/TfrNt2J919vyjJ/4Ux5IIWantymzjvX5A6ajNf9lJI4/5kZufOOXYn56m6v+XwKgctVVV7Fer3mrt3orfuVXfoX/zVpr/MAP/AC/+qu/yi/+4i/y8i//8vx7vO2NJ3j1V380L8ze2HjK3pKfuv0cTz1YcdV/rZc6scmb3XiSh24t2KjBC/PI64/z7+FxYPl1H0B70p/wv5bN/wUqwY1v+JKceaWHE33lfoe3n+e2n/sLju64wH86m93H3cH+0+7lYe/+6mw/9Fqu+n8HgMpVV13Fx3/8x/Mrv/Ir/F9x9uxZ3u7t3o6//du/5dixY/xbLUrhukXPC7Jq5uSs45E7C97oxhN83RPu4mfvOM9V/zU+4OHX8S4PuQaAVZoA+hDPj4Eugn+P9Y9+Ae1Jf8JV/70U4uHv8RrsPPJ6ntvmzad41Ae8Lk/+rt/h4Naz/Fdoq5Gn/uAf8GIf9SZ02wuu+n8FgPLZn/3Zn81VV/0/9uQnP5n3fu/3xjb/UTY2NviIj/gIXv7lX57HPe5xDMPAm73Zm1Fr5eLFi7zXe70XT3ziE3nEIx7Bm7/5m/OoRz2Kpz71qUzTxH+US5cuMZ/Pee3Xfm3+rW68/gZmp67j7KVdYlxzv7UKNz76pXmFl3tFbn7II1nXGRfO3cerndnh7y4ecs9q4F/SS7zm9gyAiODM6dP8X1JrZWtri4ODA3aOHWN3dxfbPD/nzl8gMzHwm/trXhRvduNJPvCR17NW5cZHvxSv8LKvyM0PeSRHqlw4fx+dxP187Awv+XKvyk3X38C/Vd71ZFbf/+m8qLR1ku7l3phy06Px7n0wLAEgCt0rvzXlYS9L3v1kaBPPEoXuld6KvOMJaGOH7uXflHLzY4jj15Dnbofa073SW+Lde2FYUV/+TWCa8OEucfNj6V7znfDuvfjwEi9IefBLEI95OOPyN3lB9vYnvvk7bufv/uGAF3vMFrWK3/yd8/zRn17iH55wyOlTHVtblXPnB3765+/j7/7hgL/7hwMedMuC2Sw4f2Hkm7/jdu69b+DRj9zkgX7jd85zeNi49poZ93vyU4/4oz/d5ZEP3+QFKf2jafuP4eLf3sb1r/PinH6FhwFw/q9uZfdxd3B090UW1+wQtaASHHvUDZz94yfjNM/PiRe/mc2bTrE4s8Owt8RT49ijbyC6ynSwYutBp5md2ma4eEjdnHHNqzySmHWszx/w/HhsZEuOPeoGrvp/BYDgqqv+n/uJn/gJWmv8R5HEb//2b/PKr/zKvPVbvzXf/M3fDMCnf/qn81Vf9VV0Xcd3fdd3cezYMd7gDd6AT/7kT+Y1X/M1+fu//3tuuOEG/iP98A//MP9e1x4/zmu96mszzbcAGNK8+Mu9Go+4+RZA1FJ41IMfysNf8hUQ8B4PvYar/nMJeK+HXss6zUu+/KvxiJtvAUQthcc+7BE8/MVfHnOFjp3mNV7xVTm2ucm/x/iXvwI2L6o4czOzd/4M4vqHsfGpP0552MsB0L/ph9C9zrtTX+r1WLznF/JA5VGvRPfqbw+Ajl/L/N0+F526kf4N35/5u30ujGvqy7wh/Ru+H+XhL8/8XT4bH14krn0IGx/zXcSxM2x80o+izeP8W02TeYO3/HMe/6RDfuyn7+XTP/fJAHzNN93Gz//yWf74T3d55df9E86eGxgG8w+PP+BDP/bx3HbHimkyq1XyOm/2Z9x2+4ov/eqn82Vfcyv3+9t/2Ocd3/Nv+YVfOcf9psm8z4f8PZ/zRU/lRSJxzas8gvtd+OtbWV84YHXvJZ747b+FWwLQbc05+ZIP4gW56U1emu2HXMP2Q6/lMR/2hkRX6LYXPOQdX5noCg99t1cn+gLAIz/gdVlcd4wHvfUrcPzFbuIFufDXz+Cq/3cAqFx11f9zf/3Xf81/pJd6qZfiYQ97GK/8yq/M6dOnec3XfE0AJPG6r/u6POYxj+GBnvSkJ/FhH/Zh/MiP/Agf+IEfyGd/9mfzH+WJT3wid999N5L496qbx2B1gLaOce2JEzy3h1x/A4/7u8JLnNikSkw2V/3nuHFjxul5h3ZOceb4cZ7bQ268ib//u7/kRDFlvs0999zDv9fWrX/Pv9r6iPVPfQU+3KV/kw9i+fUfSH3sazD80jfjo30WH/L1PFD38m/G+Oe/xP3cRoaf/3rao1+Z+Xt8IQDrH/9iNj7pRygPe1nWv/D1+PAS9eXflPakP2P1I1/A5mNelfLwl2X6m9/k+bJ5Yf7kz3Y5Wibf/NWP5c67Vvzt3x9wvzd9w9O8+zvfwB/+yS5//pd7vMkbnuZDP/BmvuHbbueTP/YhAPzO71/Ahq/+kkfza791nk/89CfxCR/1YFozH/spT+QlX3yLB/r6b72N2SxYr5MXxfzMNnVzxgNt3nyKa17p4fztl/ws+0+7j51HXAfA5oNPc+4vnsYLcu4vnsbBrWd5mc95B2Yntzj350/jmld5BA9799dgefdFLj3hLvrjG8xPbfO4r/4lHvTWr8CxR17P7j/cwfPTlgPj3pJuZ8FV/28AULnqqv/n9vb2+I90+vRpLl68yOnTp/nQD/1QDg8Pud/P/MzP8BEf8RE8P095ylO45ZZb+I9km3vuuQdJ/HsdLldsApvzBS9IP59T1ods1GBvbFz1n6MPAbA5n/OClNqBB44ODrgnk3+vhxztEzx//Ru9P92rvC3rn/xycvcetHkCVgfcL++9le5V3gYAup76cm+Cao/mWzxL6agv9bqsf/oruZ9qz/y9v5jyiFdg/N0fBCDvewbtKX9Bfeyrc/TV7wOAuhk6fi2L9/1yUEA359/q3IWRk8c77rhzxff/yN2cON5xv+/7kbv5td86z/kLI6/48sd4fnYvTZw4XgE4c7rjwsURgG/5ztt5rVc/wblzI/d7xm1Lfubn7+OTP/YhfPrnPYUXRdTC8yXRbc2Zjtbcr857XpjrXvuxlFnHwW3nWJ3dA5v7/vjJPOitX4GnfM/vAhBdAcOD3voVmF93jPWFA16Yth7pWHDV/xsAVK666v+5Bz/4wfxHOjo6Ynt7m2EYkMTHf/zH82Vf9mUA/PRP/zSf+ZmfyfPzoAc9iDvuuIP/SJubm7z0S780kvj3+qt/+FsOj85z7vxZnp+xNdrRARdbY29sXPWf5+7lwJTmrvvu4aV5XkfrNV1bQ4hrrjnDiz/8Efx7rf72wYxP+wueH+1cw/KbP5zZ23wc5cEvydFXvzeab3E/nbwB750HgDaRdz2F6S9/mfqYV+N+9bGvRrv98Xj/PM+SE9Of/QL1pd+A8S9+BYA4fTPl0a9C3vcMuld7e8bf/gFoE9SO5fd8Mhsf+z3QRl4giRdmc6NwcDgxmwVHR40f+6l7+KD3vQmARzxsg9d4lRN8yec+klMnO56fzY3C0VECsL/f2N4qrNfJF3zZ03mxx25x221Luj54p7e7ji/4sqexuzfxeV/6NO64a8X3/fBdvMc738ALs754CDZIPFBbT6wvHNCf2OR+6wsHvDB7T7qbky/1IHb//nacBsGZV3o4R3de4MyrPIJLT7yLbIlKcO/vP4ETL/Ug+mMbvEAS/fENrvp/BYDgqqv+n3uTN3kT/iP96Z/+KYeHh3zsx34sW1tbrFYrAGzTWuM7vuM7eKCbb76Zj//4j+eN3/iN+c7v/E7+I73pm74pkvj3uuPeezh/x9MA2FHyJ3/7Vzy3P/qLP2WriF+96yJX/edatuT379tjh8Yf/tWf80BTa/z5X/4pixAA9zz9CZzbu8S/V33x1+QFWf/YF5L3PI3lN30YB5/0GuTdT+Wybkb3Gu9E/4bvx/Bb3wdAe8qfUx784vSv+55MT/kL7ldf/s2Y/uwXeCBnMv3D7zH+8U8xe8uPBGD2dp/A9Mc/zerHv5jZm384WmwxPeUviOPX0r3imxPXPoR269/xAtm8MK/6ysfZP2h8/w/fxcFhYzEv3O+VX/4Y7/R213HdtTMAzp0f+Omfvw+AH/zRu9nbn3ilVzjG+QsjX/Y1t/IlX/V03vxNzlCr+JHveUk+85Meyku95Dav/irHueZMz8d++IP4ui97NO/8dtdx6kTHa73aSf4lbTlw6cn38EAX/upWnvitv86xR93A1s2nAcDmwl8/gxfm6K6L3P2bf8/1r/tiRFc49bIPpcw6nvSdv83mTSfZefh1DBePGPaOOPESt3D8MTdycNs5XpDth15DdJWr/l8BoHz2Z3/2Z3PVVf+PPeIRj+Dnf/7nufvuu/mPkJn86I/+KC/+4i/OwcEBH/VRH8X+/j6S+Mu//Et++7d/m9VqxW//9m8zDAOtNXZ3d/mET/gEnvrUp/IfJSL4/u//fq677jr+rZ5x9108+SlP4J6nPp5ZiPu1g0s8/e67OFwtue/cWZ78xL9HBxd4+sGKL/6H2xnT/Et6idfcngEQEZw5fZr/S2qtbG1tcXBwwM6xY+zu7mKb5+fc+QtkJgZ+c3/Ni+Jxe0e83nXHmQ+HPP2uO9lbrbh4/j7+9m//km59wP0q5vbbb2V/tYIobG1s8m8R1z2U6a9+De+f50XWRgQMv/wttCf9KQDtKX9JLHbw+pDhF74B1kfQzZi/62ez/qHPhnHNs6yXtKf8BXnHE4lTN5J3PhGduonhN7+XvOMJkAmrQ/L2x5F3PJG4/mEMv/hN5F1P5gUpD34J4jEPZ1z+Js9P1wVv/ebX8HePO+DUqZ7P/8yHs7lREOLFH7vFtdfMuN/upYk/+4s9Xv1VTnBpb+JlXmqH48c63vJNz/C4JxzwCi93jI/+0AdTq7jl5gW33Lxge7Py8i+zw8MfusGZ0z233LzgmjM9Z870vO5rneQFKf2jafuP4eLf3sbRHRc4/XIPRSXYuP44Ww86w8mXvIVrXuURIC6774+fwvm/eBovkMTh7ec5uvMCimA8XDE7ucn5v3g6q7N7rO7bo847lvde4tIT72Jx7TH2nnIP5//y6bwgD367V2R2Your/l8BQLbNVVf9P/ekJz2JV3iFV2Bvb4//K77oi76IT/7kT+bf4y//6s84OncX/xIDv33PLl/1+Ds5mBovis0Qn379DgC1FB7z6Efxf8lsNuO6a6/lnrvv5qabb+bpt95KZvL8POFJT2YcR9LwaXdd4kX1oM0Zn/YSt/Dw7QUviuse/Ege/ojH8G+Vdz2Jwy9+JxiW/G/VveY7U972jTg6/+n8b9JvvhXru96Wp37/7wOw9eAzPPSdX4VuZ4PnYHPfHz+FO37xr3BL/qtc+2qP4qY3exmu+n8HgMpVV13FIx/5SH7rt36Lt3mbt+G2227jf7O+7/ncz/1cPumTPol/r7+5tOQPn3ovL8zeOPEXFw647XDNVf+1nnG45gP/+Mk85tgGL3Zsg81aeGHe8uTNPJx/u7jhkWx83Pex/KYPw7v38r+Szf8FB7ee5e+/4hc4+dIPZuuW0wCMR2vO/8XTWN23x38Vhbjm1R/FjW/0Ulz1/xIAlauuuuqyl33Zl+WpT30qP//zP88v/dIvcdttt7FcLvnfoJTCmTNneKVXeiXe9V3flWuvvZb/CH9z6Yjvedq9XPVf6+FbC8QVzzhaMaR5YR5/6YjHXzriX/KIRy15C/59yoNenK0v+HWmv/lNpsf9Ab5wFx7X/G8R1z6YiB1K/1L8bxL1RurGjK2HXMMDrc7tszq3z/3q5pyth8z5zyRB3ZixefMpTrzkLfTHNrjq/y0AKlddddWz1Fp567d+a976rd+aq6767/Ix129w6vT17O9d5Cuf9HQenz3/o5SO+rJvRH3ZN+J/q60zX8n/NrMteNQHvC5XXfU/CACVq6666qqr/kf5oA/6MEAAvNgHvytsPYqrrrrqqv+BAKhcddVVV1111VVXXXXVvx4AlauuuupZ1vfcxZ3f8XWc/81fYnX7M/Cw5n+FCPpTZ9h5+Vfh+nd7f068+uty1VX/WfLC3Qy//p20f/g98vydMI38b9G95jtT3vaNODr/6fxv0m++Feu73panfv/v8z9B3ZyxefMpTr/iwzj+6Bu56v8tACpXXXXVZff8yPfwlM/6WHK15H+inZd9Ja57p/dm87EvSXfiJM+hNdb33MWlP/tDnvDR78uxV3hVHvUV30bZ2OTf46WObfBeD72WF2ZvnHjy/op/2D3EXPVfrUq85IlNHro1Z7MWXpjH7Cz49xp+54dY/8SXwLDifyWb/ysW1x3nzCs9nI0bT1BmHevzB+w+4S7O/8XTcEv+M02Hay494S4uPeEuth92LQ97t1ejzHuu+n8HgMpVV13FuV/5WZ70yR8KNv8T3fQBH8VDP/ULQeIFmT/ooRx7pVfn+nd9P/7uPd6cJ3zM+/Fi3/xDIPFv9VLHFjziYdfyonjCpSM+7+9u4+7lwFX/Ph/zkR/Egx/8EO6++05+nhmY5+uROws+7cVv4ebNGS+K63YW/HuMf/YLrH/oc7jqv9+pl30wD3rbV0Ih7jc/s8OxR9/AqZd9ME/5rt+hrUf+K+w/9V6e+gN/wCPe57VQBFf9vwJAcNVV/8+1o0Oe8ukfBTb/E13zVu/EQz/ti0BiuPduVnc8g9Udz2DavYjHkdUdzwCgHewznruP7uQpXuJ7f5a9P/8jzv3Kz/LvcfqGWzh200NZpnlu43ybnQc/mu0HPYpptsmjj23w1S//ME70lav+ff72xhfnZ6dN/uzMI7k9TvD8PGRrzle9/MO4aaOnO34N2w96FNsPfgzsnOK5LR2cftAj2Dp1Df9WXh6w/tEv4Kr/ftsPv5YHv90roRDTwYrh4iFtNXK/rVtO89B3eVX+K+0/9V7O/fnTuer/HQCCq676f+7sL/wkw9l7+fd6yCd/Ho/9lh8G4Lp3fE9e/jf+CoAX+7Yf5TVvPeI1bz3isd/8QwA86iu+jRf/7p8G4JX+8Ikce6XX4PmSeMgnfS73u/UrP4+/fPNX4+/e/c2572d+hOUznsqfvvpjuPSnv8+9P/VDPOHjPgCA7tQZbny/j+Cu7/lm/j1uufZaXuIxL8FLvdJrsUxxv/7aB/E6r/G6vOQjHsVLPfLRvPZrvj7t+DWcmXe898Ou5ap/n985e5Hfue8iv3PfRQ5b4/n58EfdwKIExx/yGF7pFV6Fl3rko3mpRzySV3+lV0enrud+Q+l5xVd/PR79yMdy3clT/FuNf/YLeP8CL6rykJdi+5ufwPY3P4HF+3452tgBQNsn6d/oA9j4hB/iucWZW9j6ot8CYPYun8X2Nz+B7W9+Atvf/AS2v/kJxJlb2Pyi36a+4lui7VNsf93fUB72slAqGx/3/Wx/7V+x+MCv4d/r87/0aTz0JX6PF3/FP+C3fvcCAG/1zn/F8Zt+k2se+lt81hc+BYA/+8tLHL/pNzl+029y/Kbf5ClPOwLgc774qTz8JX+Px778H/B3/7DP/Q4OJh77Cn/AF3/l0wF42q1LXvON/5THvPwf8Fbv/FccHEy8KG58w5cCCYCn/9gf86Tv/G0e//W/wn1/+CTut/PI69l68Bmen2OPvoGX+8J35uW+8J15uS98Z17uC9+ZM6/0cB78dq/EQ975VQB41Ae+Hje+4UsCcP3rvTgv/Zlvx4t/wlvQbS94Qc7+yZO56v8dAIKrrvp/bu/P/pD/CBd+45c4/sqvCRLHXuW1OP9rvwDAP3zAO3LX934Lt3/LV/G4D34X7nfytd6AxUMeDogXZOvFX4bZDTdzv0d+yTey83KvxA3v86Hc8F4fzP3u+p5vBpsHOv2Gb86lP/9DnMm/1zXHT3DtLQ8FYM/BK77kS/PcXuvlX5m9Zl7r2mNc9Z/reF956RNbHJQZL/GIR/HcXvGlXo6jZgCuedAjOLaxwb9XPuXP+dfy3jn2P+KlYL5J/1YfDUD/5h9OXP9w4ppbeG715d+U8c9/CYD1D30O+x/8aNrtj2f5zR/O/gc/mjx7G8PPfDWzN/5A+jd6f6Z/+D3aU/+S7mXfCCT2P/rliFseS3nEy/Nv9ZSnHfH133obf/ybr8RXfNGj+KVfO8f9vv7LH83T//41+eEfv4ff+f0LvMLLHuMf/uxVAdi943V5+EM3eMKTDvn277mDv/6jV+VjP+JBfPJnPZn7ff6XPY3Do8b9Hv/EA971Ha7n8X/+atxx54o/+JNd/iXdzoLNm07yQNe82iN51Ae/Pnf88t+wOr/P/Y6/2E08P5eecBd/8ak/zN2/9Q+c+7On8hef+sOc/ZOncNev/y3HH30jp1/hYczP7HD37zyOsui5/nVejL/70p9l74l3cc2rPZIXZHn3Lm01ctX/KwBUrrrq/7n1PXfxH+HSX/wxONl67Etx4lVfm8d/+Hvwwhw++fHc8J4fDAIwz09/5lqeL/Ms6nuWtz2d+c0P5oHmtzwEjyN/+Wd/xsS/39nlEceBM6fO8HxJ9BvbzNcHbNfC/tR4UaXN4eEh/5e01pimCYBhHDk6OqK1xvPjTP41Ts86JLjpmmt5frpSmLoZ5MCdd9zJ4bnz/Hs96t7bKDx/Onk95aEvw/S3v4lKhdrzLOOa8U9+htmbfDBrYP1Dn0s8+CWoL/bqPLfuFd6M1fd8Cs/D5n7jn/wM/eu/N/1rvxuHn/uWAOjYGXLvHN1rvDPaPIGOXcO/1eOfeMjDH7rBsZ3KYx65yUs8dpv7nb848rgnHLBaJcd2Ks/Pk55yyINvWbC1WXjZl9rhC77saQD8+V/t8ed/ucdbvskZ7vdmb3SGp916xCd+xpPouuAVXvYY/5Jue8Hz023NmZ/eZnnXReantgGYHd/kX2O4tOS+P34yD3rrl+e2n/tLcj0xP72NWzI7vc3Ow6/j8I7zvDDj3hFlfoyr/t8AoHLVVf/PdcdP8B8ik/O/+cvc8B4fSMxmXPqLP+aFOf8rP8vpN3lrymKTF2TavcC/yHDDe3wgT/uiT2P7JV+O+02XdkHixV7iJSCCf69/ePpTWd6xx97RES/IaljT26wy+dfITJ526zP4v2Rrc5Njx44BsLu7y9OfcRvTNPEfYXeYALhvd5cXJMcBClx/04088sab+PfKv7mO9oy/4flZfNDX0Z7+t8ze5IPJS/cx/eWvkHc+iWexQeKFiesfDrWnPePveaEUEAWmEUrlMkN9xCsw/fkvkXc9GTD/HjY85elHfNBHPo7lsvEXv/cqAHz/D9/Nb/72BT77Ux/GS7/kDs+PJDBXCCTRmvmoT3wC7/7O1/Pbv3eBqZnDo8bmRmE+Lzz20Zv87C/cx513rTh5ouOFacuBF6QNI1EL95tWA/9aCpEtiRrcL2pw4sVv5vxf38rs1DYvTFnMuOr/FQCCq676f277ZV6R/ygXfvOXuPbt343zv/FLkMkL49a49yd/kHr8BCCen/2/+yumvUvcb/9v/5Lp4gWWz3gqy1ufCgCCa976nZHEA+3+wW+x9diXZL6xwXw+Zz6fM5/Pmc/nzOdz5vM58/mc+XzOfD5nPp8zn8+Zz+fM53Pm8znz+Zz5fM58Pufg3L0AcLTHvRcv8tzuuO9etnLg73ePGNNc9Z/n3Hrk1oMVOrzEPefP89yefPttHC9ctnvvHcznc+bzOfP5nPl8znw+Zz6fM5/Pmc/nzOdz5vM58/mc+XzOfD5nPp8zn8+Zz+fM53Pqg16CF2T59R/E+oc/l+V3fBzj7/4I4x/8BM9Se7pXfiumv/9dXpj6Cm/G9Be/xL+ke+13xatD1r/4jcze6dMAyAt3kRfuYvqbX0cnr8fn7+Lf6lGP2OBptx5x+mTHp3/iQ3mgj/qQW/iZH3kZ3ufdb+QFefhDN3jqrUsuXBz54z+9xCMfvsHUzEu9+BZ/9/f7PPVpS/7uHw7Y3R35nh+8ix/6sbt5z3e5gZtvmvP3jz/gX7K+cMBw8ZAHWp/f594/eCK5mth66DXcb/8p9/KvMT+zw+lXeDhP/d7f4/rXeTHq1pxhf4nT3PcHT6Q/vsmwe8gL0h/foNuec9X/KwBUrrrq/7lr3+ZdeMZXfR7T3iX+vS78zq+xvvtOzv3yz3C/R3zxN3Di1V8XgLq1zZM/7SMZL55n2rvEvT/1g1z3ju9Frlc8Px4Hbvu6L+ahn/ZFANz9A9+O+p7Dx/8dF3/n1zj5+m/KsVd8daKfcctHfgrD3XcCkOsVz/jaL+LmD/5Y/r0u7O/z93/3F5TVPgCzEH//F3/A4WNfmofecBMAT3j6U7n9SX/PTOJ7nnYvLwozsVv/kv+rsp5gHWcIdljF3ezVv2FgzQtjC3goL4pve/LdfP7LPIR/+Ks/4vxDHs2jH/JQSgSPe9pTuOvJf888BEAcXuL3/uT3ePgjXozrT57k36p71bdh/QvfAMOS5+b98wDkXU8m73oyAJ4GPK7Z/Jxfoj3lL1j//NfzLNNIXryHB+pe/k1ZfvOH89x86T48rrhstkH/Km/L6ie/jPbUv2Lzld6S8ohXYPrb36R79bdn+6v+jPGvfo329L/hBZJ4YR758E0+99Mezhu9zV/QGrz3u94AwDVnejY3Kw/0t3+/z7u//99xy01zXvKV/5Cf/dGX4TGP2uSTPvrBvOJr/zEPvmXB13/FY5j1wTd+1WMB+JwvfirXnO658YY5r/taJ3nX9/lbvuxrbuU1X/UEb/km1/CiuPPX/o6HvOMrA7C47jhHd17AU/KI93ttyqwD4Ojui1z8u9t4YdpyRBHc79pXfxRn/+hJ7D3lHi7+/e1c88oP565f/3vu/LW/48U+5s0Y95Y86Tt+ixfkzCs/gqv+3wFAts1VV/0/d/cPfDtP/rSP5H+kCB7zNd/Nmbd4e14UOQ488WPen+G+u3nJH/olVCr/Vn/8V3/O8r476EI8P5fGJATbNWg2X/P4O/n5Oy/woljEivd6yM/zf9WxjTO82qPfmfnRw1luPYHf+OvvYphWvDBp8a1PezteVG93y2k+7FE38KK67sGP5OGPeAz/VsNvfR/rH/kC/sN1M7qXeQPGP/15/rN1r/FOlLd7Y47Ofzr/m/Sbb8X6rrflqd//+wDc/BYvxzWv8gien+HSEU/6jt9ifW6f/yqL64/z6A9+A6IrXPX/CgCVq666iuvf7f1Z330nt339l/A/TiaP/4j35Pyv/wI3feBHsfViL83z43Hg3K/+PLd9zRdCrbzk9/0cKpV/j6E1zq9H/iV/fu6IH3j6fTztYMVV/3V+4rZz/M3FQ97ippO82LFNNmrwwuy05N+jf533IM/fxfjr38V/qHHN+Kc/z1Uvutt/7i/Ye8rdXP9aj2XzltMATIdrzv3F07jndx5PWw78V5mf2eHh7/EaRFe46v8dACpXXXXVZQ/++M/i2Cu9Ond937dy8Xd/nVwt+Z/kvp/5Ee77mR+hbG5RT5zkObRkOHcvm496ca59h/fk+nd7P8rGJv9eP3nnRb7xD57AVf9zPWV/yVc9/k5eFJ+/fQMv+Wj+XeZv/0nUx7wq4+/8ENMT/hCGFf+rSPxfcenxd3Hp8XcRXSFmHdPBiv9K82uPceqlH8SZV3oEZd5x1f9LAFSuuuqqZznxGq/Hidd4PZyN8fw5crXifwOVoDt1DTGbcdVV/9nqi70G9cVeA7Lh/Qt4WvO/heabMNtg+9of4H8TxQazzQ1e/BPegv9uEtSNGdFXrvp/D4DKVVdd9TwUhf7MtVx11VUvRBR07Azifx/V6/jfRgGzE5WrrvofBIDKVVddddV/omNd5cbFjPsZePzeIVddddVVV/2vB0Dlqquuuuo/0WO2N/iYRz+I+11aD3zgXzyRq6666qqr/tcDoHLVVVdd9Z9oefEeHv/nT6PNN6E16moPuIGrrrrqqqv+1wOgctVVV131n6xvazhcAzCZ/3WCSo0Fz2aGPOCqq6666v85ACpXXXXVVS+AeP7e9DGP4I0f9XAecuoEu8sVf3LbHXzfn/8tl1Yr/rtVzXil0x/FA/31xe/icDrLv9WJ/qG85Il3435Trvm9s1/I/wQ3HNvmPV7uJXmZG69n0VWedPYCP/43j+NPbruDq6666qr/ZABUrrrqqqteRH0pfP+7vS1v/eKP5oHe6aVfjE96nVfjjb/tB/iHe+7jv5foY5MHEsH/RW/86Ifzw+/+9mz0Hfd7k0fDR73GK/GVv/NHfPIv/DpXXXXVVf+JAKhcddVVV72Ivu0d34K3fvFH8/xcu73Fr3zgu/OKX/1t3LW3z3+X5jV/dv6beaCjdp5/j/PDk/itez+L/0le8eYb+bH3fAdmtfL8fOxrvQoXjpZ86W/9AVddddVV/0kACK666qqrXgDzbK/24Jt5l5d5CV6Ya7Y2+fQ3eE3+OxlzMN3NwXQ3B9PdHEx3k574v+Yr3+qNmNXKC/MZb/BaXLu1yVVXXXXVfxIAgquuuuqqF8FbvfijeVG89Ys/mgfqN3ZYPPIVOPYSr8Xmi706Gw95Sa7697lue4tXvOVG/iWzWnijRz+cq6666qr/JABUrrrqqqteAPFs121v8aI4vbnB1qznYD0AcK8rf3AwwcEeAOnCVf8+121v8aJ6yMnjXHXVVVf9JwGgctVVV131Iri4XPKimDJZDiP3u+1oxW1HK/4/Od4/hGP9aUKF/wy7yxUvqv31wFVXXXXVfxIAgquuuuqqF8HvPu0ZvCh+56m30mz+P3vxY+/IY4+9PVVz/jPcenGXZ1zc5UXxG09+GlddddVV/0kACK666qqrXgQ/9XdP4G/vupcXJm0+/9d+l6v+833Or/4O/5Kf/vsn8Dd33ctVV1111X8SACpXXXXVVS+Aeba0ebcf/El+9QPfnet3tnluafPJP//r/MGtt/M/0awc4/r5y/BAtx7+Ng90vH8wx7sHc79V2+We1V/zP9H3/8Xf8moPvpn3e6WX5fn527vu5YN+7Oe46qqrrvpPBEDlqquuuuoFEM/pifed4+W+6lv5xNd5Nd7k0Q/nwSdPcHG55E9vu5Ov/J0/4g9vvZ3/qeZxjIdsvQ4PdOvhb/NAx7sH85Ct1+F+u8Ot3LP6a/610o104z/bh/zEL/BrT3oaH/QqL8dL3nAdG13lCfed48f/9vF8/e//Cctx4qqrrrrqPxEAlauuuuqqF8A8r3OHR3ziz/8an/jzv8b/JkMecNfRX/DCHEx3c9fRX3C/ZTvHv8Ufnvtyjm2c4dVOvzNz/nP95N89np/8u8dz1VVXXfXfAIDKVVddddX/A8t2gSfu/ywvzLn1Ezm3fiJXXXXVVVe9SACoXHXVVVe9ACc3Ftxy4hj/GXrNGdjh/6qBbRo9AI0ZAzsM9LwwRtxy4hj/WY7NZ1x11VVX/QcCQLbNVVddddVV/+HW6zV//Md/zGu91mtx1VVXXfV/EACVq6666qqrrrrqqquu+tcDoHLVVVddddVVV1111VX/egBUrrrqqquuuuqqq6666l8PgMpVV1111VVXXXXVVVf96wFQueqqq6666qqrrrrqqn89AIKrrrrqqquu+g9w4cIFvvu7v5sf//Ef5/z589zv9ttv5/M///P50R/9UaZp4rbbbuO7v/u7+Ymf+Al2d3d5bj/7sz/LXXfdxf1+8id/ku/+7u/m53/+5wH4jd/4Db77u7+b3/iN3+C/wtOe9jS++7u/m6c+9akA/OZv/ibf/d3fzTiO/PEf/zEf//Efz3+VS5cu8d3f/d088YlP5IX5lm/5Fr7jO76D5+fSpUu85Vu+Jf8WFy9e5Lu/+7v50R/9US5dugTAl37pl/KzP/uzXPX/EgDBVVddddVVV/0HuO222/jIj/xIfuInfoLXfu3XBuCee+7hpV/6pXnGM57Br/zKr1Br5S//8i/5wi/8Qn7oh36It3zLt+S5feZnfiZ///d/z/0++ZM/md/93d/l7rvvBuBrvuZr+Mmf/Ek+7uM+js/4jM/gP9sf//Ef86Ef+qF893d/NwAf9VEfxQd90AexXq956EMfypu/+ZtzvwsXLjCOI/c7ODhgvV4DcHR0xMHBAf8ev/Zrv8bHfuzH8rVf+7U80O7uLtM0AXDu3Dme9rSn8dSnPpXnZ3Nzk/d+7/fmge677z4e6ODggOVyyXO78847+fAP/3B+9md/ljd6ozcC4HVe53V4iZd4Ce53dHTEwcEBV/2/AEBw1VVXXXXVVf9Btra2+LzP+zye9KQnAfCd3/mdvN7rvR7f9m3fxnd8x3dwv4c//OF84Ad+IPfccw8vivd93/flAz7gA7jfW77lW/JN3/RNfPu3fzv/FR772MfyJ3/yJ+zv71NKwTYAf/iHf8hnf/ZnA/C93/u93HjjjXz0R380AMePH+d1Xud1+KM/+iP+7M/+jOuuu44bbriB3/u93+Pf6rd+67d4n/d5H37v934PgAsXLnDjjTfyMi/zMjztaU/jW7/1W7npppv4lV/5Fe63sbHBHXfcwRu+4Rvywz/8w5w7d453fdd3BeDLv/zLefVXf3Ue9rCH8XEf93EA/Nqv/RrXXXcdN9xwA3/3d3/Hc9vY2OCLvuiL+Iu/+AsAvu7rvo6f+7mfA2BnZ4c3fMM35EEPehDnzp3jqv/zAAiuuuqqq/4d7rrrLl77tV+b137t1+a1X/u1ee3Xfm1e+7Vfm+/+7u8G4Jd/+Zd5wzd8Q17/9V+f7/3e7+V+n/AJn8Brv/Zr89qv/dp86Id+KHfddRcvzK/92q/x2q/92pw7dw6AH/uxH+P1X//1GYaBP/7jP+a1X/u1ee3Xfm1e+7Vfm4/6qI8C4MKFC7z2a782r/3ar81rv/Zr89qv/dp8xVd8BY973ON43dd9XVprvN7rvR6XLl3ind/5nfn1X/91rvr3OX/+PK//+q/PO7zDOwDwjGc8g0c84hF87ud+Lq/92q/NXXfdBcBv//Zv867v+q684Ru+IS+Kd3iHd+BDPuRDeKCbbrqJe+65h/8KD3/4w3nyk5/Mn/zJn/DKr/zKANjmgb7ru76Lb/3Wb+UbvuEbAFitVnzhF34hr/3ar823fMu38Bmf8Rl80Rd9Ed/4jd/Iv9Xv/u7v8t7v/d7cddddnDt3DoC77rqLn//5n+eRj3wkP/ZjP8Y3fMM38DIv8zK8qE6ePMlP/uRP8iu/8isAfN3XfR3f+I3fyEd+5Efybd/2bTy3/f193vZt35bXfM3X5Lnt7+/z7d/+7dx00038+Z//OVf9nwdAcNVVV13177C9vc17v/d7897v/d78zu/8Do9+9KN57/d+b176pV+as2fP8s7v/M486lGP4jVe4zV4n/d5H/7yL/8SgL/5m78hM3nv935v/uEf/oFXfdVXZRxHXpAXe7EX43d+53f47d/+bQB++Id/mGma6Puem266ifd+7/fmj/7oj3jIQx7CG7/xGwMwDAO/8zu/wyu/8ivz3u/93rz3e783r/Iqr8KJEyf4rd/6Lf70T/+U3/zN3+RJT3oSP/VTP8ViseCqf5/t7W1e4RVegQc96EEAnDlzhvvuu48P+ZAP4a//+q9ZrVYAvPZrvzZ/8id/wrd8y7fQWuNf8mM/9mN80zd9Ew90++23c8011/Bf5bGPfSzf/d3fzau8yqsAIIkH2t/f59prr+WBXuIlXgKAixcvcuzYMY4fP87Fixf5tzh37hx///d/z0u+5Ety/vx5fvd3f5f7vdiLvRgAh4eHnD59muPHj3M/SWQm6/Wa5+eaa65hc3OTaZoAuHjxIseOHePYsWNcunSJ59Z1HZ/yKZ/Cz/3cz/H8XHvttWxubjJNE1f9nwdAcNVVV13177C9vc17v/d7897v/d4AvOZrvibv/d7vzUu/9EvzUz/1UwzDwFd/9VfzWZ/1WbzMy7wM3/Vd38X9Hv7wh/Pe7/3efMEXfAHPeMYzuO2223hBbrjhBl7+5V+e3/zN3wTgN3/zN3nzN39zAG666Sbe+73fm67reNVXfVXe5E3eBADbALzRG70R7/3e7817v/d786qv+qpcf/31LBYLfvM3fxOA3/qt32IYBh72sIdx1b9P3/d8yqd8Ct/6rd/KarXiHd/xHfmpn/opvuu7vothGLjfU57yFD7t0z6Nm2++mVIKz+37vu/7+LZv+zbu953f+Z1827d9G/f72Z/9WT7ogz6I937v9+a/yqu8yqvwoz/6o7zyK78yALZ5oJd4iZfgm7/5m/mJn/gJntsrv/Ir8z3f8z18//d/P6/4iq/Iv8Xv/u7v8jqv8zrY5rM+67P47d/+bZ7box71KL7ru76L3/3d3+V+Z86c4cu+7Mv467/+a2zz/Njmfq/8yq/Mt3zLt/ATP/ETvPzLvzzPbT6f87Zv+7ZsbGzwwtjmqv/zACif/dmf/dlcddVVV/0H+JzP+Rze7u3ejpd4iZcA4Nd+7df427/9Wz7+4z8egJ/5mZ+htcbbv/3b833f933cd999SOJbvuVbGMeRz/iMzyAieEHuuecefv7nf55XeZVX4Wu/9mv5hm/4Bk6dOsX9vvALv5A3eZM34WVf9mUBODw85Cu+4iv45V/+Zb7+67+er/7qr+Zt3/ZtOXbsGD/yIz/Cvffei20uXbrEPffcwxd90RfxH6m1xh133MGDH/xg/r/Y2tri7d7u7ai1csMNN/CYxzyGl33Zl+VpT3sab/7mb85rv/Zr03UdEcGNN97Il37pl3LixAme22w2Y3t7m5d7uZcDYDabsb29zcu93MsBMJvNeM3XfE0+/uM/nlIK/9muvfZaXuu1XoszZ87wtm/7tgC81mu9FqUUTp8+zUu/9Evz2q/92pw7d45Tp07x6Ec/GoDXfM3XpO97XvEVX5FxHLn++uv5uI/7OLqu41/r7rvv5pVe6ZV4xCMewTXXXENm8tIv/dJ0Xcdrv/ZrA/CyL/uynD9/nvd5n/fhoQ99KA996EN5tVd7NS5evMgHfMAH8OhHP5prrrmGvu95zdd8TQBuvvlmHv3oR3Ps2DFe8RVfkdd4jdfg4sWLPOYxj+HDPuzDKKXwQJubm7zaq70aD/SYxzyGm266CUm89mu/NrVWXvZlX5ZTp05x1f9pAMi2ueqqq676DyCJH/iBH+Bd3/VdAfjSL/1Svuqrvoq7774bgDd+4zfm9OnTfP/3fz9v+IZvyN/93d/xqEc9iuuuu47P//zP5+EPfzgvzF/91V/xsi/7snzsx34sv/iLv8jjH/94Hmhra4uv/uqv5v3f//0BuOeee7j++uv5qq/6Kl76pV8agFd6pVdisVjw1m/91vzyL/8yH/IhH8K3fMu38KhHPYq/+qu/4j/Ser3mj//4j3mt13otrrrqqqv+DwIguOqqq676T/ISL/ES3HfffZw7d45hGPj7v/97XuqlXor7vcmbvAm//du/zQ//8A/z8Ic/nH/Jy7zMy3DTTTfxTd/0TbzFW7wFz49t7mcbgJd6qZfitV/7tXnt135tFosFAA972MNYr9e8zdu8Dcvlkoc97GFcddVVV131rwJAcNVVV131n+SN3uiNePVXf3Ve7uVejpd4iZdgsVjwgR/4gfx7vPmbvznL5ZK3fMu35H5//Md/zGu/9muzWq348i//cj7yIz+SB/qYj/kYXvu1X5vXfu3X5ku/9EsBeNjDHkZE8Iqv+Ipcd911PPzhD+eqq6666qp/FQBk21x11VVX/Qf47d/+bR7zmMdw7bXXcr9pmvi93/s91us1r/Var8VisQDgb/7mb5jNZjz60Y/mX+Puu+/miU98Iq/xGq9BKQWA8+fP83d/93fc79ixY7zMy7wMwzDwh3/4hzzQddddx6Mf/WjOnj3Lk570JF7t1V6Nv/iLv+Caa67h5ptv5j/Ser3mj//4j3mt13otrrrqqqv+DwJAts1VV1111VX/4dbrNX/8x3/Ma73Wa3HVVVdd9X8QAJWrrrrqqquuehHY5u677+a+++7j8PCQaZr43+bVXu3VWJ5/P3K6g/9Ndm74RQ4//U3x+Tv5HycK2jlFecQr0L/Oe1Ae+tJc9f8GAJWrrrrqqquu+hccHh7yD//wD2xtbfGgBz2Ira0tSikcHR1x/vx5br/9dlprXPWfyOZ/pGx49z6mP/sFpj/7RbpXf3tm7/yZqHZc9X8eAMFVV1111VVXvRDDMPB3f/d33HDDDTzo4Y/i6/7sLK/y9X/EH73X23PHp38EZ8YVL/3SL03XdVz1/50Zf//HWP/I53PV/wsABFddddVVV131Qjz96U/n1KlTbJ26ltf4+t/ns37lifzFHZdYPeOp3PfTP8JfvsWrMf31n/HYxz6W/2iPe9zjeOITn8h/pYODiTvvWvFvdXjUuOfeNS+q2+9c8X/N+Hs/QnvaX3HV/3kABFddddVVV131AkzTxH333cctt9zCh/zE3/FXd+7xbAIgl0c87sPfnS3BsWPHeEHe9E3flLd/+7fnHd7hHfiGb/gGXhS/9mu/xu/8zu/wX+Vv/m6fl3n1P+Ld3u/veJO3/QuGIfn13zrPmQf/Fi/5yn/IY1/hD/iTP78EwHt90N9xwyN/hwc99nf5nC9+KgB/8dd7vPxr/jGv8np/wsd88hN4oC//2lu58ZG/w/1uv2PFq7zen/Dab/Jn/GdbfNR3svUVf8zWl/4+3Su/FZfVnu6V34rFR3wb3au+HQ8UNz+G7W/8B8qjX4V/q+G3foCr/s8DILjqqquuuur/lMzkP8re3h6LxYJlBj/213fxgky7Fzn7iz/JyZMneWG+7Mu+jG/5lm/hx37sx9jd3cU2P/3TP80Xf/EX89u//dvc7zd+4zf48i//cu68807+K332Fz2Vj/zgB/Hbv/QKXHftjCc95QiAhz5kwd/+8avywe93E1/61U8H4Hu+5SV449c/xcd++IP4rE9+GACf9QVP4eM/8kE8/s9fnV/5jfP83h9eBOApTzvie3/wLh7ooz/5Cbz7O13PH//mK/FfYf1TX8nRV7wHs3f9HHTqBuLMLZTHvBpx6gaIwrNEMH/nz8CrQ/492pP+hKv+zwOgctVVV1111X+q3/md3+F/q77v2dra4o7dJc3mfiePNZ72oOt41G1P4n7rO29n3ve8ME94whO4ePEip06dYnNzk1/8xV/k537u53iv93ovvu7rvo5bbrmFxWLBl3/5l/Opn/qp/NAP/RD/lZ526xEf82EP4p5713zOpz6MM6d77rl3zdEy+c3fvcBf/NUep0/1vCC337Hi4Q/dYD4PHvKgBbfetuQ1XvUEH/spT+SzPuVhfOQnPAGA1Sr5rd+9wDiYr/qGZ/CpH/9Q3vc9buQ/W977dHzuDsrNj2X6619n9V2fyOIjv4MH6l73PZn+/nfptk7w7+H981z1fx4Alauuuuqqq/5T9H3PK73SK/FfaRxH/vIv/5JXeqVX4j/CpUuXuOOOO3jo8QUh6CqcfvA9nNt4Kh9484vz5o+4ng//pd9lcffdzG68hWEYeGF+//d/n7/8y7/kMz/zM+m6jj/7sz/j6OiIn/zJn2S9XvOkJz2JxWLBgx/8YF7jNV6Dv/zLv+S/UoQYx+T7fuguvvHbb+cbvvIx9F2wtzfx4z91D498+CYf+SG38IKUIjK5LNN0VXz/D9/FwWHj9jtWDGPyR3+6y8MeskEmfO+3vTi/94e7fMGXPY33fY8beaEk/kPUDtrE86MT1zN74w9k/dNfheZb1Ee9Eu0Jf8S/hTZPcNX/eQBUrrrqqquu+k8hifl8zn+liABgPp/zH6GUwhOf+EQ2InnbV17wm8s/4M5pHxqX/fzNp/itD3gbPvZvns6rvOFb8A+338EL8/7v//78xm/8Br/8y7/Mq7zKq3D99dfTWuOTPumTeOpTn8qLvdiL8ZSnPIX77ruP/f19Lly4wI033sh/lZd8sW1+/pfP8jmf9nB+5Cfv4X7XXdvzjV/1WB7o3vvWHB0lu5cmLlwcOXmi47GP3uIP/niXxz5mi79//AEv8WLb3H7nijd83VPcdc8agPMXRl7hZTtOnez4i7/e4+nPWHLyZMe/yObfQ1vH6V75rdH2SdpT/5LnR92M4bd/EB2/FkpF26f4tyqPfAWu+j8PgOCqq6666qqrXoCu67j22mt52tOexle88ctRq3luh4JHfMSncMlw6dIlXpCXfMmXZD6f807v9E4cHBxw7tw53uM93oP5fM6HfdiH8XM/93McHR3x6Ec/mld/9VfnQz7kQ5DE9ddfz3+Vz/v0h/OUpx3x5m//l7zCyx7jlV7uGCeOd7zsS+/w3L7i657BweHEn/3lJX7gR+8G4Cu+8JH84Z/s8sZv/Rd83qc9nBd7zBZv/Pqn+eSPfQgf9SG38FqvfpI3f+Mz1Cq++Wsey6d+9pP5qZ+7l6/8wkfxnynveCL1sa9OfZk35Ogr3wsf7XG/vPOJ+NJ9AOR9tzL8/Ncz/PzXM/397zL87g/zb9W/3ntx1f95AMi2ueqqq6666v+EYRj4oz/6I17rtV6L/yjDMPCXf/mXXH/99Zy84Tq+80l/yi/c8TjOr4947esexgc86pW5nhl///d/zzRN/E/2aq/2aizPvx853cH/Jjs3/CKHn/6m+Pyd/G/Qvea7MH/Xz+Kq//MAqFx11VVXXXXVC9H3PS/xEi/B3/3d33H+/Hne9eZH86GPfGVKKRwcHHD33XfzN/fei22uuqq+wpszf6dP5ar/FwCoXHXVVVddddW/YHNzk5d/+Zfnnnvu4c477+Txj388trnqKgBtHqc89tXoXuVtqI95NZC46v8FAGTbXHXVVVdd9X/CMAz80R/9Ea/1Wq/Ff6bMZBgG/reZzWY4z4Eb/5tEvQ5fvAfnxP80qjN07AxX/b8EQOWqq6666qqr/pUigvl8zv9GKmf430gnrkNcddX/KABUrrrqqquuuuqqq6666l8PgMpVV1111VVXvYjGceTcuXMcHR0xTRO2+d/kkY98JMP+d5B5gf9NNk58POuf+HJ8cJH/caKi7ZOUR74i9dGvAlG46v8NACpXXXXVVVdd9S+wze23385tt93G1tYWW1tbdF3Hcrlkd3eXaZr43+DhD3844+r3yekO/jfx8Y9m/ItfwRfu4n+sX/5W4oZHMH/3z6U89GW46v8FAIKrrrrqqquu+hf8wz/8A/feey8v8zIvw/bNj+SX7inEn/wuN1y4l1d6pVfiuuuu46qr8q4nc/QV78n4N7/JVf8vAFC56qqrrrrqqhfirrvu4vDwkJd5mZfhy3/3GXzmLz+RZvPYP/9qumc8ieOv+to85ht/AIB77rmHq/6fayPr7/4k6uf+Cto+yVX/pwFQueqqq6666qoXwDa33XYbD3/4w/n2P7uLT/ulJ/As5rLdP/xtHvdB78yL/8AvcP78ecZx5Pk5ODjgm7/5m7n33nt5q7d6K1791V+d/8me/owln/n5T6E186kf/1Be/LFbfN8P38Uf/ckuSLz2q5/gHd/2Ovb2Jj75s57E/T7ig2/hMY/a4h+ecMDnffHTOH6s8rmf/nCuOdMzDMkXfvnT+LvHHfCxH/4gXu2VT/Aik/i36t/g/YgbHo4v3M3w69+Fl/sA0M+pL/E6ePde2lP/EoDu1d+B8rCXBaA97a8Yf+9H+dfycp/ht76P2Vt+FFf9nwZAcNVVV1111VUvwMHBAZnJzvGTfPavPJEX5NKf/B6Xfv83OXPmDC/Il37plzKOI2/0Rm/E537u53J0dATA2bNnGceRv//7v+fg4ID7PeUpT+Guu+7igc6fP8/jH/947nd0dMSlS5e4/fbbufPOO/mP0pp563f+K17mJbd5scdu8SEf8zgA/vjPLmHgLd7kDJ/6OU/mN377PPN58K7veD0/+GP38LqvdYrrrp0xTeZt3uWvee3XOMHOTuV9PuTvAfieH7yLP/zTS7zlm57h3d7v71itk/8K5bGvhg8uYicbn/LjUDri2oew9QW/yfzdP5e4/uHcr77sG+HDXdqT/pS8+2n8W01//etc9X8eAJWrrrrqqqv+z3nCE57Af4Rpmtjc3OTpF444ezjwQC7BA+3/9Z+x9aiX4AX5kz/5E77lW76FBz/4wbzkS74kfd8D8DEf8zH0fc/u7i7v+77vy5u/+Zvz5V/+5fzN3/wNq9WK93qv9+LN3/zN+b3f+z2+/uu/nq2tLU6ePMmXfdmX8au/+qv8yI/8CNdeey1PfOIT+dqv/Voe8YhH8O/15Kcece78yMd+xIOZJvOe73wD93vQzQve5A1O84iHbXDrbSte77WDV3+VEwC8/MvscOJ4x+OecMDBYeOD3+9mbr9zxUu80h8yDMnf/sM+r/uaJ3n0IzbZ32/cdvuSRz58kxeJzb9H3nsr4+//KP1rvCPlYS9Du/XvOPj012fxQV/HA8WJ6/DufcTNj2V6wh/xb5VnbwMbJK76PwuA4Kqrrrrqqv9z5vM58/mc+XzOfD5nPp8zn8+Zz+fM53Pm8znz+Zz5fM58Pmc+nzOfz5nP58znc+bzOfP5nL7vsc28C+536sTEmRd7Ih/2jq/F41/+pblfzObY5gVZr9f0fc9nfuZn8oVf+IXce++93O8t3uIt+Mmf/Ene/M3fnDvvvJOf//mf5+3e7u14zdd8TX7u534OgO/7vu/j5V/+5Xm7t3s7/uZv/oY777wTgFtuuYWv/uqv5hVe4RX467/+a/4jLJeNvg/OnR9463f5Kz7iEx7P/b7p22/nsa/wB9x3duDt3uoanp/VKul7AbC5UQBYrpI2mZ/4mXv5td+6wHweTJP5r+aDXbRxDIYlrI94buMf/TTTX/862jnJ/B0/jX+zUkHiqv/TAKhcddVVV131f86DH/xg/iMcHh7yV3/1V7zksTkvccMG57eezNn50xmzcXZe+OA3e1Xe6GUfy0f84u9y/NVem7v293lBTp48ydmzZ/nwD/9w3ud93oflcsn9HvSgB3G/cRyRRNd1POIRj+DFX/zFARjHka7riAg+6qM+iu3tbQAiAoCu68hM/iOcOd2zfzDR98EnfcxDeNt3+2vu9y7vcB0f9gG3cPNNc16Qa6/pOThoHB42br9jxeZmYWursLVVee3XOMknfcyD+ZpvfAZbW5X/StrYQWduIe99Gs9XqXj/PNM//C5E0L/ph/BvVa5/OFf9nwdA5aqrrrrqqqtegM3NTTY2Nrjnnnv4nLe7lrf9rV+C5Dn8yvXHufbzPoPXf9SLc9+f/ikvyLu+67vy5V/+5TziEY+g6zqOHTvG8/PgBz+Yl37pl+aXfumX2N7e5pGPfCQAb/M2b8P3fu/3cnBwwNmzZ3mzN3sz/rPcdOOct3mLa3in9/ob5vPCox6xyf2OH+u4+aY599vbm/jkz3oSAJ/5BU/hUz7uITzmUVu84eue4u3e/a+5cHHkwz7gZkqIt3qza3jfD/l7brt9yUu++Da33DTnRSbx79G96tvQv/a7Mv3xT5N3P5Xnq010r/q21Fd4c+LYGca/+lX+reorvSVX/Z8HgGybq6666qqr/k8YhoE/+qM/4rVe67X4j7K7u8s//MM/8NIv/dL8zL1P5P1+/0dZtYn7vcfDXo5vfpW340n/8DguXbrEC3Prrbeyu7vLox71KBaLBQCPf/zjuemmm9je3uZ+mcmTnvQkbPOYxzyG+915552cPXuWRz7ykWxsbHDu3Dn29vZ46EMfyjOe8QwWiwXXXHMNL8irvdqrsTz/fuR0By+Kv/irPVozL/cyO5QinvzUI2Z9cMvNc+43DMmf/sUl7vdij9nixPGO1sxf/PUei0XhJR67xf2ecduSu+5Z87IvtcNsFrwodm74RQ4/7U3whbv4t4ibHoUWO+Q9T8P753mguPFR+OACvnSWy7oZ5cEviZd75B1P5N8ibng4G5/6U6h2XPV/GgCyba666qqrrvo/YRgG/uiP/ojXeq3X4j/SHXfcwa233spDH/pQFqeO8/v3Pp2jNvIyJ2/kWnqe8pSncHBwwP90r/Zqr8by/PuR0x38b7Jzwy9y+Glvgi/cxf902jnNxsd9H3HtQ7jq/zwAKlddddVVV131L7jpppuYz+c84xnPYPX0p/OQY8eI6Ln0pFu5++iIq/4LSPyPVjvqS78Bs7f+WOL0TVz1/wIAlauuuuqqq656EZw+fZrTp0+zXC65dOkSq9WKjY0N/jeJCPrNt8F5if9NpEr/uu+Jl/v8T6PaEzc8gvKIV0CLLa76fwWAylVXXXXVVVf9KywWCxaLBf9bzbbemv+N+td7L6666n8YACpXXXXVVVddddVVV131rwdA5aqrrrrqqqv+FVprLJdLpmnif5tjx46R4xOxV/xvUmcvSXva3+Jxzf80KhVtnyKufTBX/b8DQOWqq6666qqrXgRHR0fceuutnDt3joggIhjHkf9NXu3VXo3lxS8ipzv432Tnhl9k+e0fiy/cxf9UOnYN/eu+B/3rvid0M676fwGAylVXXXXVVVf9C+69916e+tSnct111/EKr/AKLBYLAKZp4ty5czzjGc9gtVpx1f9fvnQf65/6CsY//yUWH/S1xOmbuOr/PACCq6666qqrrnoh9vb2eNKTnsQjHvEINs/cyIf+zBM5/Rm/zG+94avw9+/0Rsyf/kRe6qVeivl8zlVX5e2PY/Xdn4Snkav+zwOgctVVV1111VUvxNOf/nRuueUWLmmD1/3q3+P23SUAuVqy96S/4e/e/c155Bd/Iy/xZm/Hn/3Zn/GC/MM//APjODKbzXjkIx9JKYW77rqLX/3VXwXgbd7mbTh27Bj/3Z5+65J77l3z0i+1zWJeuLg78g+PPwDgkQ/f5JozPQB/+/f77O1PAFx3zYyHP2wDgCc95ZBz50de7qV3mM2C+13am3jc4w94lVc6DsBTn37E3fesATh1sucxj9rkP0vc9Ci0cQxfvJc8+wyeQxS0sYMPLvIs/YJyy2NpT/kL/i3aU/6C6a9+he4V3pyr/k8DoHLVVVddddVVL8B6vebSpUs89rGP5TW+8Y+5fXfJc3NrPPGTPpRXeMVX4+TJk1y4cIHn57M/+7M5fvw4mcl8Pudrv/Zr6fue6667ji/7si/j9V7v9Th27Bj/nX7uF+/jYz/1SbzyKxzjcU844Hd/+RX5i7/a4z0/8O942Zfe4SlPW/Kln/cI3vJNr+H7f+RufvJn72Vrs/J+73UjH/GwW/iFXznLJ376k3jMozbZP2j84k+8LKUIgI//tCfyi79yjjuf9FoAfPFXPp2/+4cDTp/qeLVXPs5jHvVQ/rPM3u6TiJPXo/kW45/8LOuf/DI036J/4w+ke5W3Yf1zX8f4+z8KQHnkKzJ/ny+lPfnPaE/5C/6tpj/6abpXeHOu+j8NgMpVV1111VX/5+zu7vIfYX9/n+3tbc4tG39y2y4vUDbO/9rPc/yN3oYLFy7wgnzkR34kj33sY3nDN3xDzp49y3XXXccbv/Eb85Vf+ZXc78KFC3ze530eX/VVX8Xv/M7v8LSnPY33eZ/34cKFC3z91389+/v7vOVbviWv8RqvwX+0b/i22/nUj38I7/PuN/LN33k75y8MANx805yf/7GX5Xt/8C6+5bvu4C3f9Bq+9PMeybnzAy/14tt8xAfdAsBXff0z+KxPfRjv+DbX8TKv9kf85u9c4A1e9xS/+TsX+Mu/2eeB7rxrzUd9yC28zEvt8OhHbvKfbfi172L6299k8/N/nfGPfhKmER9cJM/fwQPN3/WzGX75W8nb/gEksPm3aLf+LVf9nwdA5aqrrrrqqv9znvjEJ/IfISKYz+dcOBp5oDPXHPH7L/4QXvfup+NxBGDavci863hhvvZrv5ZLly7xCq/wClx33XU8P8Mw8Fd/9VcAnD17lltvvRWAL/zCL+QRj3gEb/qmb8qnf/qn87M/+7P0fc9/pLvuWfPwh27wK79xjp2tShQBcGlv4rt/4E5+4Efv4TVf9TgvyH1nB667pgfgphvn3H3vmqNl45M/60l88Wc/nPf+4H/gfhL8xM/cy+d96dP48A+8mQ/9gFv4z+a9c/jsbcS1D2H6619n+PXvojz21bmftk8S1z2U+qhXJt74Axj/4CcYfv7r+bfw6ghskLjq/ywAKlddddVVV/2f80qv9Er8R7hw4QJPfepTecyJBbMabG0P1Buezr26i8++5mH85GNv4cN+40949F/9LYuHPZLVes0L827v9m48/OEP5yM/8iN5/OMfz2Me8xheVE9+8pPZ29vj8Y9/PMePH2d3d5drrrmG/0h9FyyXjXvvG/j8L30aX/0lj6LvgnE099w78J7vcj3v/HbX8YLMZsF6MADLVWMxD77um25jNgt+7bcuMIzJz//yWd78jc/wCz/+sgD88q+f43O/+Kl86Afcwn+JxRZeH/F8dTOwWX7bR1Nf4rWZvcVHMPz81/NvoZ1TIHHV/2kAVK666qqrrrrqBTh27Bjr9ZpoA5/wlsf4kqf8HGM27ve3mx0f9Javzvu87mvy7W/yNvzVP/wDL8yFCxd40pOexHK5ZD6fs7+/z1Of+lRaazz+8Y9nY2ODra0tAP72b/+Wpz3tadzvoQ99KDfeeCNv8iZvwpOf/GSuueYa/qO9yisd4/t++G4+4oNvoYS43+lTHZ/8sQ/hgf727/c5d27k1tuWPOWpRzz8YRu8xque4Ed/8h7W6+QJTzzk1V75BA+6ZcHNN8257+wAwKmTHZnmES/9+3zBZz2cJzzxkOuvnfEvkvj3iGsfTP9mHwZtoj3pz3h+fPFevHeW7pXekvLQlybP3c6/VX3Mq3LV/3kAlM/+7M/+bK666qqrrvo/obXGHXfcwYMf/GD+I0QE0zRxzz338DYv+9L82bnbecreOR7oho0dvvatPxQOVtx99928IGfPnuXuu+/m7rvv5m3f9m15uZd7Oe6++25++qd/moc97GHcfffdXHvttdxyyy0cP36cX//1X+dlXuZluOaaa3jMYx7DK73SK/GUpzyFP/7jP+bmm2/mkY98JP9at9xyC9PyZ3Hu8fy87mud4mlPX/ILv3KW13+dk7zz211Pa2aazGu9+kke6Pt/+G5aM62ZKOIlX2ybV3+VE/z94w74wz/Z5Ys+5xG82GO2uPGGOS/xYts85CEb7O1NvP973YQkXuNVTvCd33cXu5cmvuwLHsWxncoLMtt+N8bf+H5Y7vNvETuniVM3goLVD342HF3ifrFzmrzrSfj8nYCZnvxndK/4ZjDbYP0jnw/rI/7VojB/ny8htk9x1f9pAMi2ueqqq6666v+EYRj4oz/6I17rtV6L/yitNf7yL/+SnZ0dHvrwh/FDT/9rfua2fwDgta97GO/y0Jch9w554hOfSGbyP9mrvdqrsTz/fuR0B/+b7Nzwixx+2pvgC3fxv0H/Fh/B7M0+jKv+zwOgctVVV1111VUvRCmFl3qpl+Lv/u7v+Is/+3Ne58YbeZtXeBSlFA4ODrjziU9hd3eXq/6TSfxv0L/RBzB70w/lqv8XAKhcddVVV1111b+g73te9mVflvPnz3Pu3DnuvfdeWmvYBmA2m/G/gSSinAaP/G8iRBy/lrT5n0alou1TlEe8PN2rvA1x3UO56v8NAGTbXHXVVVdd9X/CMAz80R/9Ea/1Wq/FVVddddV/MgAqV1111VVXXXXVVVdd9a8HQOWqq6666qqrrrrqqqv+9QCoXHXVVVddddWL6PCJ/8B9P/ujHD35CUx7u2D+x1Ep9KfPsPOKr841b/H21GMnuOqqq/5TACDb5qqrrrrqqv8ThmHgj/7oj3it13ot/iPlaslTPvvjuOdHvgds/reox0/wsM/6cq59m3fhqquu+g8HQOWqq6666qqrXogcR/7mHd+Q/b/9C/63mXYv8sSPeT+Ge+7k5g/5eK666qr/UAAEV1111VVXXfVC3PYNX8r+3/4F/5vd+uWfw9GTn8BVV131HwqA4KqrrrrqqqteALeJu77zG/iPcPpN34aX/9W/4GV++nfZesmXBeCx3/gDHHulVwfgQR/96dzwHh8IETzss76MV/y9x/GYr/8+yuYW/15ujTu+7Wu46qqr/kMBEFx11VVXXXXVC7D/13/OtLfLf4Tr3vE9eeInfjD3/eyP8LBP/xIA2tEhp97wLQC4/l3fl+UznsbWi70Us+tv4i/f/FWpx09y/Tu/D/8RLvzur3HVVVf9hwKgctVVV1111f85f/3Xf81/iD/8Xf6j/P17vw2nXu9NOfEar8/+3/0lAOd/7ed50Md8OpuPejHKxia7f/S7eBx4wse8L9e9/XuwuPnB3Pb3f8V/hOHeu2nLJWWx4KqrrvoPAUDlqquuuuqq/zNqrbzYi70Y0zTxH2F53Q3s8R+nO3Mt9fhJcrUC4OLv/QaP/prv4pq3fmcu/Pav4HEAQFHor7sRuxH9nP8I6jrKfM5VV131HwaAylVXXXXVVf9nRASnT5/mP8rqlV+d2/n3i37GzR/68dzx7V/L8tan8Kgv/1Zu/bLPoh0dcvEPfpsb3/tDeNKnfDgAW499SbZe8uW49cs+i7LY4MRrvwEXf+/X+ffaesxLgMRVV131HwaA4KqrrrrqqqtegPnND+b4q7wW/145rFk85OG87M/+Pi/2LT/C3T/4ndzv/K//POo6LvzmLwEwXjjHzR/ycbzMz/0+173ze3PfT/4g/xGue8f34qqrrvoPBYBsm6uuuuqqq656AQ7+4W/467d5bXJY8+/VnTxNjgNtf48XSmJ2/U0M992Dp5F/r60Xf2le5md+F5XKVVdd9R8GANk2V1111VVXXfVC3PdzP84TP/b98Djyv838QQ/lpX74l5ldfxNXXXXVfygAZNtcddVVV1111b9g76/+jDu++Ss4/5u/jMeB/+m609dw7du+Kzd/8MfSnTzNVVdd9R8OANk2V1111VVXXfUiaocH7P/tX7C68zYw/+NE37P5yMey+ZiX4KqrrvpPBYBsm6uuuuqqq6666qqrrvrXAaBy1VVXXXXVVVddddVV/3oAVK666qqrrrrqqquuuupfD4DKVVddddVVV1111VVX/esBULnqqquuuuqqq6666qp/PQAqV1111VVXXXXVVVdd9a8HQOWqq6666qqrrrrqqqv+9QCoXHXVVVddddVVV1111b8eAJWrrrrqqquuuuqqq6761wOgctVVV1111VVXXXXVVf96AFSuuuqqq6666qqrrrrqXw+AylVXXXXVVVddddVVV/3rAVC56qqrrrrqqquuuuqqfz0AKlddddVVV1111VVXXfWvB0Dlqquuuuqqq6666qqr/vUAqFx11VVXXXXVVVddddW/HgCVq6666qqrrrrqqquu+tcDoHLVVVddddVVV1111VX/egBUrrrqqquuuuqqq6666l8PgMpVV1111VVXXXXVVVf96wFQueqqq6666qqrrrrqqn89ACpXXXXVVVddddVVV131rwdA5aqrrrrqqquuuuqqq/71AKhcddVVV1111VVXXXXVvx4Alauuuuqqq6666qqrrvrXA6By1VVXXXXVVVddddVV/3oAVK666qqrrrrqqquuuupfD4DKVVddddVVV1111VVX/esBULnqqquuuuqqq6666qp/PQAqV1111VVXXXXVVVdd9a8HQOWqq6666qqrrrrqqqv+9QCoXHXVVVddddVVV1111b8eAJWrrrrqqquuuuqqq6761wOgctVVV1111VVXXXXVVf96AFSuuuqqq6666qqrrrrqXw+AylVXXXXVVVddddVVV/3rAVC56qqrrrrqqquuuuqqfz0AKlddddVVV1111VVXXfWvB0Dlqquuuuqqq6666qqr/vUAqFx11VVXXXXVVVddddW/HgCVq6666qqrrrrqqquu+tcDoHLVVVddddVVV1111VX/egBUrrrqqquuuuqqq6666l8PgMpVV1111VVXXXXVVVf96wFQueqqq6666qqrrrrqqn89ACpXXXXVVVddddVVV131rwdA5aqrrrrqqquuuuqqq/71AKhcddVVV1111VVXXXXVvx4Alauuuuqqq6666qqrrvrXA6By1VVXXXXVVVddddVV/3oAVK666qqrrrrqqquuuupfD4DKVVddddVVV1111VVX/esBULnqqquuuuqqq6666qp/PQAqV1111VVXXXXVVVdd9a8HwD8C2sLCDElM+lMAAAAASUVORK5CYII=;" vertex="1" parent="1">
          <mxGeometry x="210" y="10" width="479.69" height="420" as="geometry" />
        </mxCell>
        <mxCell id="ZT6ZYekeUi55vI-1DfLU-7" value="https://docs.arduino.cc/resources/pinouts/ABX00083-full-pinout.pdf" style="text;html=1;align=center;verticalAlign=middle;resizable=0;points=[];autosize=1;strokeColor=none;fillColor=none;" vertex="1" parent="1">
          <mxGeometry x="230" y="400" width="410" height="30" as="geometry" />
        </mxCell>
        <mxCell id="ZT6ZYekeUi55vI-1DfLU-17" style="edgeStyle=orthogonalEdgeStyle;rounded=0;orthogonalLoop=1;jettySize=auto;html=1;endArrow=none;endFill=0;entryX=0.088;entryY=0.419;entryDx=0;entryDy=0;entryPerimeter=0;" edge="1" parent="1" source="ZT6ZYekeUi55vI-1DfLU-8" target="ZT6ZYekeUi55vI-1DfLU-25">
          <mxGeometry relative="1" as="geometry">
            <mxPoint x="170" y="560" as="targetPoint" />
          </mxGeometry>
        </mxCell>
        <mxCell id="ZT6ZYekeUi55vI-1DfLU-8" value="" style="shape=waypoint;sketch=0;fillStyle=solid;size=6;pointerEvents=1;points=[];fillColor=none;resizable=0;rotatable=0;perimeter=centerPerimeter;snapToPoint=1;strokeWidth=5;strokeColor=#FF0000;shadow=0;perimeterSpacing=0;gradientColor=none;" vertex="1" parent="1">
          <mxGeometry x="80" y="550" width="20" height="20" as="geometry" />
        </mxCell>
        <mxCell id="ZT6ZYekeUi55vI-1DfLU-18" style="edgeStyle=orthogonalEdgeStyle;rounded=0;orthogonalLoop=1;jettySize=auto;html=1;endArrow=none;endFill=0;entryX=0.064;entryY=0.443;entryDx=0;entryDy=0;entryPerimeter=0;" edge="1" parent="1" source="ZT6ZYekeUi55vI-1DfLU-10" target="ZT6ZYekeUi55vI-1DfLU-24">
          <mxGeometry relative="1" as="geometry">
            <mxPoint x="170" y="600" as="targetPoint" />
          </mxGeometry>
        </mxCell>
        <mxCell id="ZT6ZYekeUi55vI-1DfLU-10" value="" style="shape=waypoint;sketch=0;fillStyle=solid;size=6;pointerEvents=1;points=[];fillColor=none;resizable=0;rotatable=0;perimeter=centerPerimeter;snapToPoint=1;strokeWidth=5;strokeColor=#FFFF33;" vertex="1" parent="1">
          <mxGeometry x="80" y="590" width="20" height="20" as="geometry" />
        </mxCell>
        <mxCell id="ZT6ZYekeUi55vI-1DfLU-19" style="edgeStyle=orthogonalEdgeStyle;rounded=0;orthogonalLoop=1;jettySize=auto;html=1;endArrow=none;endFill=0;entryX=-0.079;entryY=0.49;entryDx=0;entryDy=0;entryPerimeter=0;" edge="1" parent="1" source="ZT6ZYekeUi55vI-1DfLU-11" target="ZT6ZYekeUi55vI-1DfLU-26">
          <mxGeometry relative="1" as="geometry">
            <mxPoint x="170" y="640" as="targetPoint" />
          </mxGeometry>
        </mxCell>
        <mxCell id="ZT6ZYekeUi55vI-1DfLU-11" value="" style="shape=waypoint;sketch=0;fillStyle=solid;size=6;pointerEvents=1;points=[];fillColor=none;resizable=0;rotatable=0;perimeter=centerPerimeter;snapToPoint=1;strokeWidth=5;strokeColor=#CC6600;" vertex="1" parent="1">
          <mxGeometry x="80" y="630" width="20" height="20" as="geometry" />
        </mxCell>
        <mxCell id="ZT6ZYekeUi55vI-1DfLU-13" value="Supply" style="text;html=1;align=center;verticalAlign=middle;resizable=0;points=[];autosize=1;strokeColor=none;fillColor=none;" vertex="1" parent="1">
          <mxGeometry x="20" y="545" width="60" height="30" as="geometry" />
        </mxCell>
        <mxCell id="ZT6ZYekeUi55vI-1DfLU-14" value="Data" style="text;html=1;align=center;verticalAlign=middle;resizable=0;points=[];autosize=1;strokeColor=none;fillColor=none;" vertex="1" parent="1">
          <mxGeometry x="20" y="585" width="50" height="30" as="geometry" />
        </mxCell>
        <mxCell id="ZT6ZYekeUi55vI-1DfLU-16" value="GND" style="text;html=1;align=center;verticalAlign=middle;resizable=0;points=[];autosize=1;strokeColor=none;fillColor=none;" vertex="1" parent="1">
          <mxGeometry x="20" y="625" width="50" height="30" as="geometry" />
        </mxCell>
        <mxCell id="ZT6ZYekeUi55vI-1DfLU-20" value="" style="rounded=0;whiteSpace=wrap;html=1;fillColor=#000000;fillStyle=solid;gradientColor=none;strokeColor=none;strokeOpacity=100;fillOpacity=20;" vertex="1" parent="1">
          <mxGeometry x="26" y="470" width="190" height="220" as="geometry" />
        </mxCell>
        <mxCell id="ZT6ZYekeUi55vI-1DfLU-21" value="Temperature&lt;br&gt;Sensor" style="text;html=1;align=center;verticalAlign=middle;resizable=0;points=[];autosize=1;strokeColor=none;fillColor=none;" vertex="1" parent="1">
          <mxGeometry x="70" y="501.25" width="100" height="40" as="geometry" />
        </mxCell>
        <mxCell id="ZT6ZYekeUi55vI-1DfLU-24" value="" style="shape=waypoint;sketch=0;fillStyle=solid;size=6;pointerEvents=1;points=[];fillColor=none;resizable=0;rotatable=0;perimeter=centerPerimeter;snapToPoint=1;strokeWidth=5;strokeColor=#000000;" vertex="1" parent="1">
          <mxGeometry x="290" y="590" width="20" height="20" as="geometry" />
        </mxCell>
        <mxCell id="ZT6ZYekeUi55vI-1DfLU-25" value="" style="shape=waypoint;sketch=0;fillStyle=solid;size=6;pointerEvents=1;points=[];fillColor=none;resizable=0;rotatable=0;perimeter=centerPerimeter;snapToPoint=1;strokeWidth=5;strokeColor=#000000;" vertex="1" parent="1">
          <mxGeometry x="290" y="550" width="20" height="20" as="geometry" />
        </mxCell>
        <mxCell id="ZT6ZYekeUi55vI-1DfLU-26" value="" style="shape=waypoint;sketch=0;fillStyle=solid;size=6;pointerEvents=1;points=[];fillColor=none;resizable=0;rotatable=0;perimeter=centerPerimeter;snapToPoint=1;strokeWidth=5;strokeColor=#000000;" vertex="1" parent="1">
          <mxGeometry x="290" y="630" width="20" height="20" as="geometry" />
        </mxCell>
        <mxCell id="ZT6ZYekeUi55vI-1DfLU-27" value="GND" style="text;html=1;align=center;verticalAlign=middle;resizable=0;points=[];autosize=1;strokeColor=none;fillColor=none;" vertex="1" parent="1">
          <mxGeometry x="310" y="625" width="50" height="30" as="geometry" />
        </mxCell>
        <mxCell id="ZT6ZYekeUi55vI-1DfLU-28" value="A0" style="text;html=1;align=center;verticalAlign=middle;resizable=0;points=[];autosize=1;strokeColor=none;fillColor=none;" vertex="1" parent="1">
          <mxGeometry x="310" y="585" width="40" height="30" as="geometry" />
        </mxCell>
        <mxCell id="ZT6ZYekeUi55vI-1DfLU-29" value="3V3 OUT" style="text;html=1;align=center;verticalAlign=middle;resizable=0;points=[];autosize=1;strokeColor=none;fillColor=none;" vertex="1" parent="1">
          <mxGeometry x="310" y="545" width="70" height="30" as="geometry" />
        </mxCell>
        <mxCell id="ZT6ZYekeUi55vI-1DfLU-32" style="edgeStyle=orthogonalEdgeStyle;rounded=0;orthogonalLoop=1;jettySize=auto;html=1;exitX=1;exitY=0.5;exitDx=0;exitDy=0;exitPerimeter=0;endArrow=none;endFill=0;" edge="1" parent="1" source="ZT6ZYekeUi55vI-1DfLU-30">
          <mxGeometry relative="1" as="geometry">
            <mxPoint x="275.06666666666666" y="560" as="targetPoint" />
          </mxGeometry>
        </mxCell>
        <mxCell id="ZT6ZYekeUi55vI-1DfLU-33" style="edgeStyle=orthogonalEdgeStyle;rounded=0;orthogonalLoop=1;jettySize=auto;html=1;exitX=0;exitY=0.5;exitDx=0;exitDy=0;exitPerimeter=0;endArrow=none;endFill=0;" edge="1" parent="1" source="ZT6ZYekeUi55vI-1DfLU-30">
          <mxGeometry relative="1" as="geometry">
            <mxPoint x="275.06666666666666" y="600" as="targetPoint" />
          </mxGeometry>
        </mxCell>
        <mxCell id="ZT6ZYekeUi55vI-1DfLU-30" value="" style="pointerEvents=1;verticalLabelPosition=bottom;shadow=0;dashed=0;align=center;html=1;verticalAlign=top;shape=mxgraph.electrical.resistors.resistor_2;rotation=-90;" vertex="1" parent="1">
          <mxGeometry x="260" y="577.5" width="30" height="7.5" as="geometry" />
        </mxCell>
        <mxCell id="ZT6ZYekeUi55vI-1DfLU-34" value="3.3k&amp;nbsp;&lt;span class=&quot;_97w2Z3njlMm7Og_zyqu4&quot;&gt;Ω&lt;/span&gt;" style="text;html=1;align=center;verticalAlign=middle;resizable=0;points=[];autosize=1;strokeColor=none;fillColor=none;" vertex="1" parent="1">
          <mxGeometry x="270" y="566.25" width="60" height="30" as="geometry" />
        </mxCell>
        <mxCell id="ZT6ZYekeUi55vI-1DfLU-35" value="&lt;b&gt;&lt;u&gt;WATER TANK MICROCONTROLLER&lt;/u&gt;&lt;/b&gt;" style="text;html=1;align=center;verticalAlign=middle;resizable=0;points=[];autosize=1;strokeColor=none;fillColor=none;" vertex="1" parent="1">
          <mxGeometry x="26" y="740" width="220" height="30" as="geometry" />
        </mxCell>
        <mxCell id="ZT6ZYekeUi55vI-1DfLU-36" value="DS18B20" style="text;html=1;align=center;verticalAlign=middle;resizable=0;points=[];autosize=1;strokeColor=none;fillColor=none;" vertex="1" parent="1">
          <mxGeometry x="85" y="471.25" width="70" height="30" as="geometry" />
        </mxCell>
        <mxCell id="ZT6ZYekeUi55vI-1DfLU-39" value="HCSR04&lt;div&gt;Sonic sensor&lt;/div&gt;" style="text;html=1;align=center;verticalAlign=middle;resizable=0;points=[];autosize=1;strokeColor=none;fillColor=none;" vertex="1" parent="1">
          <mxGeometry x="76" y="943" width="90" height="40" as="geometry" />
        </mxCell>
        <mxCell id="ZT6ZYekeUi55vI-1DfLU-51" style="edgeStyle=orthogonalEdgeStyle;rounded=0;orthogonalLoop=1;jettySize=auto;html=1;endArrow=none;endFill=0;entryX=0.029;entryY=0.61;entryDx=0;entryDy=0;entryPerimeter=0;" edge="1" parent="1" source="ZT6ZYekeUi55vI-1DfLU-41" target="ZT6ZYekeUi55vI-1DfLU-66">
          <mxGeometry relative="1" as="geometry">
            <mxPoint x="310" y="1060" as="targetPoint" />
          </mxGeometry>
        </mxCell>
        <mxCell id="ZT6ZYekeUi55vI-1DfLU-41" value="" style="shape=waypoint;sketch=0;fillStyle=solid;size=6;pointerEvents=1;points=[];fillColor=none;resizable=0;rotatable=0;perimeter=centerPerimeter;snapToPoint=1;strokeWidth=5;strokeColor=#009900;" vertex="1" parent="1">
          <mxGeometry x="80" y="1050" width="20" height="20" as="geometry" />
        </mxCell>
        <mxCell id="ZT6ZYekeUi55vI-1DfLU-50" style="edgeStyle=orthogonalEdgeStyle;rounded=0;orthogonalLoop=1;jettySize=auto;html=1;endArrow=none;endFill=0;entryX=0.052;entryY=0.538;entryDx=0;entryDy=0;entryPerimeter=0;" edge="1" parent="1" source="ZT6ZYekeUi55vI-1DfLU-42" target="ZT6ZYekeUi55vI-1DfLU-67">
          <mxGeometry relative="1" as="geometry">
            <mxPoint x="310" y="1020" as="targetPoint" />
          </mxGeometry>
        </mxCell>
        <mxCell id="ZT6ZYekeUi55vI-1DfLU-42" value="" style="shape=waypoint;sketch=0;fillStyle=solid;size=6;pointerEvents=1;points=[];fillColor=none;resizable=0;rotatable=0;perimeter=centerPerimeter;snapToPoint=1;strokeWidth=5;strokeColor=#FF0000;" vertex="1" parent="1">
          <mxGeometry x="80" y="1010" width="20" height="20" as="geometry" />
        </mxCell>
        <mxCell id="ZT6ZYekeUi55vI-1DfLU-52" style="edgeStyle=orthogonalEdgeStyle;rounded=0;orthogonalLoop=1;jettySize=auto;html=1;endArrow=none;endFill=0;entryX=0;entryY=0.5;entryDx=0;entryDy=0;" edge="1" parent="1" source="ZT6ZYekeUi55vI-1DfLU-43" target="ZT6ZYekeUi55vI-1DfLU-86">
          <mxGeometry relative="1" as="geometry">
            <mxPoint x="310" y="1100" as="targetPoint" />
          </mxGeometry>
        </mxCell>
        <mxCell id="ZT6ZYekeUi55vI-1DfLU-43" value="" style="shape=waypoint;sketch=0;fillStyle=solid;size=6;pointerEvents=1;points=[];fillColor=none;resizable=0;rotatable=0;perimeter=centerPerimeter;snapToPoint=1;strokeWidth=5;strokeColor=#FFFF00;" vertex="1" parent="1">
          <mxGeometry x="80" y="1090" width="20" height="20" as="geometry" />
        </mxCell>
        <mxCell id="ZT6ZYekeUi55vI-1DfLU-53" style="edgeStyle=orthogonalEdgeStyle;rounded=0;orthogonalLoop=1;jettySize=auto;html=1;endArrow=none;endFill=0;entryX=0.148;entryY=0.729;entryDx=0;entryDy=0;entryPerimeter=0;" edge="1" parent="1" source="ZT6ZYekeUi55vI-1DfLU-44" target="ZT6ZYekeUi55vI-1DfLU-88">
          <mxGeometry relative="1" as="geometry">
            <mxPoint x="310" y="1140" as="targetPoint" />
          </mxGeometry>
        </mxCell>
        <mxCell id="ZT6ZYekeUi55vI-1DfLU-44" value="" style="shape=waypoint;sketch=0;fillStyle=solid;size=6;pointerEvents=1;points=[];fillColor=none;resizable=0;rotatable=0;perimeter=centerPerimeter;snapToPoint=1;strokeWidth=5;strokeColor=#663300;" vertex="1" parent="1">
          <mxGeometry x="80" y="1130" width="20" height="20" as="geometry" />
        </mxCell>
        <mxCell id="ZT6ZYekeUi55vI-1DfLU-45" value="Supply" style="text;html=1;align=center;verticalAlign=middle;resizable=0;points=[];autosize=1;strokeColor=none;fillColor=none;" vertex="1" parent="1">
          <mxGeometry x="16" y="1005" width="60" height="30" as="geometry" />
        </mxCell>
        <mxCell id="ZT6ZYekeUi55vI-1DfLU-46" value="Trigger" style="text;html=1;align=center;verticalAlign=middle;resizable=0;points=[];autosize=1;strokeColor=none;fillColor=none;" vertex="1" parent="1">
          <mxGeometry x="15" y="1045" width="60" height="30" as="geometry" />
        </mxCell>
        <mxCell id="ZT6ZYekeUi55vI-1DfLU-47" value="Echo" style="text;html=1;align=center;verticalAlign=middle;resizable=0;points=[];autosize=1;strokeColor=none;fillColor=none;" vertex="1" parent="1">
          <mxGeometry x="15" y="1085" width="50" height="30" as="geometry" />
        </mxCell>
        <mxCell id="ZT6ZYekeUi55vI-1DfLU-48" value="GND" style="text;html=1;align=center;verticalAlign=middle;resizable=0;points=[];autosize=1;strokeColor=none;fillColor=none;" vertex="1" parent="1">
          <mxGeometry x="15" y="1125" width="50" height="30" as="geometry" />
        </mxCell>
        <mxCell id="ZT6ZYekeUi55vI-1DfLU-49" value="" style="rounded=0;whiteSpace=wrap;html=1;rotation=-90;fillOpacity=20;fillColor=#000000;strokeColor=none;" vertex="1" parent="1">
          <mxGeometry y="960" width="240" height="190" as="geometry" />
        </mxCell>
        <mxCell id="ZT6ZYekeUi55vI-1DfLU-66" value="" style="shape=waypoint;sketch=0;fillStyle=solid;size=6;pointerEvents=1;points=[];fillColor=none;resizable=0;rotatable=0;perimeter=centerPerimeter;snapToPoint=1;strokeWidth=5;strokeColor=#000000;" vertex="1" parent="1">
          <mxGeometry x="475" y="1050" width="20" height="20" as="geometry" />
        </mxCell>
        <mxCell id="ZT6ZYekeUi55vI-1DfLU-67" value="" style="shape=waypoint;sketch=0;fillStyle=solid;size=6;pointerEvents=1;points=[];fillColor=none;resizable=0;rotatable=0;perimeter=centerPerimeter;snapToPoint=1;strokeWidth=5;strokeColor=#000000;" vertex="1" parent="1">
          <mxGeometry x="475" y="1010" width="20" height="20" as="geometry" />
        </mxCell>
        <mxCell id="ZT6ZYekeUi55vI-1DfLU-68" value="" style="shape=waypoint;sketch=0;fillStyle=solid;size=6;pointerEvents=1;points=[];fillColor=none;resizable=0;rotatable=0;perimeter=centerPerimeter;snapToPoint=1;strokeWidth=5;strokeColor=#000000;" vertex="1" parent="1">
          <mxGeometry x="475" y="1090" width="20" height="20" as="geometry" />
        </mxCell>
        <mxCell id="ZT6ZYekeUi55vI-1DfLU-72" value="" style="pointerEvents=1;verticalLabelPosition=bottom;shadow=0;dashed=0;align=center;html=1;verticalAlign=top;shape=mxgraph.electrical.resistors.resistor_2;rotation=-90;" vertex="1" parent="1">
          <mxGeometry x="320" y="903" width="40" height="10" as="geometry" />
        </mxCell>
        <mxCell id="ZT6ZYekeUi55vI-1DfLU-73" value="" style="pointerEvents=1;verticalLabelPosition=bottom;shadow=0;dashed=0;align=center;html=1;verticalAlign=top;shape=mxgraph.electrical.resistors.resistor_2;" vertex="1" parent="1">
          <mxGeometry x="360" y="945" width="40" height="10" as="geometry" />
        </mxCell>
        <mxCell id="ZT6ZYekeUi55vI-1DfLU-74" style="edgeStyle=orthogonalEdgeStyle;rounded=0;orthogonalLoop=1;jettySize=auto;html=1;endArrow=none;endFill=0;" edge="1" parent="1" source="ZT6ZYekeUi55vI-1DfLU-75">
          <mxGeometry relative="1" as="geometry">
            <mxPoint x="330" y="950" as="targetPoint" />
          </mxGeometry>
        </mxCell>
        <mxCell id="ZT6ZYekeUi55vI-1DfLU-91" style="edgeStyle=orthogonalEdgeStyle;rounded=0;orthogonalLoop=1;jettySize=auto;html=1;entryX=1;entryY=0.5;entryDx=0;entryDy=0;endArrow=none;endFill=0;" edge="1" parent="1" source="ZT6ZYekeUi55vI-1DfLU-75" target="ZT6ZYekeUi55vI-1DfLU-90">
          <mxGeometry relative="1" as="geometry" />
        </mxCell>
        <mxCell id="ZT6ZYekeUi55vI-1DfLU-75" value="" style="shape=waypoint;sketch=0;fillStyle=solid;size=6;pointerEvents=1;points=[];fillColor=none;resizable=0;rotatable=0;perimeter=centerPerimeter;snapToPoint=1;" vertex="1" parent="1">
          <mxGeometry x="330" y="940" width="20" height="20" as="geometry" />
        </mxCell>
        <mxCell id="ZT6ZYekeUi55vI-1DfLU-76" style="edgeStyle=orthogonalEdgeStyle;rounded=0;orthogonalLoop=1;jettySize=auto;html=1;entryX=0;entryY=0.5;entryDx=0;entryDy=0;entryPerimeter=0;endArrow=none;endFill=0;" edge="1" parent="1" source="ZT6ZYekeUi55vI-1DfLU-75" target="ZT6ZYekeUi55vI-1DfLU-72">
          <mxGeometry relative="1" as="geometry" />
        </mxCell>
        <mxCell id="ZT6ZYekeUi55vI-1DfLU-77" style="edgeStyle=orthogonalEdgeStyle;rounded=0;orthogonalLoop=1;jettySize=auto;html=1;entryX=0;entryY=0.5;entryDx=0;entryDy=0;entryPerimeter=0;endArrow=none;endFill=0;" edge="1" parent="1" source="ZT6ZYekeUi55vI-1DfLU-75" target="ZT6ZYekeUi55vI-1DfLU-73">
          <mxGeometry relative="1" as="geometry" />
        </mxCell>
        <mxCell id="ZT6ZYekeUi55vI-1DfLU-78" value="" style="pointerEvents=1;verticalLabelPosition=bottom;shadow=0;dashed=0;align=center;html=1;verticalAlign=top;shape=mxgraph.electrical.signal_sources.protective_earth;" vertex="1" parent="1">
          <mxGeometry x="360" y="888" width="10" height="12" as="geometry" />
        </mxCell>
        <mxCell id="ZT6ZYekeUi55vI-1DfLU-79" style="edgeStyle=orthogonalEdgeStyle;rounded=0;orthogonalLoop=1;jettySize=auto;html=1;entryX=1;entryY=0.5;entryDx=0;entryDy=0;entryPerimeter=0;endArrow=none;endFill=0;" edge="1" parent="1" source="ZT6ZYekeUi55vI-1DfLU-78" target="ZT6ZYekeUi55vI-1DfLU-72">
          <mxGeometry relative="1" as="geometry">
            <Array as="points">
              <mxPoint x="365" y="870" />
              <mxPoint x="340" y="870" />
            </Array>
          </mxGeometry>
        </mxCell>
        <mxCell id="ZT6ZYekeUi55vI-1DfLU-80" value="2k Ω" style="text;html=1;align=center;verticalAlign=middle;resizable=0;points=[];autosize=1;strokeColor=none;fillColor=none;" vertex="1" parent="1">
          <mxGeometry x="340" y="893" width="50" height="30" as="geometry" />
        </mxCell>
        <mxCell id="ZT6ZYekeUi55vI-1DfLU-81" value="1k Ω" style="text;html=1;align=center;verticalAlign=middle;resizable=0;points=[];autosize=1;strokeColor=none;fillColor=none;" vertex="1" parent="1">
          <mxGeometry x="355" y="955" width="50" height="30" as="geometry" />
        </mxCell>
        <mxCell id="ZT6ZYekeUi55vI-1DfLU-82" value="" style="shape=waypoint;sketch=0;fillStyle=solid;size=6;pointerEvents=1;points=[];fillColor=none;resizable=0;rotatable=0;perimeter=centerPerimeter;snapToPoint=1;strokeWidth=5;strokeColor=#000000;" vertex="1" parent="1">
          <mxGeometry x="435" y="940" width="20" height="20" as="geometry" />
        </mxCell>
        <mxCell id="ZT6ZYekeUi55vI-1DfLU-83" style="edgeStyle=orthogonalEdgeStyle;rounded=0;orthogonalLoop=1;jettySize=auto;html=1;entryX=-0.043;entryY=0.467;entryDx=0;entryDy=0;entryPerimeter=0;endArrow=none;endFill=0;" edge="1" parent="1" source="ZT6ZYekeUi55vI-1DfLU-73" target="ZT6ZYekeUi55vI-1DfLU-82">
          <mxGeometry relative="1" as="geometry" />
        </mxCell>
        <mxCell id="ZT6ZYekeUi55vI-1DfLU-86" value="voltage&lt;div&gt;divider&lt;/div&gt;" style="rounded=0;whiteSpace=wrap;html=1;" vertex="1" parent="1">
          <mxGeometry x="340" y="1085" width="60" height="30" as="geometry" />
        </mxCell>
        <mxCell id="ZT6ZYekeUi55vI-1DfLU-87" style="edgeStyle=orthogonalEdgeStyle;rounded=0;orthogonalLoop=1;jettySize=auto;html=1;entryX=0.029;entryY=0.61;entryDx=0;entryDy=0;entryPerimeter=0;endArrow=none;endFill=0;" edge="1" parent="1" source="ZT6ZYekeUi55vI-1DfLU-86" target="ZT6ZYekeUi55vI-1DfLU-68">
          <mxGeometry relative="1" as="geometry" />
        </mxCell>
        <mxCell id="ZT6ZYekeUi55vI-1DfLU-88" value="" style="shape=waypoint;sketch=0;fillStyle=solid;size=6;pointerEvents=1;points=[];fillColor=none;resizable=0;rotatable=0;perimeter=centerPerimeter;snapToPoint=1;strokeWidth=5;strokeColor=#000000;" vertex="1" parent="1">
          <mxGeometry x="475" y="1130" width="20" height="20" as="geometry" />
        </mxCell>
        <mxCell id="ZT6ZYekeUi55vI-1DfLU-89" value="" style="shape=waypoint;sketch=0;fillStyle=solid;size=6;pointerEvents=1;points=[];fillColor=default;resizable=0;rotatable=0;perimeter=centerPerimeter;snapToPoint=1;strokeWidth=5;strokeColor=none;" vertex="1" parent="1">
          <mxGeometry x="290" y="945" width="20" height="20" as="geometry" />
        </mxCell>
        <mxCell id="ZT6ZYekeUi55vI-1DfLU-90" value="" style="ellipse;whiteSpace=wrap;html=1;aspect=fixed;" vertex="1" parent="1">
          <mxGeometry x="310" y="945" width="10" height="10" as="geometry" />
        </mxCell>
        <mxCell id="ZT6ZYekeUi55vI-1DfLU-92" value="voltage&lt;div&gt;divider&lt;/div&gt;" style="text;html=1;align=center;verticalAlign=middle;resizable=0;points=[];autosize=1;strokeColor=none;fillColor=none;" vertex="1" parent="1">
          <mxGeometry x="345" y="830" width="70" height="40" as="geometry" />
        </mxCell>
        <mxCell id="ZT6ZYekeUi55vI-1DfLU-93" value="" style="rounded=0;whiteSpace=wrap;html=1;rotation=-90;fillOpacity=20;fillColor=#000000;strokeColor=none;" vertex="1" parent="1">
          <mxGeometry x="320" y="808" width="145" height="200" as="geometry" />
        </mxCell>
        <mxCell id="ZT6ZYekeUi55vI-1DfLU-94" value="VUSB" style="text;html=1;align=center;verticalAlign=middle;resizable=0;points=[];autosize=1;strokeColor=none;fillColor=none;" vertex="1" parent="1">
          <mxGeometry x="495" y="1005" width="50" height="30" as="geometry" />
        </mxCell>
        <mxCell id="ZT6ZYekeUi55vI-1DfLU-95" value="A0" style="text;html=1;align=center;verticalAlign=middle;resizable=0;points=[];autosize=1;strokeColor=none;fillColor=none;" vertex="1" parent="1">
          <mxGeometry x="495" y="1045" width="40" height="30" as="geometry" />
        </mxCell>
        <mxCell id="ZT6ZYekeUi55vI-1DfLU-96" value="A1" style="text;html=1;align=center;verticalAlign=middle;resizable=0;points=[];autosize=1;strokeColor=none;fillColor=none;" vertex="1" parent="1">
          <mxGeometry x="495" y="1090" width="40" height="30" as="geometry" />
        </mxCell>
        <mxCell id="ZT6ZYekeUi55vI-1DfLU-97" value="GND" style="text;html=1;align=center;verticalAlign=middle;resizable=0;points=[];autosize=1;strokeColor=none;fillColor=none;" vertex="1" parent="1">
          <mxGeometry x="495" y="1130" width="50" height="30" as="geometry" />
        </mxCell>
        <mxCell id="ZT6ZYekeUi55vI-1DfLU-99" value="A1" style="text;html=1;align=center;verticalAlign=middle;resizable=0;points=[];autosize=1;strokeColor=none;fillColor=none;" vertex="1" parent="1">
          <mxGeometry x="455" y="935" width="40" height="30" as="geometry" />
        </mxCell>
        <mxCell id="ZT6ZYekeUi55vI-1DfLU-101" value="H101&lt;div&gt;pH sensor&lt;/div&gt;" style="text;html=1;align=center;verticalAlign=middle;resizable=0;points=[];autosize=1;strokeColor=none;fillColor=none;" vertex="1" parent="1">
          <mxGeometry x="81" y="1270" width="80" height="40" as="geometry" />
        </mxCell>
        <mxCell id="ZT6ZYekeUi55vI-1DfLU-126" style="edgeStyle=orthogonalEdgeStyle;rounded=0;orthogonalLoop=1;jettySize=auto;html=1;entryX=0.5;entryY=0;entryDx=0;entryDy=0;endArrow=none;endFill=0;" edge="1" parent="1" source="ZT6ZYekeUi55vI-1DfLU-104" target="ZT6ZYekeUi55vI-1DfLU-111">
          <mxGeometry relative="1" as="geometry" />
        </mxCell>
        <mxCell id="ZT6ZYekeUi55vI-1DfLU-131" style="edgeStyle=orthogonalEdgeStyle;rounded=0;orthogonalLoop=1;jettySize=auto;html=1;endArrow=none;endFill=0;entryX=0.09;entryY=0.52;entryDx=0;entryDy=0;entryPerimeter=0;" edge="1" parent="1" source="ZT6ZYekeUi55vI-1DfLU-104" target="ZT6ZYekeUi55vI-1DfLU-134">
          <mxGeometry relative="1" as="geometry">
            <mxPoint x="350" y="1360" as="targetPoint" />
          </mxGeometry>
        </mxCell>
        <mxCell id="ZT6ZYekeUi55vI-1DfLU-104" value="" style="shape=waypoint;sketch=0;fillStyle=solid;size=6;pointerEvents=1;points=[];fillColor=none;resizable=0;rotatable=0;perimeter=centerPerimeter;snapToPoint=1;strokeWidth=5;strokeColor=#FF0000;shadow=0;perimeterSpacing=0;gradientColor=none;" vertex="1" parent="1">
          <mxGeometry x="195" y="1350" width="20" height="20" as="geometry" />
        </mxCell>
        <mxCell id="ZT6ZYekeUi55vI-1DfLU-124" style="edgeStyle=orthogonalEdgeStyle;rounded=0;orthogonalLoop=1;jettySize=auto;html=1;entryX=1;entryY=0.5;entryDx=0;entryDy=0;endArrow=none;endFill=0;" edge="1" parent="1" source="ZT6ZYekeUi55vI-1DfLU-105" target="ZT6ZYekeUi55vI-1DfLU-111">
          <mxGeometry relative="1" as="geometry" />
        </mxCell>
        <mxCell id="ZT6ZYekeUi55vI-1DfLU-132" style="edgeStyle=orthogonalEdgeStyle;rounded=0;orthogonalLoop=1;jettySize=auto;html=1;endArrow=none;endFill=0;entryX=-0.15;entryY=0.52;entryDx=0;entryDy=0;entryPerimeter=0;" edge="1" parent="1" source="ZT6ZYekeUi55vI-1DfLU-105" target="ZT6ZYekeUi55vI-1DfLU-135">
          <mxGeometry relative="1" as="geometry">
            <mxPoint x="350" y="1400" as="targetPoint" />
          </mxGeometry>
        </mxCell>
        <mxCell id="ZT6ZYekeUi55vI-1DfLU-105" value="" style="shape=waypoint;sketch=0;fillStyle=solid;size=6;pointerEvents=1;points=[];fillColor=none;resizable=0;rotatable=0;perimeter=centerPerimeter;snapToPoint=1;strokeWidth=5;strokeColor=#FFFF33;" vertex="1" parent="1">
          <mxGeometry x="195" y="1390" width="20" height="20" as="geometry" />
        </mxCell>
        <mxCell id="ZT6ZYekeUi55vI-1DfLU-125" style="edgeStyle=orthogonalEdgeStyle;rounded=0;orthogonalLoop=1;jettySize=auto;html=1;entryX=0.5;entryY=1;entryDx=0;entryDy=0;endArrow=none;endFill=0;" edge="1" parent="1" source="ZT6ZYekeUi55vI-1DfLU-106" target="ZT6ZYekeUi55vI-1DfLU-111">
          <mxGeometry relative="1" as="geometry" />
        </mxCell>
        <mxCell id="ZT6ZYekeUi55vI-1DfLU-133" style="edgeStyle=orthogonalEdgeStyle;rounded=0;orthogonalLoop=1;jettySize=auto;html=1;endArrow=none;endFill=0;entryX=0.01;entryY=0.56;entryDx=0;entryDy=0;entryPerimeter=0;" edge="1" parent="1" source="ZT6ZYekeUi55vI-1DfLU-106" target="ZT6ZYekeUi55vI-1DfLU-136">
          <mxGeometry relative="1" as="geometry">
            <mxPoint x="333.55555555555554" y="1440" as="targetPoint" />
          </mxGeometry>
        </mxCell>
        <mxCell id="ZT6ZYekeUi55vI-1DfLU-106" value="" style="shape=waypoint;sketch=0;fillStyle=solid;size=6;pointerEvents=1;points=[];fillColor=none;resizable=0;rotatable=0;perimeter=centerPerimeter;snapToPoint=1;strokeWidth=5;strokeColor=#CC6600;" vertex="1" parent="1">
          <mxGeometry x="195" y="1430" width="20" height="20" as="geometry" />
        </mxCell>
        <mxCell id="ZT6ZYekeUi55vI-1DfLU-107" value="" style="ellipse;whiteSpace=wrap;html=1;aspect=fixed;" vertex="1" parent="1">
          <mxGeometry x="61" y="1390" width="20" height="20" as="geometry" />
        </mxCell>
        <mxCell id="ZT6ZYekeUi55vI-1DfLU-110" style="edgeStyle=orthogonalEdgeStyle;rounded=0;orthogonalLoop=1;jettySize=auto;html=1;endArrow=none;endFill=0;entryX=0;entryY=0.5;entryDx=0;entryDy=0;" edge="1" parent="1" source="ZT6ZYekeUi55vI-1DfLU-108" target="ZT6ZYekeUi55vI-1DfLU-111">
          <mxGeometry relative="1" as="geometry">
            <mxPoint x="110" y="1400" as="targetPoint" />
          </mxGeometry>
        </mxCell>
        <mxCell id="ZT6ZYekeUi55vI-1DfLU-108" value="" style="shape=waypoint;sketch=0;fillStyle=solid;size=6;pointerEvents=1;points=[];fillColor=none;resizable=0;rotatable=0;perimeter=centerPerimeter;snapToPoint=1;strokeWidth=0;" vertex="1" parent="1">
          <mxGeometry x="61" y="1390" width="20" height="20" as="geometry" />
        </mxCell>
        <mxCell id="ZT6ZYekeUi55vI-1DfLU-109" value="Coaxial" style="text;html=1;align=center;verticalAlign=middle;resizable=0;points=[];autosize=1;strokeColor=none;fillColor=none;" vertex="1" parent="1">
          <mxGeometry x="5" y="1385" width="60" height="30" as="geometry" />
        </mxCell>
        <mxCell id="ZT6ZYekeUi55vI-1DfLU-111" value="DFROBOT&lt;div&gt;Circuit&lt;/div&gt;" style="rounded=0;whiteSpace=wrap;html=1;" vertex="1" parent="1">
          <mxGeometry x="115" y="1385" width="65" height="30" as="geometry" />
        </mxCell>
        <mxCell id="ZT6ZYekeUi55vI-1DfLU-127" value="Supply" style="text;html=1;align=center;verticalAlign=middle;resizable=0;points=[];autosize=1;strokeColor=none;fillColor=none;" vertex="1" parent="1">
          <mxGeometry x="175" y="1320" width="60" height="30" as="geometry" />
        </mxCell>
        <mxCell id="ZT6ZYekeUi55vI-1DfLU-128" value="Data&lt;div&gt;&lt;br&gt;&lt;/div&gt;" style="text;html=1;align=center;verticalAlign=middle;resizable=0;points=[];autosize=1;strokeColor=none;fillColor=none;" vertex="1" parent="1">
          <mxGeometry x="180" y="1370" width="50" height="40" as="geometry" />
        </mxCell>
        <mxCell id="ZT6ZYekeUi55vI-1DfLU-129" value="GND" style="text;html=1;align=center;verticalAlign=middle;resizable=0;points=[];autosize=1;strokeColor=none;fillColor=none;" vertex="1" parent="1">
          <mxGeometry x="180" y="1410" width="50" height="30" as="geometry" />
        </mxCell>
        <mxCell id="ZT6ZYekeUi55vI-1DfLU-130" value="" style="rounded=0;whiteSpace=wrap;html=1;rotation=-90;fillOpacity=20;fillColor=#000000;strokeColor=none;" vertex="1" parent="1">
          <mxGeometry x="25" y="1250" width="226" height="265" as="geometry" />
        </mxCell>
        <mxCell id="ZT6ZYekeUi55vI-1DfLU-134" value="" style="shape=waypoint;sketch=0;fillStyle=solid;size=6;pointerEvents=1;points=[];fillColor=none;resizable=0;rotatable=0;perimeter=centerPerimeter;snapToPoint=1;strokeWidth=5;strokeColor=#000000;" vertex="1" parent="1">
          <mxGeometry x="405" y="1350" width="20" height="20" as="geometry" />
        </mxCell>
        <mxCell id="ZT6ZYekeUi55vI-1DfLU-135" value="" style="shape=waypoint;sketch=0;fillStyle=solid;size=6;pointerEvents=1;points=[];fillColor=none;resizable=0;rotatable=0;perimeter=centerPerimeter;snapToPoint=1;strokeWidth=5;strokeColor=#000000;" vertex="1" parent="1">
          <mxGeometry x="405" y="1390" width="20" height="20" as="geometry" />
        </mxCell>
        <mxCell id="ZT6ZYekeUi55vI-1DfLU-136" value="" style="shape=waypoint;sketch=0;fillStyle=solid;size=6;pointerEvents=1;points=[];fillColor=none;resizable=0;rotatable=0;perimeter=centerPerimeter;snapToPoint=1;strokeWidth=5;strokeColor=#000000;" vertex="1" parent="1">
          <mxGeometry x="405" y="1430" width="20" height="20" as="geometry" />
        </mxCell>
        <mxCell id="ZT6ZYekeUi55vI-1DfLU-137" value="VUSB" style="text;html=1;align=center;verticalAlign=middle;resizable=0;points=[];autosize=1;strokeColor=none;fillColor=none;" vertex="1" parent="1">
          <mxGeometry x="435" y="1345" width="50" height="30" as="geometry" />
        </mxCell>
        <mxCell id="ZT6ZYekeUi55vI-1DfLU-138" value="A2" style="text;html=1;align=center;verticalAlign=middle;resizable=0;points=[];autosize=1;strokeColor=none;fillColor=none;" vertex="1" parent="1">
          <mxGeometry x="435" y="1385" width="40" height="30" as="geometry" />
        </mxCell>
        <mxCell id="ZT6ZYekeUi55vI-1DfLU-139" value="GND" style="text;html=1;align=center;verticalAlign=middle;resizable=0;points=[];autosize=1;strokeColor=none;fillColor=none;" vertex="1" parent="1">
          <mxGeometry x="435" y="1425" width="50" height="30" as="geometry" />
        </mxCell>
        <mxCell id="ZT6ZYekeUi55vI-1DfLU-140" value="" style="line;strokeWidth=1;direction=south;html=1;perimeter=backbonePerimeter;points=[];outlineConnect=0;rotation=90;" vertex="1" parent="1">
          <mxGeometry x="423" y="297" width="1" height="840" as="geometry" />
        </mxCell>
        <mxCell id="ZT6ZYekeUi55vI-1DfLU-145" value="" style="line;strokeWidth=1;direction=south;html=1;perimeter=backbonePerimeter;points=[];outlineConnect=0;rotation=90;dashed=1;dashPattern=12 12;" vertex="1" parent="1">
          <mxGeometry x="420" y="800" width="5" height="840" as="geometry" />
        </mxCell>
      </root>
    </mxGraphModel>
  </diagram>
</mxfile>
